SplineFontDB: 3.0
FontName: Tanha
FullName: Tanha
FamilyName: Tanha
Weight: Regular
Copyright: Copyright (c) 2003 by Bitstream, Inc. All Rights Reserved.\nDejaVu changes are in public domain\nChanges by Saber Rastikerdar are in public domain.
Version: 0.4
ItalicAngle: 0
UnderlinePosition: -500
UnderlineWidth: 100
Ascent: 1638
Descent: 410
InvalidEm: 0
LayerCount: 2
Layer: 0 1 "Back" 1
Layer: 1 1 "Fore" 0
XUID: [1021 502 1027637223 1298441]
UniqueID: 4062413
UseUniqueID: 1
FSType: 0
OS2Version: 3
OS2_WeightWidthSlopeOnly: 0
OS2_UseTypoMetrics: 1
CreationTime: 1431850356
ModificationTime: 1482945911
PfmFamily: 33
TTFWeight: 400
TTFWidth: 5
LineGap: 0
VLineGap: 0
Panose: 2 11 6 3 3 8 4 2 2 4
OS2TypoAscent: 2250
OS2TypoAOffset: 0
OS2TypoDescent: -1100
OS2TypoDOffset: 0
OS2TypoLinegap: 0
OS2WinAscent: 2250
OS2WinAOffset: 0
OS2WinDescent: 1100
OS2WinDOffset: 0
HheadAscent: 2250
HheadAOffset: 0
HheadDescent: -1100
HheadDOffset: 0
OS2SubXSize: 1331
OS2SubYSize: 1433
OS2SubXOff: 0
OS2SubYOff: 286
OS2SupXSize: 1331
OS2SupYSize: 1433
OS2SupXOff: 0
OS2SupYOff: 983
OS2StrikeYSize: 102
OS2StrikeYPos: 530
OS2CapHeight: 1638
OS2XHeight: 1082
OS2Vendor: 'PfEd'
OS2CodePages: 00000041.20080000
OS2UnicodeRanges: 80002003.80000000.00000008.00000000
Lookup: 1 0 0 "'case' Case-Sensitive Forms in Latin lookup 0" { "'case' Case-Sensitive Forms in Latin lookup 0 subtable"  } ['case' ('DFLT' <'dflt' > 'latn' <'CAT ' 'ESP ' 'GAL ' 'dflt' > ) ]
Lookup: 6 1 0 "'ccmp' Glyph Composition/Decomposition lookup 2" { "'ccmp' Glyph Composition/Decomposition lookup 2 subtable"  } ['ccmp' ('arab' <'KUR ' 'SND ' 'URD ' 'dflt' > 'hebr' <'dflt' > 'nko ' <'dflt' > ) ]
Lookup: 6 0 0 "'ccmp' Glyph Composition/Decomposition lookup 3" { "'ccmp' Glyph Composition/Decomposition lookup 3 subtable"  } ['ccmp' ('cyrl' <'MKD ' 'SRB ' 'dflt' > 'grek' <'dflt' > 'latn' <'ISM ' 'KSM ' 'LSM ' 'MOL ' 'NSM ' 'ROM ' 'SKS ' 'SSM ' 'dflt' > ) ]

StartChar: exclam
Encoding: 33 33 1
Width: 602
VWidth: 2351
GlyphClass: 2
Flags: W
LayerCount: 2
Fore
SplineSet
167.827148438 134.745117188 m 128,-1,1
 167.827148438 189.9921875 167.827148438 189.9921875 206.162109375 228.327148438 c 128,-1,2
 244.497070312 266.662109375 244.497070312 266.662109375 300.872070312 267.790039062 c 0,3,4
 357.247070312 266.662109375 357.247070312 266.662109375 395.58203125 228.327148438 c 128,-1,5
 433.91796875 189.9921875 433.91796875 189.9921875 433.91796875 134.745117188 c 128,-1,6
 433.91796875 79.4970703125 433.91796875 79.4970703125 395.58203125 41.162109375 c 128,-1,7
 357.247070312 2.8271484375 357.247070312 2.8271484375 300.872070312 1.7001953125 c 0,8,9
 244.497070312 2.8271484375 244.497070312 2.8271484375 206.162109375 41.162109375 c 128,-1,0
 167.827148438 79.4970703125 167.827148438 79.4970703125 167.827148438 134.745117188 c 128,-1,1
203.158203125 1397.32128906 m 1,10,-1
 404.166992188 1397.32128906 l 1,11,-1
 383.004882812 441.38671875 l 1,12,-1
 225.37890625 441.38671875 l 1,13,-1
 203.158203125 1397.32128906 l 1,10,-1
EndSplineSet
EndChar

StartChar: period
Encoding: 46 46 2
Width: 602
VWidth: 2351
GlyphClass: 2
Flags: W
LayerCount: 2
Fore
SplineSet
167.827148438 134.745117188 m 132,-1,1
 167.827148438 189.9921875 167.827148438 189.9921875 206.162109375 228.327148438 c 132,-1,2
 244.497070312 266.662109375 244.497070312 266.662109375 300.872070312 267.790039062 c 4,3,4
 357.247070312 266.662109375 357.247070312 266.662109375 395.58203125 228.327148438 c 132,-1,5
 433.91796875 189.9921875 433.91796875 189.9921875 433.91796875 134.745117188 c 132,-1,6
 433.91796875 79.4970703125 433.91796875 79.4970703125 395.58203125 41.162109375 c 132,-1,7
 357.247070312 2.8271484375 357.247070312 2.8271484375 300.872070312 1.7001953125 c 4,8,9
 244.497070312 2.8271484375 244.497070312 2.8271484375 206.162109375 41.162109375 c 132,-1,0
 167.827148438 79.4970703125 167.827148438 79.4970703125 167.827148438 134.745117188 c 132,-1,1
EndSplineSet
EndChar

StartChar: colon
Encoding: 58 58 3
Width: 601
VWidth: 2351
GlyphClass: 2
Flags: W
LayerCount: 2
Fore
SplineSet
167.827148438 874.745117188 m 128,-1,1
 167.827148438 929.9921875 167.827148438 929.9921875 206.162109375 968.327148438 c 128,-1,2
 244.497070312 1006.66210938 244.497070312 1006.66210938 300.872070312 1007.79003906 c 0,3,4
 357.247070312 1006.66210938 357.247070312 1006.66210938 395.58203125 968.327148438 c 128,-1,5
 433.91796875 929.9921875 433.91796875 929.9921875 433.91796875 874.745117188 c 128,-1,6
 433.91796875 819.497070312 433.91796875 819.497070312 395.58203125 781.162109375 c 128,-1,7
 357.247070312 742.827148438 357.247070312 742.827148438 300.872070312 741.700195312 c 0,8,9
 244.497070312 742.827148438 244.497070312 742.827148438 206.162109375 781.162109375 c 128,-1,0
 167.827148438 819.497070312 167.827148438 819.497070312 167.827148438 874.745117188 c 128,-1,1
167.827148438 134.745117188 m 128,-1,11
 167.827148438 189.9921875 167.827148438 189.9921875 206.162109375 228.327148438 c 128,-1,12
 244.497070312 266.662109375 244.497070312 266.662109375 300.872070312 267.790039062 c 0,13,14
 357.247070312 266.662109375 357.247070312 266.662109375 395.58203125 228.327148438 c 128,-1,15
 433.91796875 189.9921875 433.91796875 189.9921875 433.91796875 134.745117188 c 128,-1,16
 433.91796875 79.4970703125 433.91796875 79.4970703125 395.58203125 41.162109375 c 128,-1,17
 357.247070312 2.8271484375 357.247070312 2.8271484375 300.872070312 1.7001953125 c 0,18,19
 244.497070312 2.8271484375 244.497070312 2.8271484375 206.162109375 41.162109375 c 128,-1,10
 167.827148438 79.4970703125 167.827148438 79.4970703125 167.827148438 134.745117188 c 128,-1,11
EndSplineSet
EndChar

StartChar: afii57388
Encoding: 1548 1548 5
Width: 682
VWidth: 2358
GlyphClass: 2
Flags: W
LayerCount: 2
Fore
SplineSet
347.7734375 0.01953125 m 4,0,1
 217.196289062 2.1435546875 217.196289062 2.1435546875 200.41015625 119.314453125 c 4,2,3
 191 185 191 185 210.592773438 273.217773438 c 4,4,5
 254.819335938 494.841796875 254.819335938 494.841796875 441.241210938 633.518554688 c 5,6,-1
 499.15234375 597.49609375 l 5,7,8
 349 468 349 468 335.248046875 271.416992188 c 5,9,10
 436 273 436 273 472.266601562 227.84375 c 4,11,12
 509 183 509 183 501.96875 105.373046875 c 4,13,14
 491 -2 491 -2 347.7734375 0.01953125 c 4,0,1
EndSplineSet
EndChar

StartChar: uni0615
Encoding: 1557 1557 6
Width: -28
VWidth: 2417
GlyphClass: 4
Flags: W
AnchorPoint: "Anchor-10" 585.395 1450.31 mark 0
AnchorPoint: "Anchor-9" 585.395 1450.31 mark 0
AnchorPoint: "Anchor-1" 597.995 2182.63 basemark 0
AnchorPoint: "Anchor-1" 585.395 1450.31 mark 0
LayerCount: 2
Fore
SplineSet
494.01171875 1603.07714844 m 1,0,-1
 602.741210938 1603.07714844 l 2,1,2
 693.794921875 1603.07714844 693.794921875 1603.07714844 751.09765625 1637.35009766 c 128,-1,3
 808.400390625 1671.62304688 808.400390625 1671.62304688 808.400390625 1711.10742188 c 128,-1,4
 808.400390625 1750.59179688 808.400390625 1750.59179688 782.1640625 1764.80273438 c 0,5,6
 690.48885131 1815.96866928 690.48885131 1815.96866928 494.01171875 1603.07714844 c 1,0,-1
887.03515625 1720.98046875 m 0,7,8
 887.34765625 1524.47753906 887.34765625 1524.47753906 630.028320312 1524.47753906 c 2,9,-1
 310.141601562 1524.47753906 l 1,10,-1
 310.141601562 1603.07714844 l 1,11,-1
 406.241210938 1603.07714844 l 1,12,-1
 406.241210938 2076.43164062 l 1,13,-1
 486.022460938 2075.43261719 l 1,14,-1
 485.189453125 1677.9453125 l 1,15,16
 670.331861654 1887.91070866 670.331861654 1887.91070866 803.60546875 1839.92382812 c 0,17,18
 887.344726562 1808.90917969 887.344726562 1808.90917969 887.03515625 1720.98046875 c 0,7,8
EndSplineSet
EndChar

StartChar: uni061B
Encoding: 1563 1563 7
Width: 682
VWidth: 2358
GlyphClass: 2
Flags: W
LayerCount: 2
Fore
SplineSet
217.827148438 134.745117188 m 128,-1,1
 217.827148438 189.9921875 217.827148438 189.9921875 256.162109375 228.327148438 c 128,-1,2
 294.497070312 266.662109375 294.497070312 266.662109375 350.872070312 267.790039062 c 0,3,4
 407.247070312 266.662109375 407.247070312 266.662109375 445.58203125 228.327148438 c 128,-1,5
 483.91796875 189.9921875 483.91796875 189.9921875 483.91796875 134.745117188 c 128,-1,6
 483.91796875 79.4970703125 483.91796875 79.4970703125 445.58203125 41.162109375 c 128,-1,7
 407.247070312 2.8271484375 407.247070312 2.8271484375 350.872070312 1.7001953125 c 0,8,9
 294.497070312 2.8271484375 294.497070312 2.8271484375 256.162109375 41.162109375 c 128,-1,0
 217.827148438 79.4970703125 217.827148438 79.4970703125 217.827148438 134.745117188 c 128,-1,1
347.7734375 440.01953125 m 0,10,11
 217 442 217 442 200.41015625 559.314453125 c 0,12,13
 192 621 192 621 210.592773438 713.217773438 c 0,14,15
 256 936 256 936 441.241210938 1073.51855469 c 1,16,-1
 499.15234375 1037.49609375 l 1,17,18
 349 908 349 908 335.248046875 711.416992188 c 1,19,20
 436 713 436 713 472.266601562 667.84375 c 0,21,22
 509 623 509 623 501.96875 545.373046875 c 0,23,24
 491 438 491 438 347.7734375 440.01953125 c 0,10,11
EndSplineSet
EndChar

StartChar: uni061F
Encoding: 1567 1567 8
Width: 989
VWidth: 2351
GlyphClass: 2
Flags: W
LayerCount: 2
Fore
SplineSet
454.827148438 134.745117188 m 128,-1,1
 454.827148438 189.9921875 454.827148438 189.9921875 493.162109375 228.327148438 c 128,-1,2
 531.497070312 266.662109375 531.497070312 266.662109375 587.872070312 267.790039062 c 0,3,4
 644.247070312 266.662109375 644.247070312 266.662109375 682.58203125 228.327148438 c 128,-1,5
 720.91796875 189.9921875 720.91796875 189.9921875 720.91796875 134.745117188 c 128,-1,6
 720.91796875 79.4970703125 720.91796875 79.4970703125 682.58203125 41.162109375 c 128,-1,7
 644.247070312 2.8271484375 644.247070312 2.8271484375 587.872070312 1.7001953125 c 0,8,9
 531.497070312 2.8271484375 531.497070312 2.8271484375 493.162109375 41.162109375 c 128,-1,0
 454.827148438 79.4970703125 454.827148438 79.4970703125 454.827148438 134.745117188 c 128,-1,1
494.922851562 438.849609375 m 5,10,-1
 494.922851562 457.456054688 l 6,11,12
 495.000764162 486.282730088 495.000764162 486.282730088 377.157226562 601.447265625 c 2,13,-1
 281.70703125 694.727539062 l 1,14,15
 117 854 117 854 118.08203125 1022.5234375 c 128,-1,16
 119 1191 119 1191 242 1301.5 c 0,17,18
 347 1396 347 1396 532 1396.22167969 c 0,19,20
 748 1396 748 1396 897 1218 c 1,21,-1
 802 1093.09277344 l 1,22,23
 680 1221 680 1221 540 1218.53222656 c 0,24,25
 447 1217 447 1217 378.5 1159.5 c 128,-1,26
 310 1102 310 1102 310.041015625 997.405273438 c 128,-1,27
 310 893 310 893 430.041992188 781.795898438 c 1,28,-1
 527.549804688 685.372070312 l 1,29,30
 682.924804688 537.071771438 682.924804688 537.071771438 682.924804688 459.58203125 c 6,31,-1
 682.924804688 438.849609375 l 5,32,-1
 494.922851562 438.849609375 l 5,10,-1
EndSplineSet
EndChar

StartChar: uni0621
Encoding: 1569 1569 9
Width: 888
VWidth: 2510
GlyphClass: 2
Flags: W
AnchorPoint: "Anchor-7" 333.895 -286.273 basechar 0
AnchorPoint: "Anchor-10" 410.147 1169.28 basechar 0
LayerCount: 2
Fore
SplineSet
136.95703125 4.349609375 m 5,0,-1
 136.95703125 190.4765625 l 5,1,2
 248 262 248 262 328 287 c 5,3,4
 148 381 148 381 144.935313006 520 c 4,5,6
 143 606 143 606 172.918945312 672 c 4,7,8
 249 840 249 840 442 843.903451074 c 4,9,10
 597 847 597 847 703 752 c 5,11,-1
 649 630 l 5,12,13
 563 680 563 680 480.987304688 679.30078125 c 4,14,15
 404.387539589 679.09504567 404.387539589 679.09504567 361 650.457587194 c 4,16,17
 303.799484142 612.703028783 303.799484142 612.703028783 299.697265625 533.591796875 c 4,18,19
 295 445 295 445 485.748046875 364.142578125 c 5,20,-1
 731 414 l 5,21,-1
 757 234 l 5,22,23
 497 207 497 207 136.95703125 4.349609375 c 5,0,-1
EndSplineSet
EndChar

StartChar: uni0627
Encoding: 1575 1575 15
Width: 510
VWidth: 2424
GlyphClass: 2
Flags: W
AnchorPoint: "Anchor-10" 252.469 1503.21 basechar 0
AnchorPoint: "Anchor-7" 239.656 -251.756 basechar 0
LayerCount: 2
Fore
SplineSet
341.186592791 1243 m 0,0,1
 369.280737089 1026.91572391 369.280737089 1026.91572391 370.0625 663.1875 c 0,2,3
 371 227 371 227 278.600585938 1.6689453125 c 1,4,-1
 150.897460938 1.6689453125 l 1,5,6
 220.135742188 398.444335938 220.135742188 398.444335938 215.912109375 712.467773438 c 0,7,8
 212.143194914 992.748100441 212.143194914 992.748100441 191.471392523 1237 c 0,9,10
 186.538206809 1295.2890625 186.538206809 1295.2890625 227 1295.2890625 c 2,11,-1
 295 1295.2890625 l 2,12,13
 334.388243121 1295.2890625 334.388243121 1295.2890625 341.186592791 1243 c 0,0,1
EndSplineSet
Substitution2: "'fina' Terminal Forms in Arabic lookup 9 subtable" uniFE8E
EndChar

StartChar: uni062D
Encoding: 1581 1581 21
Width: 1257
VWidth: 2424
GlyphClass: 2
Flags: W
AnchorPoint: "Anchor-10" 546.419 1185.92 basechar 0
AnchorPoint: "Anchor-7" 428.46 -936.494 basechar 0
LayerCount: 2
Fore
SplineSet
295.326171875 -207.159179688 m 24,0,1
 295 -519 295 -519 698 -519.129882812 c 0,2,3
 885 -519 885 -519 1062 -447.559570312 c 0,4,5
 1125.98875197 -422.004492105 1125.98875197 -422.004492105 1135.59472656 -467 c 2,6,-1
 1150.96582031 -539 l 2,7,8
 1161 -588 1161 -588 1104 -612.145507812 c 0,9,10
 930 -686 930 -686 687 -685.672851562 c 0,11,12
 445 -685 445 -685 312 -588.69921875 c 0,13,14
 134 -461 134 -461 134.670898438 -210.208984375 c 0,15,16
 137 302 137 302 763 517 c 1,17,18
 554 571 554 571 434.66015625 567.18359375 c 0,19,20
 323 564 323 564 181 381 c 1,21,-1
 60 452 l 1,22,23
 227.757175796 726.237778397 227.757175796 726.237778397 428.66015625 739.344726562 c 0,24,25
 546 747 546 747 758.16796875 695.05078125 c 0,26,27
 955.34665737 646.870097052 955.34665737 646.870097052 1078 592.971679688 c 0,28,29
 1128.16438913 570.927761895 1128.16438913 570.927761895 1123.91113281 543 c 2,30,-1
 1114.7734375 483 l 2,31,32
 1108 437 1108 437 1048 431.013671875 c 0,33,34
 871 414 871 414 664.883789062 305.266601562 c 0,35,36
 296 111 296 111 295.326171875 -207.159179688 c 24,0,1
EndSplineSet
Substitution2: "'fina' Terminal Forms in Arabic lookup 9 subtable" uniFEA2
Substitution2: "'medi' Medial Forms in Arabic lookup 11 subtable" uniFEA4
Substitution2: "'init' Initial Forms in Arabic lookup 13 subtable" uniFEA3
EndChar

StartChar: uni062F
Encoding: 1583 1583 23
Width: 1023
VWidth: 2424
GlyphClass: 2
Flags: W
AnchorPoint: "Anchor-10" 460.965 1349.56 basechar 0
AnchorPoint: "Anchor-7" 410.615 -223.182 basechar 0
LayerCount: 2
Fore
SplineSet
452.154296875 183.46484375 m 0,0,1
 727.423586905 196.951658339 727.423586905 196.951658339 730.585264663 334 c 4,2,3
 732.616121199 422.030957512 732.616121199 422.030957512 677.055664062 518.717773438 c 0,4,5
 590 668 590 668 463.668945312 766 c 0,6,7
 409.176707587 807.864242512 409.176707587 807.864242512 429.974609375 838 c 2,8,-1
 485.875976562 919 l 2,9,10
 516 963 516 963 564.455078125 922 c 0,11,12
 928 615 928 615 892.993164062 274.963867188 c 0,13,14
 865 5 865 5 449.559570312 -2.7060546875 c 0,15,16
 269 -6 269 -6 159 18.1397520343 c 0,17,18
 100.747070312 31.0560816984 100.747070312 31.0560816984 100.747070312 87 c 2,19,-1
 100.747070312 168 l 2,20,21
 101 219 101 219 168 206.081469335 c 0,22,23
 321 176 321 176 452.154296875 183.46484375 c 0,0,1
EndSplineSet
Substitution2: "'fina' Terminal Forms in Arabic lookup 9 subtable" uniFEAA
EndChar

StartChar: uni0631
Encoding: 1585 1585 25
Width: 810
VWidth: 2429
GlyphClass: 2
Flags: W
AnchorPoint: "Anchor-7" 383.987 -704.544 basechar 0
AnchorPoint: "Anchor-10" 400.551 1027.99 basechar 0
LayerCount: 2
Fore
SplineSet
705.973632812 89.6171875 m 0,0,1
 631 -435 631 -435 116 -511.412395481 c 0,2,3
 92.4348084605 -514.9350033 92.4348084605 -514.9350033 77.9813519033 -496 c 2,4,-1
 29.12890625 -432 l 6,5,6
 4 -399 4 -399 41 -390.1484375 c 4,7,8
 506 -275 506 -275 544.193359375 109.184570312 c 4,9,10
 551 178 551 178 540.600585938 417 c 4,11,12
 538.009521953 474.787635062 538.009521953 474.787635062 581 483.887695312 c 2,13,-1
 659 500.3984375 l 2,14,15
 705 510 705 510 707.802734375 444 c 0,16,17
 719 179 719 179 705.973632812 89.6171875 c 0,0,1
EndSplineSet
PairPos2: "'kern' Horizontal Kerning lookup 15-1" uniFEE7 dx=-150 dy=0 dh=-150 dv=0 dx=0 dy=0 dh=0 dv=0
PairPos2: "'kern' Horizontal Kerning lookup 15-2" uniFB90 dx=-190 dy=0 dh=-190 dv=0 dx=0 dy=0 dh=0 dv=0
PairPos2: "'kern' Horizontal Kerning lookup 15-2" uniFB8E dx=-190 dy=0 dh=-190 dv=0 dx=0 dy=0 dh=0 dv=0
PairPos2: "'kern' Horizontal Kerning lookup 15-2" uni06A9 dx=-190 dy=0 dh=-190 dv=0 dx=0 dy=0 dh=0 dv=0
PairPos2: "'kern' Horizontal Kerning lookup 15-2" uni064A dx=-50 dy=0 dh=-50 dv=0 dx=0 dy=0 dh=0 dv=0
PairPos2: "'kern' Horizontal Kerning lookup 15-2" afii57414 dx=-50 dy=0 dh=-50 dv=0 dx=0 dy=0 dh=0 dv=0
PairPos2: "'kern' Horizontal Kerning lookup 15-2" uni0649 dx=-50 dy=0 dh=-50 dv=0 dx=0 dy=0 dh=0 dv=0
PairPos2: "'kern' Horizontal Kerning lookup 15-2" uni0648 dx=-50 dy=0 dh=-50 dv=0 dx=0 dy=0 dh=0 dv=0
PairPos2: "'kern' Horizontal Kerning lookup 15-2" afii57412 dx=-50 dy=0 dh=-50 dv=0 dx=0 dy=0 dh=0 dv=0
PairPos2: "'kern' Horizontal Kerning lookup 15-2" uniFEEB dx=-150 dy=0 dh=-150 dv=0 dx=0 dy=0 dh=0 dv=0
PairPos2: "'kern' Horizontal Kerning lookup 15-2" uni0647 dx=-150 dy=0 dh=-150 dv=0 dx=0 dy=0 dh=0 dv=0
PairPos2: "'kern' Horizontal Kerning lookup 15-2" uni0646 dx=-50 dy=0 dh=-50 dv=0 dx=0 dy=0 dh=0 dv=0
PairPos2: "'kern' Horizontal Kerning lookup 15-2" uniFEE3 dx=-150 dy=0 dh=-150 dv=0 dx=0 dy=0 dh=0 dv=0
PairPos2: "'kern' Horizontal Kerning lookup 15-2" uni0645 dx=-150 dy=0 dh=-150 dv=0 dx=0 dy=0 dh=0 dv=0
PairPos2: "'kern' Horizontal Kerning lookup 15-2" uniFEFB dx=-150 dy=0 dh=-150 dv=0 dx=0 dy=0 dh=0 dv=0
PairPos2: "'kern' Horizontal Kerning lookup 15-2" uniFEDF dx=-150 dy=0 dh=-150 dv=0 dx=0 dy=0 dh=0 dv=0
PairPos2: "'kern' Horizontal Kerning lookup 15-2" uni0644 dx=-50 dy=0 dh=-50 dv=0 dx=0 dy=0 dh=0 dv=0
PairPos2: "'kern' Horizontal Kerning lookup 15-2" uniFEDB dx=-190 dy=0 dh=-190 dv=0 dx=0 dy=0 dh=0 dv=0
PairPos2: "'kern' Horizontal Kerning lookup 15-2" uni0643 dx=-150 dy=0 dh=-150 dv=0 dx=0 dy=0 dh=0 dv=0
PairPos2: "'kern' Horizontal Kerning lookup 15-2" uniFED7 dx=-150 dy=0 dh=-150 dv=0 dx=0 dy=0 dh=0 dv=0
PairPos2: "'kern' Horizontal Kerning lookup 15-2" uni0642 dx=-50 dy=0 dh=-50 dv=0 dx=0 dy=0 dh=0 dv=0
PairPos2: "'kern' Horizontal Kerning lookup 15-2" uniFED3 dx=-150 dy=0 dh=-150 dv=0 dx=0 dy=0 dh=0 dv=0
PairPos2: "'kern' Horizontal Kerning lookup 15-2" uni0641 dx=-150 dy=0 dh=-150 dv=0 dx=0 dy=0 dh=0 dv=0
PairPos2: "'kern' Horizontal Kerning lookup 15-2" uniFECF dx=-150 dy=0 dh=-150 dv=0 dx=0 dy=0 dh=0 dv=0
PairPos2: "'kern' Horizontal Kerning lookup 15-2" uniFECB dx=-150 dy=0 dh=-150 dv=0 dx=0 dy=0 dh=0 dv=0
PairPos2: "'kern' Horizontal Kerning lookup 15-2" uniFEC7 dx=-150 dy=0 dh=-150 dv=0 dx=0 dy=0 dh=0 dv=0
PairPos2: "'kern' Horizontal Kerning lookup 15-2" uni0638 dx=-150 dy=0 dh=-150 dv=0 dx=0 dy=0 dh=0 dv=0
PairPos2: "'kern' Horizontal Kerning lookup 15-2" uniFEC3 dx=-150 dy=0 dh=-150 dv=0 dx=0 dy=0 dh=0 dv=0
PairPos2: "'kern' Horizontal Kerning lookup 15-2" uni0637 dx=-150 dy=0 dh=-150 dv=0 dx=0 dy=0 dh=0 dv=0
PairPos2: "'kern' Horizontal Kerning lookup 15-2" uniFEBF dx=-150 dy=0 dh=-150 dv=0 dx=0 dy=0 dh=0 dv=0
PairPos2: "'kern' Horizontal Kerning lookup 15-2" uni0636 dx=-150 dy=0 dh=-150 dv=0 dx=0 dy=0 dh=0 dv=0
PairPos2: "'kern' Horizontal Kerning lookup 15-2" uniFEBB dx=-150 dy=0 dh=-150 dv=0 dx=0 dy=0 dh=0 dv=0
PairPos2: "'kern' Horizontal Kerning lookup 15-2" uni0635 dx=-150 dy=0 dh=-150 dv=0 dx=0 dy=0 dh=0 dv=0
PairPos2: "'kern' Horizontal Kerning lookup 15-2" uniFEB7 dx=-150 dy=0 dh=-150 dv=0 dx=0 dy=0 dh=0 dv=0
PairPos2: "'kern' Horizontal Kerning lookup 15-2" uni0634 dx=-150 dy=0 dh=-150 dv=0 dx=0 dy=0 dh=0 dv=0
PairPos2: "'kern' Horizontal Kerning lookup 15-2" uniFEB3 dx=-150 dy=0 dh=-150 dv=0 dx=0 dy=0 dh=0 dv=0
PairPos2: "'kern' Horizontal Kerning lookup 15-2" uni0633 dx=-150 dy=0 dh=-150 dv=0 dx=0 dy=0 dh=0 dv=0
PairPos2: "'kern' Horizontal Kerning lookup 15-2" uni0632 dx=-50 dy=0 dh=-50 dv=0 dx=0 dy=0 dh=0 dv=0
PairPos2: "'kern' Horizontal Kerning lookup 15-2" uni0631 dx=-50 dy=0 dh=-50 dv=0 dx=0 dy=0 dh=0 dv=0
PairPos2: "'kern' Horizontal Kerning lookup 15-2" uni0630 dx=-150 dy=0 dh=-150 dv=0 dx=0 dy=0 dh=0 dv=0
PairPos2: "'kern' Horizontal Kerning lookup 15-2" uni062F dx=-150 dy=0 dh=-150 dv=0 dx=0 dy=0 dh=0 dv=0
PairPos2: "'kern' Horizontal Kerning lookup 15-2" uniFEA7 dx=-150 dy=0 dh=-150 dv=0 dx=0 dy=0 dh=0 dv=0
PairPos2: "'kern' Horizontal Kerning lookup 15-2" uniFEA3 dx=-150 dy=0 dh=-150 dv=0 dx=0 dy=0 dh=0 dv=0
PairPos2: "'kern' Horizontal Kerning lookup 15-2" uniFE9F dx=-150 dy=0 dh=-150 dv=0 dx=0 dy=0 dh=0 dv=0
PairPos2: "'kern' Horizontal Kerning lookup 15-2" uniFE9B dx=-150 dy=0 dh=-150 dv=0 dx=0 dy=0 dh=0 dv=0
PairPos2: "'kern' Horizontal Kerning lookup 15-2" uni062B dx=-150 dy=0 dh=-150 dv=0 dx=0 dy=0 dh=0 dv=0
PairPos2: "'kern' Horizontal Kerning lookup 15-2" uniFE97 dx=-150 dy=0 dh=-150 dv=0 dx=0 dy=0 dh=0 dv=0
PairPos2: "'kern' Horizontal Kerning lookup 15-2" uni062A dx=-150 dy=0 dh=-150 dv=0 dx=0 dy=0 dh=0 dv=0
PairPos2: "'kern' Horizontal Kerning lookup 15-2" uni0629 dx=-150 dy=0 dh=-150 dv=0 dx=0 dy=0 dh=0 dv=0
PairPos2: "'kern' Horizontal Kerning lookup 15-2" uniFE91 dx=-50 dy=0 dh=-50 dv=0 dx=0 dy=0 dh=0 dv=0
PairPos2: "'kern' Horizontal Kerning lookup 15-2" uni0628 dx=-150 dy=0 dh=-150 dv=0 dx=0 dy=0 dh=0 dv=0
PairPos2: "'kern' Horizontal Kerning lookup 15-2" uni0627 dx=-190 dy=0 dh=-190 dv=0 dx=0 dy=0 dh=0 dv=0
PairPos2: "'kern' Horizontal Kerning lookup 15-2" uni0623 dx=-190 dy=0 dh=-190 dv=0 dx=0 dy=0 dh=0 dv=0
PairPos2: "'kern' Horizontal Kerning lookup 15-2" uni0622 dx=-190 dy=0 dh=-190 dv=0 dx=0 dy=0 dh=0 dv=0
PairPos2: "'kern' Horizontal Kerning lookup 15-2" uni0621 dx=-150 dy=0 dh=-150 dv=0 dx=0 dy=0 dh=0 dv=0
PairPos2: "'kern' Horizontal Kerning lookup 15-2" uniFB94 dx=-190 dy=0 dh=-190 dv=0 dx=0 dy=0 dh=0 dv=0
PairPos2: "'kern' Horizontal Kerning lookup 15-2" uniFB92 dx=-190 dy=0 dh=-190 dv=0 dx=0 dy=0 dh=0 dv=0
PairPos2: "'kern' Horizontal Kerning lookup 15-2" afii57509 dx=-190 dy=0 dh=-190 dv=0 dx=0 dy=0 dh=0 dv=0
PairPos2: "'kern' Horizontal Kerning lookup 15-2" afii57508 dx=-50 dy=0 dh=-50 dv=0 dx=0 dy=0 dh=0 dv=0
PairPos2: "'kern' Horizontal Kerning lookup 15-2" afii57506 dx=-150 dy=0 dh=-150 dv=0 dx=0 dy=0 dh=0 dv=0
PairPos2: "'kern' Horizontal Kerning lookup 15-2" afii57440 dx=-150 dy=0 dh=-150 dv=0 dx=0 dy=0 dh=0 dv=0
PairPos2: "'kern' Horizontal Kerning lookup 15-2" uniFE8B dx=-150 dy=0 dh=-150 dv=0 dx=0 dy=0 dh=0 dv=0
Substitution2: "'fina' Terminal Forms in Arabic lookup 9 subtable" uniFEAE
EndChar

StartChar: uni0633
Encoding: 1587 1587 27
Width: 2430
VWidth: 2429
GlyphClass: 2
Flags: W
AnchorPoint: "Anchor-7" 428.256 -683.733 basechar 0
AnchorPoint: "Anchor-10" 593.867 939.731 basechar 0
LayerCount: 2
Fore
SplineSet
1495.00585938 183.9921875 m 0,0,1
 1688.78067581 187.995468883 1688.78067581 187.995468883 1698.734375 391.598632812 c 6,2,-1
 1701.8828125 456 l 6,3,4
 1705.00609638 512.109521004 1705.00609638 512.109521004 1753 512.076171875 c 6,5,-1
 1805 512.040039062 l 6,6,7
 1851.34094901 511.999703233 1851.34094901 511.999703233 1847.75390625 436 c 6,8,-1
 1843.17578125 339.001953125 l 6,9,10
 1836 182 1836 182 2010 184 c 28,11,12
 2172 186 2172 186 2163.02148438 410.001953125 c 4,13,14
 2160 483 2160 483 2138.31542969 567 c 4,15,16
 2118.90591834 644.37505184 2118.90591834 644.37505184 2157 659.674804688 c 6,17,-1
 2220 684.977539062 l 6,18,19
 2280 709 2280 709 2300.35058594 636 c 4,20,21
 2332 522 2332 522 2333.07226562 426.001953125 c 4,22,23
 2336 0 2336 0 2018.30078125 0.001953125 c 20,24,25
 1841 0 1841 0 1761.17578125 136.06640625 c 5,26,27
 1630 1 1630 1 1501 0 c 0,28,29
 1354 -1 1354 -1 1325.32324219 60.1328125 c 1,30,31
 1290 -506 1290 -506 675 -504.098632812 c 0,32,33
 99 -502 99 -502 100.877929688 -20.9833984375 c 0,34,35
 102 266 102 266 320.527941923 540 c 0,36,37
 362.004900861 592.006144975 362.004900861 592.006144975 406 561.784250554 c 2,38,-1
 454 528.811238546 l 2,39,40
 489 505 489 505 446.912269162 444 c 0,41,42
 264 183 264 183 264.977539062 -5 c 0,43,44
 267 -330 267 -330 703 -326.5 c 128,-1,45
 1139 -323 1139 -323 1157.25097656 41.8154296875 c 0,46,47
 1168 249 1168 249 1154.68667681 369 c 0,48,49
 1145.02271401 456.793651365 1145.02271401 456.793651365 1195 479.87917543 c 2,50,-1
 1243 502.051350911 l 2,51,52
 1323 539 1323 539 1324.26971305 453 c 0,53,54
 1326 295 1326 295 1335.01367188 270.4296875 c 8,55,56
 1366 182 1366 182 1495.00585938 183.9921875 c 0,0,1
EndSplineSet
Substitution2: "'fina' Terminal Forms in Arabic lookup 9 subtable" uniFEB2
Substitution2: "'medi' Medial Forms in Arabic lookup 11 subtable" uniFEB4
Substitution2: "'init' Initial Forms in Arabic lookup 13 subtable" uniFEB3
EndChar

StartChar: uni0635
Encoding: 1589 1589 29
Width: 2563
VWidth: 2424
GlyphClass: 2
Flags: W
AnchorPoint: "Anchor-7" 428.256 -683.733 basechar 0
AnchorPoint: "Anchor-10" 624.185 1022.93 basechar 0
LayerCount: 2
Fore
SplineSet
1335.01367188 270.4296875 m 8,0,1
 1349 228 1349 228 1394 211 c 1,2,3
 1806 784 1806 784 2147.93164062 784.127929688 c 0,4,5
 2307 784 2307 784 2393.515625 687.26953125 c 0,6,7
 2473 599 2473 599 2473.53710938 470.180664062 c 0,8,9
 2474 377 2474 377 2430.42382812 283.370117188 c 0,10,11
 2300.12405436 0.26953125 2300.12405436 0.26953125 1745.01464844 0.26953125 c 2,12,-1
 1504.515625 0.26953125 l 2,13,14
 1396 0 1396 0 1325.32324219 60.1328125 c 1,15,16
 1290 -506 1290 -506 675 -504.098632812 c 0,17,18
 99 -502 99 -502 100.877929688 -20.9833984375 c 4,19,20
 102 266 102 266 320.528320312 540 c 4,21,22
 362.004696307 592.005888548 362.004696307 592.005888548 406 561.784179688 c 6,23,-1
 454 528.811523438 l 6,24,25
 489 505 489 505 446.912109375 444 c 4,26,27
 264 183 264 183 264.977539062 -5 c 4,28,29
 267 -330 267 -330 703 -326.5 c 128,-1,30
 1139 -323 1139 -323 1157.25097656 41.8154296875 c 0,31,32
 1168 249 1168 249 1154.68652344 369 c 0,33,34
 1145.0228156 456.792725181 1145.0228156 456.792725181 1195 479.87890625 c 2,35,-1
 1243 502.051757812 l 2,36,37
 1323 539 1323 539 1324.26953125 453 c 0,38,39
 1326 299 1326 299 1335.01367188 270.4296875 c 8,0,1
1557.65429688 184.529296875 m 1,40,-1
 1760.73144531 184.529296875 l 2,41,42
 2288 185 2288 185 2287.88476562 446.26953125 c 0,43,44
 2288 601 2288 601 2118.11621094 601.260742188 c 0,45,46
 1928 601 1928 601 1557.65429688 184.529296875 c 1,40,-1
  Spiro
    1557.65 184.529 v
    1760.73 184.529 ]
    2156.41 249.834 o
    2287.88 446.27 o
    2245.26 562.517 o
    2118.12 601.261 o
    1868.17 497.088 o
    0 0 z
  EndSpiro
EndSplineSet
Substitution2: "'fina' Terminal Forms in Arabic lookup 9 subtable" uniFEBA
Substitution2: "'medi' Medial Forms in Arabic lookup 11 subtable" uniFEBC
Substitution2: "'init' Initial Forms in Arabic lookup 13 subtable" uniFEBB
EndChar

StartChar: uni0637
Encoding: 1591 1591 31
Width: 1541
VWidth: 2424
GlyphClass: 2
Flags: W
AnchorPoint: "Anchor-10" 486.476 1467.44 basechar 0
AnchorPoint: "Anchor-7" 556.613 -256.025 basechar 0
LayerCount: 2
Fore
SplineSet
524.654296875 184.529296875 m 1,0,-1
 727.731445312 184.529296875 l 2,1,2
 1255.515625 184.26953125 1255.515625 184.26953125 1254.88476562 446.26953125 c 0,3,4
 1254.515625 601.26953125 1254.515625 601.26953125 1085.11621094 601.260742188 c 0,5,6
 895 601 895 601 524.654296875 184.529296875 c 1,0,-1
  Spiro
    524.654 184.529 v
    727.731 184.529 ]
    1123.41 249.834 o
    1254.88 446.27 o
    1212.26 562.517 o
    1085.12 601.261 o
    835.169 497.088 o
    0 0 z
  EndSpiro
381.515625 0.26953125 m 22,7,8
 178.735853986 0.26953125 178.735853986 0.26953125 122 95.5930032575 c 4,9,10
 69.4052503382 183.958891755 69.4052503382 183.958891755 158 184.046942308 c 6,11,-1
 372.138671875 184.259765625 l 1,12,13
 324 480 324 480 323.856445312 760.391601562 c 0,14,15
 323.98258681 1006.08348805 323.98258681 1006.08348805 351.933470808 1235 c 0,16,17
 359.611885692 1297.88588055 359.611885692 1297.88588055 410 1297.5275679 c 2,18,-1
 461 1297.1649041 l 2,19,20
 514.298518737 1296.7858954 514.298518737 1296.7858954 507.051033487 1235 c 0,21,22
 457.438594171 812.046536803 457.438594171 812.046536803 504.515625 388.26953125 c 1,23,24
 836 784 836 784 1114.93164062 784.127929688 c 0,25,26
 1274 784 1274 784 1360.515625 687.26953125 c 0,27,28
 1440 599 1440 599 1440.53710938 470.180664062 c 0,29,30
 1441 377 1441 377 1397.42382812 283.370117188 c 0,31,32
 1266.12500552 0.26953125 1266.12500552 0.26953125 712.014648438 0.26953125 c 2,33,-1
 381.515625 0.26953125 l 22,7,8
EndSplineSet
Substitution2: "'fina' Terminal Forms in Arabic lookup 9 subtable" uniFEC2
Substitution2: "'medi' Medial Forms in Arabic lookup 11 subtable" uniFEC4
Substitution2: "'init' Initial Forms in Arabic lookup 13 subtable" uniFEC3
EndChar

StartChar: uni0639
Encoding: 1593 1593 33
Width: 1253
VWidth: 2424
GlyphClass: 2
Flags: W
AnchorPoint: "Anchor-10" 524.861 1394.1 basechar 0
AnchorPoint: "Anchor-7" 319.874 -792.271 basechar 0
LayerCount: 2
Fore
SplineSet
275.326171875 -207.159179688 m 0,0,1
 275 -519 275 -519 678 -519.129882812 c 0,2,3
 865 -519 865 -519 1042 -447.559570312 c 0,4,5
 1105.98875197 -422.004492105 1105.98875197 -422.004492105 1115.59472656 -467 c 2,6,-1
 1130.96582031 -539 l 2,7,8
 1141 -588 1141 -588 1084 -612.145507812 c 0,9,10
 910 -686 910 -686 667 -685.672851562 c 0,11,12
 425 -685 425 -685 292 -588.69921875 c 0,13,14
 114 -461 114 -461 114.670898438 -210.208984375 c 24,15,16
 116 128 116 128 380 341 c 1,17,18
 156 390 156 390 152.208984375 619.169921875 c 0,19,20
 149 801 149 801 321.311523438 995.735351562 c 0,21,22
 444 1134 444 1134 604 1129.42382812 c 0,23,24
 887 1121 887 1121 896.115234375 797.698242188 c 5,25,-1
 783.053710938 800.928710938 l 5,26,27
 751.772293612 979.298404038 751.772293612 979.298404038 559.525390625 942.076171875 c 0,28,29
 461 923 461 923 376 797 c 0,30,31
 183 509 183 509 510.331054688 449.72265625 c 1,32,-1
 511.4609375 449.82421875 l 1,33,34
 583 477 583 477 734.169921875 515.012695312 c 0,35,36
 846 543 846 543 918 552.940514401 c 0,37,38
 988.897749653 562.985512875 988.897749653 562.985512875 1006.23257343 513 c 2,39,-1
 1026 456 l 2,40,41
 1045 401 1045 401 984 394 c 0,42,43
 716 363 716 363 563.849609375 271.290039062 c 0,44,45
 276 98 276 98 275.326171875 -207.159179688 c 0,0,1
EndSplineSet
Substitution2: "'fina' Terminal Forms in Arabic lookup 9 subtable" uniFECA
Substitution2: "'medi' Medial Forms in Arabic lookup 11 subtable" uniFECC
Substitution2: "'init' Initial Forms in Arabic lookup 13 subtable" uniFECB
EndChar

StartChar: afii57440
Encoding: 1600 1600 35
Width: 260
VWidth: 2424
GlyphClass: 2
Flags: W
AnchorPoint: "Anchor-10" 366.112 1418.88 basechar 0
AnchorPoint: "Anchor-7" 165.112 -206.606 basechar 0
LayerCount: 2
Fore
SplineSet
-70.783203125 86 m 2,0,-1
 -70.783203125 93 l 2,1,2
 -71 184 -71 184 -5 184 c 2,3,-1
 265 184 l 2,4,5
 290.0078125 184 290.0078125 184 290.0078125 94 c 2,6,-1
 290.0078125 84 l 2,7,8
 290 0 290 0 265 0 c 2,9,-1
 -5 0 l 2,10,11
 -71 0 -71 0 -70.783203125 86 c 2,0,-1
EndSplineSet
EndChar

StartChar: uni0643
Encoding: 1603 1603 38
Width: 1855
VWidth: 2424
GlyphClass: 2
Flags: W
AnchorPoint: "Anchor-10" 587.737 1523.38 basechar 0
AnchorPoint: "Anchor-7" 529.888 -250.644 basechar 0
LayerCount: 2
Fore
SplineSet
1177.30664062 1211.15718775 m 5,0,-1
 1177.30664062 1117.51450799 l 5,1,2
 1072.519441 1109.60543888 1072.519441 1109.60543888 1012 1081.33950964 c 4,3,4
 946.838725506 1050.90558718 946.838725506 1050.90558718 947.349901617 1010 c 4,5,6
 948 949 948 949 1052.14072539 932.682667561 c 4,7,8
 1188 912 1188 912 1187.63115673 810.556332661 c 4,9,10
 1188 690 1188 690 1072.8828125 625.23828125 c 4,11,12
 961 563 961 563 745.676757812 597.742293311 c 5,13,-1
 745.676757812 698.620830489 l 5,14,15
 872 682 872 682 935.281801732 688.421508545 c 4,16,17
 1077 703 1077 703 1090.88766582 786.79688423 c 4,18,19
 1099 838 1099 838 1008.30082756 852.02822446 c 4,20,21
 851.064105031 876.522671566 851.064105031 876.522671566 851.620460731 1015.31649651 c 4,22,23
 852 1100 852 1100 943.96783232 1156.06203471 c 4,24,25
 1023.24746293 1201.005351 1023.24746293 1201.005351 1155.99157876 1209.75261692 c 6,26,-1
 1177.30664062 1211.15718775 l 5,0,-1
1343.76855469 220.149414062 m 28,27,28
 1545.28681431 275.078178303 1545.28681431 275.078178303 1560.65527344 421.709960938 c 6,29,-1
 1567.09667969 483.16796875 l 5,30,31
 1572 505 1572 505 1573.87695312 785.913085938 c 4,32,33
 1576 999 1576 999 1536.17089844 1288.58984375 c 5,34,-1
 1686.81933594 1291.02832031 l 5,35,36
 1714.33403509 1139.65802697 1714.33403509 1139.65802697 1724.34277344 752.26171875 c 4,37,38
 1729 562 1729 562 1697.30859375 394.349609375 c 4,39,40
 1663.35708821 204.155039618 1663.35708821 204.155039618 1535.44726562 117 c 28,41,42
 1375 8 1375 8 1113 -15.9052734375 c 4,43,44
 983 -28 983 -28 805.12890625 -28 c 4,45,46
 103 -28 103 -28 103.138671875 465.259765625 c 4,47,48
 103 642 103 642 213.404296875 830.546875 c 5,49,-1
 350 765 l 5,50,51
 264 606 264 606 264.344726562 485.079101562 c 4,52,53
 265 158 265 158 828 157.327148438 c 4,54,55
 1113 157 1113 157 1343.76855469 220.149414062 c 28,27,28
EndSplineSet
Substitution2: "'fina' Terminal Forms in Arabic lookup 9 subtable" uniFEDA
Substitution2: "'medi' Medial Forms in Arabic lookup 11 subtable" uniFEDC
Substitution2: "'init' Initial Forms in Arabic lookup 13 subtable" uniFEDB
EndChar

StartChar: uni0644
Encoding: 1604 1604 39
Width: 1437
VWidth: 2429
GlyphClass: 2
Flags: W
AnchorPoint: "Anchor-10" 652.374 1172.8 basechar 0
AnchorPoint: "Anchor-7" 384.192 -684.304 basechar 0
LayerCount: 2
Fore
SplineSet
264.977539062 -5 m 0,0,1
 266 -330 266 -330 703 -326.5 c 0,2,3
 1063 -323 1063 -323 1117.25097656 41.8154296875 c 24,4,5
 1142 210 1142 210 1134.30859375 658.614257812 c 0,6,7
 1127.94130649 993.493240354 1127.94130649 993.493240354 1108.93194101 1226 c 0,8,9
 1103.49437301 1292.5078125 1103.49437301 1292.5078125 1147 1292.5078125 c 2,10,-1
 1207 1292.5078125 l 2,11,12
 1251.60609043 1292.5078125 1251.60609043 1292.5078125 1256.90243464 1232 c 4,13,14
 1267.6733307 1108.94845092 1267.6733307 1108.94845092 1286.84960938 778.33984375 c 0,15,16
 1308 418 1308 418 1285.32324219 60.1328125 c 24,17,18
 1250 -506 1250 -506 675 -504.098632812 c 0,19,20
 99.158496593 -502.00421362 99.158496593 -502.00421362 100.877929688 -20.9833984375 c 0,21,22
 102 266 102 266 320.528320312 540 c 0,23,24
 362.004696307 592.005888548 362.004696307 592.005888548 406 561.784179688 c 2,25,-1
 454 528.811523438 l 2,26,27
 489 505 489 505 446.912109375 444 c 0,28,29
 264 183 264 183 264.977539062 -5 c 0,0,1
EndSplineSet
Substitution2: "'fina' Terminal Forms in Arabic lookup 9 subtable" uniFEDE
Substitution2: "'medi' Medial Forms in Arabic lookup 11 subtable" uniFEE0
Substitution2: "'init' Initial Forms in Arabic lookup 13 subtable" uniFEDF
EndChar

StartChar: uni0645
Encoding: 1605 1605 40
Width: 1156
VWidth: 2424
GlyphClass: 2
Flags: W
AnchorPoint: "Anchor-10" 444.994 -984.268 basechar 0
AnchorPoint: "Anchor-7" 358.677 921.323 basechar 0
LayerCount: 2
Fore
SplineSet
480.455078125 182.90234375 m 1,0,1
 607.548828125 167.151367188 607.548828125 167.151367188 685.001953125 151.58203125 c 0,2,3
 798.555664062 129.139648438 798.555664062 129.139648438 849.072265625 176.495117188 c 0,4,5
 927.868164062 249.8828125 927.868164062 249.8828125 833.094726562 381.279296875 c 0,6,7
 703.0078125 561.009765625 703.0078125 561.009765625 588.213867188 466.970703125 c 0,8,9
 474.612304688 373.626953125 474.612304688 373.626953125 480.455078125 182.90234375 c 1,0,1
325.314453125 -647 m 4,10,11
 351 -733 351 -733 312.948242188 -753 c 2,12,-1
 245.694335938 -789 l 2,13,14
 200.982103405 -812.9337826 200.982103405 -812.9337826 181 -739 c 0,15,16
 -31.5024916297 55.0882581951 -31.5024916297 55.0882581951 305 172 c 1,17,18
 322 462 322 462 474.723632812 588.52734375 c 0,19,20
 713 787 713 787 951.435546875 490.8125 c 0,21,22
 1174 214 1174 214 958.602539062 35.6865234375 c 0,23,24
 850 -55 850 -55 632.01171875 -11.208984375 c 0,25,26
 409 33 409 33 359 10 c 0,27,28
 161 -86 161 -86 325.314453125 -647 c 4,10,11
EndSplineSet
Substitution2: "'init' Initial Forms in Arabic lookup 13 subtable" uniFEE3
Substitution2: "'medi' Medial Forms in Arabic lookup 11 subtable" uniFEE4
Substitution2: "'fina' Terminal Forms in Arabic lookup 9 subtable" uniFEE2
EndChar

StartChar: uni0647
Encoding: 1607 1607 42
Width: 919
VWidth: 2424
GlyphClass: 2
Flags: W
AnchorPoint: "Anchor-10" 465.1 1218.4 basechar 0
AnchorPoint: "Anchor-7" 412.317 -237.77 basechar 0
LayerCount: 2
Fore
SplineSet
533.244140625 662.569335938 m 1,0,1
 298.569335938 509.646484375 298.569335938 509.646484375 272.970703125 379.659179688 c 0,2,3
 243.825195312 233.387695312 243.825195312 233.387695312 371.9453125 184.8828125 c 0,4,5
 442.254882812 158.264648438 442.254882812 158.264648438 535.856445312 176.333007812 c 0,6,7
 700.84375 205.729492188 700.84375 205.729492188 665.194335938 396.354492188 c 0,8,9
 641.108398438 525.276367188 641.108398438 525.276367188 533.244140625 662.569335938 c 1,0,1
221.391601562 80.5107421875 m 0,10,11
 99.994140625 173.217773438 99.994140625 173.217773438 101.861328125 332.5234375 c 0,12,13
 104.159179688 483.911132812 104.159179688 483.911132812 233.978515625 620.063476562 c 0,14,15
 284.94140625 673.564453125 284.94140625 673.564453125 335.010742188 716.270507812 c 128,-1,16
 385.079101562 758.9765625 385.079101562 758.9765625 434.04296875 790.786132812 c 1,17,18
 403.610351562 830.858398438 403.610351562 830.858398438 426 848.588884449 c 2,19,-1
 488 897.687026197 l 2,20,21
 522.543596587 925.042290741 522.543596587 925.042290741 557.704239136 884 c 4,22,23
 651.048699197 775.040942624 651.048699197 775.040942624 711.53125 673.844726562 c 0,24,25
 782.255859375 555.514648438 782.255859375 555.514648438 808.006835938 447.591796875 c 0,26,27
 890.106445312 103.619140625 890.106445312 103.619140625 612.181640625 31.01953125 c 0,28,29
 512.321289062 4.677734375 512.321289062 4.677734375 402.727539062 18.6826171875 c 0,30,31
 283.512695312 33.1064453125 283.512695312 33.1064453125 221.391601562 80.5107421875 c 0,10,11
EndSplineSet
Substitution2: "'fina' Terminal Forms in Arabic lookup 9 subtable" uniFEEA
Substitution2: "'medi' Medial Forms in Arabic lookup 11 subtable" uniFEEC
Substitution2: "'init' Initial Forms in Arabic lookup 13 subtable" uniFEEB
EndChar

StartChar: uni0648
Encoding: 1608 1608 43
Width: 891
VWidth: 2424
GlyphClass: 2
Flags: W
AnchorPoint: "Anchor-10" 363.801 1146.29 basechar 0
AnchorPoint: "Anchor-7" 481.263 -637.755 basechar 0
LayerCount: 2
Fore
SplineSet
457.122070312 531.877929688 m 4,0,1
 319.102579933 531.317374351 319.102579933 531.317374351 275.311523438 336.920898438 c 4,2,3
 266 295 266 295 275.67578125 257.8515625 c 4,4,5
 299 169 299 169 442.9140625 168.922851562 c 0,6,7
 508 169 508 169 626.587890625 184.158203125 c 1,8,9
 623.843979967 282.597292293 623.843979967 282.597292293 602.561523438 371.29296875 c 4,10,11
 564 531 564 531 457.122070312 531.877929688 c 4,0,1
768.16015625 318.985351562 m 20,12,13
 791.397819928 141.618326797 791.397819928 141.618326797 764.969551038 -2 c 0,14,15
 742.675929229 -123.149541642 742.675929229 -123.149541642 685.041015625 -220.284179688 c 0,16,17
 540.683974759 -464.089220918 540.683974759 -464.089220918 207 -512.750721414 c 0,18,19
 185.298446055 -515.915482859 185.298446055 -515.915482859 163.175559931 -485 c 2,20,-1
 124.533567627 -431 l 2,21,22
 101.249899677 -398.462390154 101.249899677 -398.462390154 136 -390.412807848 c 0,23,24
 519.259010248 -301.633928966 519.259010248 -301.633928966 613.791992188 17.2353515625 c 1,25,26
 508 -1 508 -1 414.9140625 -1.2158203125 c 0,27,28
 125 -2 125 -2 124.840820312 254.8515625 c 4,29,30
 125 307 125 307 137.73828125 366.8515625 c 4,31,32
 167 503 167 503 257.859375 611.171875 c 4,33,34
 341 709 341 709 465.9140625 708.8515625 c 4,35,36
 628.570599985 708.998706918 628.570599985 708.998706918 702.4375 543.227539062 c 4,37,38
 754 428 754 428 768.16015625 318.985351562 c 20,12,13
EndSplineSet
Substitution2: "'fina' Terminal Forms in Arabic lookup 9 subtable" uniFEEE
EndChar

StartChar: uni0649
Encoding: 1609 1609 44
Width: 1412
VWidth: 2424
GlyphClass: 2
Flags: W
AnchorPoint: "Anchor-10" 600.078 1107.22 basechar 0
AnchorPoint: "Anchor-7" 342.008 -619.263 basechar 0
LayerCount: 2
Fore
SplineSet
1286.04199219 700.635742188 m 1,0,1
 1317.2734375 700.440429688 1317.2734375 700.440429688 1317.2734375 673 c 2,2,-1
 1317.2734375 555 l 2,3,4
 1317.2734375 530.498046875 1317.2734375 530.498046875 1288 527.706451019 c 2,5,-1
 1279.59863281 526.905273438 l 2,6,7
 1129 513 1129 513 1060.52929688 425.333984375 c 0,8,9
 1022 377 1022 377 1023.93652344 338 c 0,10,11
 1025 295 1025 295 1085 280.987525751 c 0,12,13
 1301 231 1301 231 1272.17480469 42.365234375 c 0,14,15
 1243 -153 1243 -153 1065.63867188 -278.120117188 c 0,16,17
 872 -416 872 -416 580.4140625 -413.896484375 c 0,18,19
 155 -411 155 -411 98.4853515625 -83.5888671875 c 0,20,21
 59 149 59 149 193.465820312 428.436523438 c 0,22,23
 264.777710263 575.53703681 264.777710263 575.53703681 343.005250498 684 c 0,24,25
 377.744606927 732.166330248 377.744606927 732.166330248 412 708.979787049 c 2,26,-1
 475 666.336801798 l 2,27,28
 506.839416244 644.785567555 506.839416244 644.785567555 473.524057243 594 c 0,29,30
 445.133472408 550.721704124 445.133472408 550.721704124 397.435546875 474.53125 c 0,31,32
 205 166 205 166 257.126953125 -44.7958984375 c 0,33,34
 305 -236 305 -236 597.0625 -239.458984375 c 0,35,36
 863 -243 863 -243 1028.38671875 -105.48828125 c 0,37,38
 1115 -33 1115 -33 1124.80664062 27.1201171875 c 0,39,40
 1139 114 1139 114 1046.07519531 131.370117188 c 0,41,42
 863 165 863 165 865.818359375 319 c 0,43,44
 868 440 868 440 964 550.86257898 c 0,45,46
 1083 688 1083 688 1286.04199219 700.635742188 c 1,0,1
EndSplineSet
Substitution2: "'fina' Terminal Forms in Arabic lookup 9 subtable" uniFEF0
Substitution2: "'medi' Medial Forms in Arabic lookup 11 subtable" uniFBE9
Substitution2: "'init' Initial Forms in Arabic lookup 13 subtable" uniFBE8
EndChar

StartChar: uni064B
Encoding: 1611 1611 46
Width: -27
VWidth: 2304
GlyphClass: 4
Flags: W
AnchorPoint: "Anchor-10" 609.519 1111.82 mark 0
AnchorPoint: "Anchor-9" 609.519 1111.82 mark 0
AnchorPoint: "Anchor-1" 569.519 1660.78 basemark 0
AnchorPoint: "Anchor-1" 609.519 1111.82 mark 0
LayerCount: 2
Fore
SplineSet
302.015625 1058.01181702 m 1,0,-1
 302.015625 1172.7510716 l 1,1,-1
 805.6796875 1378.70301363 l 1,2,-1
 805.6796875 1263.96280149 l 1,3,-1
 302.015625 1058.01181702 l 1,0,-1
302.015625 1331.51572327 m 1,4,-1
 302.015625 1446.25497785 l 1,5,-1
 805.6796875 1652.20691988 l 1,6,-1
 805.6796875 1537.46670774 l 1,7,-1
 302.015625 1331.51572327 l 1,4,-1
EndSplineSet
EndChar

StartChar: uni064C
Encoding: 1612 1612 47
Width: -27
VWidth: 2304
GlyphClass: 4
Flags: W
AnchorPoint: "Anchor-10" 676.432 1216.14 mark 0
AnchorPoint: "Anchor-9" 676.432 1216.14 mark 0
AnchorPoint: "Anchor-1" 567.983 1908.35 basemark 0
AnchorPoint: "Anchor-1" 676.432 1216.14 mark 0
LayerCount: 2
Fore
SplineSet
652.655273437 1732.86425781 m 0,0,1
 569.463867188 1732.86425781 569.463867188 1732.86425781 569.463867188 1658.640625 c 0,2,3
 569.463867188 1604.83203125 569.463867188 1604.83203125 631.455078125 1580.03515625 c 0,4,5
 654.595973423 1570.77996279 654.595973423 1570.77996279 700.032226562 1556.78613281 c 1,6,-1
 713.090820312 1587.25292969 l 2,7,8
 724.69140625 1614.32226562 724.69140625 1614.32226562 724.69140625 1653.09667969 c 128,-1,9
 724.69140625 1691.87109375 724.69140625 1691.87109375 699.799316406 1712.36767578 c 128,-1,10
 674.907226562 1732.86425781 674.907226562 1732.86425781 652.655273437 1732.86425781 c 0,0,1
337.235351562 1386.73925781 m 0,11,12
 369 1291 369 1291 449.545331419 1291.76660156 c 0,13,14
 518 1292 518 1292 592.768554688 1364.57714844 c 0,15,16
 636.118126436 1406.1131846 636.118126436 1406.1131846 661.806640625 1457.5 c 2,17,-1
 672.059570312 1478.00976562 l 1,18,-1
 649.625 1482.76953125 l 2,19,20
 547 1504 547 1504 509 1556 c 0,21,22
 474 1604 474 1604 475 1651 c 0,23,24
 475 1676 475 1676 481.663574219 1707.21484375 c 0,25,26
 488 1739 488 1739 509 1765 c 4,27,28
 553 1822 553 1822 636.941420873 1821.69921875 c 0,29,30
 717 1822 717 1822 765.114746094 1774.30517578 c 0,31,32
 813 1728 813 1728 813.52734375 1645.08105469 c 0,33,34
 813.997428752 1605.21804078 813.997428752 1605.21804078 800.791015625 1563.41113281 c 2,35,-1
 793.893554688 1541.57617188 l 1,36,-1
 816.765625 1540.37597656 l 2,37,38
 842 1539 842 1539 880.192382812 1538.27148438 c 1,39,-1
 880.192382812 1449.32617188 l 1,40,41
 838.775681949 1450.00366941 838.775681949 1450.00366941 823.913085938 1451.43261719 c 2,42,-1
 752.243164062 1458.32324219 l 1,43,44
 719 1380 719 1380 655.074213481 1314.56331625 c 128,-1,45
 591 1249 591 1249 543.787109375 1225.83300781 c 0,46,47
 496 1203 496 1203 447.08203125 1202.93164062 c 0,48,49
 332 1203 332 1203 279 1347 c 0,50,51
 257 1407 257 1407 255.86328125 1515.49121094 c 1,52,-1
 322.107421875 1515.49121094 l 1,53,54
 323 1430 323 1430 337.235351562 1386.73925781 c 0,11,12
854.4921875 1539.21972656 m 2,55,-1
 854.388671875 1539.22558594 l 2,56,57
 854.440429688 1539.22265625 854.440429688 1539.22265625 854.4921875 1539.21972656 c 2,55,-1
EndSplineSet
EndChar

StartChar: uni064D
Encoding: 1613 1613 48
Width: -27
VWidth: 2304
GlyphClass: 4
Flags: W
AnchorPoint: "Anchor-7" 552.623 75.7275 mark 0
AnchorPoint: "Anchor-6" 552.623 75.7275 mark 0
AnchorPoint: "Anchor-0" 635.519 -468.112 basemark 0
AnchorPoint: "Anchor-0" 552.623 75.7275 mark 0
LayerCount: 2
Fore
SplineSet
307.295898438 -515.428599567 m 1,0,-1
 307.295898438 -400.688387431 l 1,1,-1
 810.959960938 -194.737402955 l 1,2,-1
 810.959960938 -309.47665754 l 1,3,-1
 307.295898438 -515.428599567 l 1,0,-1
307.295898438 -241.924693317 m 1,4,-1
 307.295898438 -127.184481181 l 1,5,-1
 810.959960938 78.7665032954 l 1,6,-1
 810.959960938 -35.9727512898 l 1,7,-1
 307.295898438 -241.924693317 l 1,4,-1
EndSplineSet
EndChar

StartChar: uni064E
Encoding: 1614 1614 49
Width: -27
VWidth: 2304
GlyphClass: 4
Flags: W
AnchorPoint: "Anchor-10" 577.839 1361.15 mark 0
AnchorPoint: "Anchor-9" 577.839 1361.15 mark 0
AnchorPoint: "Anchor-1" 537.839 1686.13 basemark 0
AnchorPoint: "Anchor-1" 577.839 1361.15 mark 0
LayerCount: 2
Fore
SplineSet
271.391601562 1330.45909574 m 1,0,-1
 271.391601562 1445.19931378 l 1,1,-1
 775.055664062 1651.15125582 l 1,2,-1
 775.055664062 1536.41103778 l 1,3,-1
 271.391601562 1330.45909574 l 1,0,-1
EndSplineSet
EndChar

StartChar: uni064F
Encoding: 1615 1615 50
Width: -27
VWidth: 2304
GlyphClass: 4
Flags: W
AnchorPoint: "Anchor-10" 615.623 1281.01 mark 0
AnchorPoint: "Anchor-9" 615.623 1281.01 mark 0
AnchorPoint: "Anchor-1" 546.519 1923.2 basemark 0
AnchorPoint: "Anchor-1" 615.623 1281.01 mark 0
LayerCount: 2
Fore
SplineSet
822.727539062 1464.22460938 m 1,0,1
 766 1465 766 1465 690.735351562 1473.01953125 c 1,2,3
 638 1399 638 1399 563.377929688 1352.99902344 c 0,4,5
 445 1279 445 1279 311 1274 c 1,6,-1
 311 1362.74121094 l 1,7,8
 442 1367 442 1367 520.314453125 1432.41015625 c 0,9,10
 552.324817949 1458.79495946 552.324817949 1458.79495946 569.69921875 1477.09472656 c 2,11,-1
 591.280273438 1499.82519531 l 1,12,-1
 560.689453125 1506.61621094 l 2,13,14
 554 1508 554 1508 514.827148438 1528.14355469 c 0,15,16
 477 1548 477 1548 448.861328125 1586.5703125 c 0,17,18
 421 1625 421 1625 420.904296875 1671.78222656 c 0,19,20
 421 1754 421 1754 492 1808 c 0,21,22
 530 1837 530 1837 588.962890625 1836.546875 c 0,23,24
 659 1837 659 1837 707.650390625 1789.15234375 c 0,25,26
 756 1742 756 1742 756.0625 1659.92871094 c 0,27,28
 756.000462851 1626.25126302 756.000462851 1626.25126302 741.043945312 1578.18945312 c 2,29,-1
 734.313476562 1556.56152344 l 1,30,-1
 756.931640625 1555.22460938 l 2,31,32
 795 1553 795 1553 822.727539062 1553.02832031 c 1,33,-1
 822.727539062 1464.22460938 l 1,0,1
642.567382812 1571.63476562 m 1,34,-1
 655.625976562 1602.09960938 l 2,35,36
 667 1629 667 1629 667.227539062 1667.94628906 c 0,37,38
 667 1707 667 1707 642.33203125 1727.21582031 c 0,39,40
 617 1748 617 1748 589.5 1747.5 c 128,-1,41
 562 1747 562 1747 539 1730 c 0,42,43
 511.979202975 1710.02810655 511.979202975 1710.02810655 511 1672 c 4,44,45
 509 1620 509 1620 573.990234375 1594.88183594 c 0,46,47
 597 1586 597 1586 642.567382812 1571.63476562 c 1,34,-1
EndSplineSet
EndChar

StartChar: uni0650
Encoding: 1616 1616 51
Width: -27
VWidth: 2304
GlyphClass: 4
Flags: W
AnchorPoint: "Anchor-7" 567.391 -16.2002 mark 0
AnchorPoint: "Anchor-6" 567.391 -16.2002 mark 0
AnchorPoint: "Anchor-0" 615.023 -326.944 basemark 0
AnchorPoint: "Anchor-0" 567.391 -16.2002 mark 0
LayerCount: 2
Fore
SplineSet
317.856445312 -352.804583874 m 1,0,-1
 317.856445312 -238.064361577 l 1,1,-1
 821.51953125 -32.1133848752 l 1,2,-1
 821.51953125 -146.853607173 l 1,3,-1
 317.856445312 -352.804583874 l 1,0,-1
EndSplineSet
EndChar

StartChar: uni0651
Encoding: 1617 1617 52
Width: -27
VWidth: 2304
GlyphClass: 4
Flags: W
AnchorPoint: "Anchor-10" 609.519 1390.22 mark 0
AnchorPoint: "Anchor-9" 609.519 1390.22 mark 0
AnchorPoint: "Anchor-1" 578.847 1840.34 basemark 0
AnchorPoint: "Anchor-1" 609.519 1390.22 mark 0
LayerCount: 2
Fore
SplineSet
577.407226562 1531.921875 m 1,0,1
 547 1367 547 1367 402.48400556 1366.87597656 c 0,2,3
 258 1367 258 1367 257.186523438 1552.89257812 c 0,4,5
 257 1590 257 1590 272.712890625 1693.63867188 c 1,6,-1
 347.826171875 1693.63867188 l 1,7,8
 335 1604 335 1604 335 1576 c 0,9,10
 335 1463 335 1463 414.949708912 1463.0777407 c 0,11,12
 525 1463 525 1463 530.60546875 1607.45214844 c 0,13,14
 532 1647 532 1647 531.875 1694.11621094 c 0,15,16
 532 1741 532 1741 531.86328125 1749.95605469 c 1,17,-1
 606.123046875 1749.95605469 l 1,18,19
 608 1714 608 1714 608.287109375 1665.99121094 c 0,20,21
 608.000414097 1525.20335128 608.000414097 1525.20335128 730.454841185 1525.40617962 c 2,22,-1
 731.086914062 1525.40722656 l 2,23,24
 805 1526 805 1526 805.22265625 1644.49707031 c 0,25,26
 806 1750 806 1750 794.323242188 1812.33496094 c 1,27,-1
 873.943359375 1812.33496094 l 1,28,29
 885 1733 885 1733 885 1639 c 0,30,31
 885 1486 885 1486 800.654296875 1449.91699219 c 0,32,33
 768 1436 768 1436 736 1435 c 0,34,35
 665 1432 665 1432 628 1459 c 0,36,37
 583 1492 583 1492 577.407226562 1531.921875 c 1,0,1
EndSplineSet
EndChar

StartChar: uni0652
Encoding: 1618 1618 53
Width: -27
VWidth: 2304
GlyphClass: 4
Flags: W
AnchorPoint: "Anchor-10" 588.527 1187.7 mark 0
AnchorPoint: "Anchor-9" 588.527 1187.7 mark 0
AnchorPoint: "Anchor-1" 573.743 1793.31 basemark 0
AnchorPoint: "Anchor-1" 588.527 1187.7 mark 0
LayerCount: 2
Fore
SplineSet
707.344726562 1457.10253906 m 0,0,1
 707.344726562 1505.78320312 707.344726562 1505.78320312 673.299804688 1539.828125 c 128,-1,2
 639.258789062 1573.87304688 639.258789062 1573.87304688 589.884765625 1573.87304688 c 0,3,4
 539.819335938 1573.87304688 539.819335938 1573.87304688 506.124023438 1540.17675781 c 128,-1,5
 472.427734375 1506.48046875 472.427734375 1506.48046875 472.427734375 1457.10253906 c 0,6,7
 472.427734375 1407.03808594 472.427734375 1407.03808594 506.124023438 1373.34277344 c 128,-1,8
 539.819335938 1339.64648438 539.819335938 1339.64648438 589.884765625 1339.64648438 c 0,9,10
 639.260742188 1339.64648438 639.260742188 1339.64648438 673.299804688 1373.69140625 c 128,-1,11
 707.344726562 1407.73535156 707.344726562 1407.73535156 707.344726562 1457.10253906 c 0,0,1
779.41796875 1457.21875 m 128,-1,13
 779.41796875 1377.71484375 779.41796875 1377.71484375 724.528320312 1322.47265625 c 128,-1,14
 669.673828125 1267.2734375 669.673828125 1267.2734375 590.212890625 1267.2734375 c 0,15,16
 563.655273438 1267.2734375 563.655273438 1267.2734375 539.920898438 1273.39550781 c 128,-1,17
 516.186523438 1279.51757812 516.186523438 1279.51757812 495.203125 1291.77636719 c 128,-1,18
 474.220703125 1304.03515625 474.220703125 1304.03515625 455.8984375 1322.47265625 c 0,19,20
 428.400390625 1350.14648438 428.400390625 1350.14648438 414.704101562 1383.76074219 c 128,-1,21
 401.006835938 1417.375 401.006835938 1417.375 401.006835938 1457.21875 c 0,22,23
 401.006835938 1536.6953125 401.006835938 1536.6953125 455.8671875 1591.56542969 c 128,-1,24
 510.7265625 1646.42480469 510.7265625 1646.42480469 590.212890625 1646.42480469 c 128,-1,25
 669.698242188 1646.42480469 669.698242188 1646.42480469 724.556640625 1591.56542969 c 128,-1,12
 779.41796875 1536.6953125 779.41796875 1536.6953125 779.41796875 1457.21875 c 128,-1,13
EndSplineSet
EndChar

StartChar: uni0653
Encoding: 1619 1619 54
Width: -3
VWidth: 2429
GlyphClass: 4
Flags: W
AnchorPoint: "Anchor-10" 489.659 1404.78 mark 0
AnchorPoint: "Anchor-9" 489.659 1404.78 mark 0
AnchorPoint: "Anchor-1" 489.659 1800.56 basemark 0
AnchorPoint: "Anchor-1" 489.659 1404.78 mark 0
LayerCount: 2
Fore
SplineSet
122 1541.30664062 m 4,0,1
 227 1663 227 1663 318.606445312 1640.36816406 c 4,2,3
 457 1605 457 1605 580.192382812 1601.36523438 c 4,4,5
 692 1598 692 1598 802 1670.09375 c 4,6,7
 835.889312871 1691.92868412 835.889312871 1691.92868412 848.625976562 1662 c 6,8,-1
 872.457734881 1606 l 2,9,10
 886 1573 886 1573 852 1551.10994582 c 0,11,12
 751 1487 751 1487 636.724609375 1472.44042969 c 0,13,14
 477 1453 477 1453 325.98046875 1496.57617188 c 0,15,16
 271 1513 271 1513 218 1465.64227114 c 0,17,18
 176.157760226 1428.14139174 176.157760226 1428.14139174 160 1447.80952381 c 2,19,-1
 128 1486.76171875 l 6,20,21
 102 1518 102 1518 122 1541.30664062 c 4,0,1
EndSplineSet
EndChar

StartChar: uni0657
Encoding: 1623 1623 57
Width: -27
VWidth: 2304
GlyphClass: 4
Flags: W
AnchorPoint: "Anchor-10" 569.519 1347.15 mark 0
AnchorPoint: "Anchor-9" 569.519 1347.15 mark 0
AnchorPoint: "Anchor-1" 569.519 2081.6 basemark 0
AnchorPoint: "Anchor-1" 569.519 1347.15 mark 0
LayerCount: 2
Fore
SplineSet
659.133789062 1603.78173828 m 0,0,1
 659 1430 659 1430 491.074544274 1431.54492188 c 0,2,3
 421 1432 421 1432 372.388183594 1478.93945313 c 0,4,5
 324 1526 324 1526 323.975585938 1608.16308594 c 0,6,7
 323.99979061 1641.70979344 323.99979061 1641.70979344 338.994140625 1689.90234375 c 2,8,-1
 345.723632812 1711.53125 l 1,9,-1
 323.10546875 1712.8671875 l 2,10,11
 287 1715 287 1715 257.310546875 1715.06347656 c 1,12,-1
 257.310546875 1803.8671875 l 1,13,14
 314 1803 314 1803 389.303710938 1795.07324219 c 1,15,16
 442 1870 442 1870 516.661132812 1915.09375 c 0,17,18
 698 2026 698 2026 785 2030.74121094 c 5,19,-1
 785 1942 l 5,20,21
 692 1939 692 1939 559.72265625 1835.68164062 c 0,22,23
 533 1815 533 1815 510.338867188 1790.99804688 c 2,24,-1
 488.760742188 1768.28125 l 1,25,-1
 519.344726562 1761.47558594 l 2,26,27
 528 1760 528 1760 565.211425781 1739.94873047 c 0,28,29
 603 1720 603 1720 631.176757812 1681.52148438 c 0,30,31
 659 1643 659 1643 659.133789062 1603.78173828 c 0,0,1
480.167480469 1520.38085938 m 0,32,33
 568.038085938 1520.38085938 568.038085938 1520.38085938 568.038085938 1594.60449219 c 0,34,35
 568.038085938 1648.41148902 568.038085938 1648.41148902 506.048828125 1673.20996094 c 0,36,37
 482.976628637 1682.4430983 482.976628637 1682.4430983 437.471679688 1696.45898438 c 1,38,-1
 424.413085938 1665.99316406 l 2,39,40
 412.810546875 1638.92285156 412.810546875 1638.92285156 412.810546875 1600.15429688 c 128,-1,41
 412.810546875 1561.38574219 412.810546875 1561.38574219 437.703125 1540.88330078 c 128,-1,42
 462.595703125 1520.38085938 462.595703125 1520.38085938 480.167480469 1520.38085938 c 0,32,33
EndSplineSet
EndChar

StartChar: uni065A
Encoding: 1626 1626 58
Width: 1129
VWidth: 2304
GlyphClass: 4
Flags: W
AnchorPoint: "Anchor-10" 569.519 1347.15 mark 0
AnchorPoint: "Anchor-9" 569.519 1347.15 mark 0
AnchorPoint: "Anchor-1" 567.259 1855.62 basemark 0
AnchorPoint: "Anchor-1" 569.519 1347.15 mark 0
LayerCount: 2
Fore
SplineSet
495.958007812 1434.93457031 m 1,0,-1
 296.83203125 1767.83300781 l 1,1,-1
 413.142578125 1767.83300781 l 1,2,-1
 569.518554688 1533.26269531 l 1,3,-1
 725.89453125 1767.83300781 l 1,4,-1
 842.206054688 1767.83300781 l 1,5,-1
 643.077148438 1434.93457031 l 1,6,-1
 495.958007812 1434.93457031 l 1,0,-1
EndSplineSet
EndChar

StartChar: afii57392
Encoding: 1632 1632 59
Width: 957
VWidth: 2393
GlyphClass: 2
Flags: W
LayerCount: 2
Fore
SplineSet
363.16015625 568.8203125 m 4,0,1
 362.700195312 518.80859375 362.700195312 518.80859375 398.504882812 483.004882812 c 132,-1,2
 434.298828125 447.209960938 434.298828125 447.209960938 484.296875 447.440429688 c 4,3,4
 534.341796875 447.209960938 534.341796875 447.209960938 570.134765625 483.004882812 c 132,-1,5
 605.9296875 518.798828125 605.9296875 518.798828125 605.700195312 568.797851562 c 4,6,7
 605.9296875 618.841796875 605.9296875 618.841796875 570.134765625 654.634765625 c 4,8,9
 558.2734375 666.497070312 558.2734375 666.497070312 544.715820312 674.436523438 c 132,-1,10
 531.159179688 682.376953125 531.159179688 682.376953125 516.033203125 686.326171875 c 132,-1,11
 500.908203125 690.276367188 500.908203125 690.276367188 484.342773438 690.200195312 c 4,12,13
 434.298828125 690.4296875 434.298828125 690.4296875 398.504882812 654.634765625 c 132,-1,14
 362.700195312 618.83203125 362.700195312 618.83203125 363.16015625 568.8203125 c 4,0,1
221.000210416 567.5 m 0,15,16
 220.508349071 621.112886584 220.508349071 621.112886584 239.345093546 666.861828397 c 128,-1,17
 258.181838021 712.610770209 258.181838021 712.610770209 296.535533906 750.964466094 c 0,18,19
 315.719619901 770.148552089 315.719619901 770.148552089 336.726163009 784.466981613 c 128,-1,20
 357.732706118 798.785411137 357.732706118 798.785411137 380.646793515 808.281693812 c 128,-1,21
 403.560880913 817.777976486 403.560880913 817.777976486 428.382950619 822.450523525 c 128,-1,22
 453.205020325 827.123070564 453.205020325 827.123070564 480.022935539 827.000052604 c 0,23,24
 586.938441483 827.490490705 586.938441483 827.490490705 663.464466094 750.964466094 c 128,-1,25
 739.990700162 674.438232026 739.990700162 674.438232026 739.500052604 567.477064461 c 0,26,27
 739.990490705 460.561558517 739.990490705 460.561558517 663.464466094 384.035533906 c 0,28,29
 637.886360086 358.457427898 637.886360086 358.457427898 609.043744409 341.517088206 c 128,-1,30
 580.201128732 324.576748514 580.201128732 324.576748514 547.966923026 316.206339577 c 128,-1,31
 515.73271732 307.83593064 515.73271732 307.83593064 479.977064461 307.999947396 c 0,32,33
 373.061558517 307.509509295 373.061558517 307.509509295 296.535533906 384.035533906 c 128,-1,34
 220.019036392 460.55203142 220.019036392 460.55203142 221.000210416 567.5 c 0,15,16
EndSplineSet
EndChar

StartChar: afii57393
Encoding: 1633 1633 60
Width: 719
VWidth: 2393
GlyphClass: 2
Flags: W
LayerCount: 2
Fore
SplineSet
289.605239553 1359 m 4,0,1
 478.795250234 891.14488669 478.795250234 891.14488669 514.718144329 296 c 0,2,3
 523.013911098 158.56165327 523.013911098 158.56165327 523.135964227 14.3349609375 c 5,4,-1
 363.930408596 14.3349609375 l 5,5,6
 363 264 363 264 313.40625 640.032226562 c 4,7,8
 267.546363335 988.084944442 267.546363335 988.084944442 135.851113646 1307 c 4,9,10
 115.48630154 1356.31571336 115.48630154 1356.31571336 151 1367.74852241 c 6,11,-1
 240 1396.40000197 l 6,12,13
 270.50976794 1406.221912 270.50976794 1406.221912 289.605239553 1359 c 4,0,1
EndSplineSet
EndChar

StartChar: afii57394
Encoding: 1634 1634 61
Width: 1127
VWidth: 2393
GlyphClass: 2
Flags: W
LayerCount: 2
Fore
SplineSet
289.60546875 1359 m 0,0,1
 354.375 1172.66894531 l 2,2,3
 425.868776637 966.993366883 425.868776637 966.993366883 639.286132812 977.78125 c 4,4,5
 787.580955512 985.60595559 787.580955512 985.60595559 837.530273438 1151.7734375 c 0,6,7
 855 1209 855 1209 855.732421875 1339 c 0,8,9
 856 1409 856 1409 890 1408.97167969 c 2,10,-1
 974 1408.72070312 l 2,11,12
 1015.99544824 1408.59522844 1015.99544824 1408.59522844 1015.2578125 1343 c 0,13,14
 1009 823 1009 823 648.73828125 817.389648438 c 4,15,16
 517 815 517 815 432.6484375 868.590820312 c 1,17,18
 519 572 519 572 523.135742188 14.3349609375 c 1,19,-1
 363.930664062 14.3349609375 l 1,20,21
 363 264 363 264 313.40625 640.032226562 c 0,22,23
 268 988 268 988 135.8515625 1307 c 0,24,25
 115 1356 115 1356 151 1367.74804688 c 2,26,-1
 240 1396.40039062 l 2,27,28
 270.866428934 1406.33741908 270.866428934 1406.33741908 289.60546875 1359 c 0,0,1
EndSplineSet
EndChar

StartChar: afii57395
Encoding: 1635 1635 62
Width: 1276
VWidth: 2393
GlyphClass: 2
Flags: W
LayerCount: 2
Fore
SplineSet
523.135742188 14.3349609375 m 1,0,1
 363.930664062 14.3349609375 l 1,2,3
 363 264 363 264 313.40625 640.032226562 c 0,4,5
 268 988 268 988 135.8515625 1307 c 0,6,7
 115 1356 115 1356 151 1367.74804688 c 2,8,-1
 240 1396.40039062 l 2,9,10
 270.866428934 1406.33741908 270.866428934 1406.33741908 289.60546875 1359 c 0,11,-1
 354.609375 1149.33886719 l 2,12,13
 406.492255628 981.997792576 406.492255628 981.997792576 517.5 981.5 c 0,14,15
 630 981 630 981 635.243164062 1093.04882812 c 4,16,17
 640.211938022 1203.48457057 640.211938022 1203.48457057 641.781121542 1320 c 4,18,19
 642.28093532 1357.11230469 642.28093532 1357.11230469 668 1357.11230469 c 6,20,-1
 748 1357.11230469 l 6,21,22
 776.510087117 1357.11230469 776.510087117 1357.11230469 776.654392477 1320 c 4,23,24
 777.479344052 1107.83979969 777.479344052 1107.83979969 783.163085938 1082.22558594 c 4,25,26
 804.736800258 985.002006657 804.736800258 985.002006657 912.03515625 985.125976562 c 0,27,28
 1007 985 1007 985 1024.53710938 1094.64550781 c 0,29,30
 1038.93174427 1184.78625384 1038.93174427 1184.78625384 1038.26859747 1340 c 0,31,32
 1037.9732598 1409.12566971 1037.9732598 1409.12566971 1073 1409.16060273 c 2,33,-1
 1142 1409.22941811 l 2,34,35
 1177.97311119 1409.26529497 1177.97311119 1409.26529497 1177.9854281 1331 c 0,36,37
 1180 1047 1180 1047 1118.69628906 939.587890625 c 0,38,39
 1038.54428675 799.821400569 1038.54428675 799.821400569 874.927734375 823.747070312 c 0,40,41
 778 838 778 838 719.842773438 911.53125 c 5,42,43
 635 807 635 807 441.6875 825.99609375 c 1,44,45
 457 783 457 783 488.963867188 570.873046875 c 0,46,47
 520 366 520 366 523.135742188 14.3349609375 c 1,0,1
EndSplineSet
EndChar

StartChar: afii57396
Encoding: 1636 1636 63
Width: 983
VWidth: 2393
GlyphClass: 2
Flags: W
LayerCount: 2
Fore
SplineSet
111.998250232 333.252421674 m 0,0,1
 105.001180403 580.958212137 105.001180403 580.958212137 452.7421875 760.291992188 c 6,2,-1
 465.018554688 766.623046875 l 5,3,-1
 451.534179688 769.616210938 l 6,4,5
 184 829 184 829 188.303710938 1058.68164062 c 4,6,7
 195 1402 195 1402 672.548828125 1396.91503906 c 5,8,-1
 672.548828125 1233.78222656 l 5,9,10
 353 1221 353 1221 353.0625 1053.43847656 c 4,11,12
 353 859 353 859 705.525390625 856.149414062 c 5,13,-1
 707.446289062 718.915039062 l 5,14,15
 252.146014254 565.386439397 252.146014254 565.386439397 262.405845519 339.326076881 c 0,16,17
 270.019746133 171.564922861 270.019746133 171.564922861 573.066876449 172.59963852 c 2,18,-1
 869.851973932 173.612973269 l 1,19,-1
 871.747131491 5.00847434426 l 1,20,-1
 533.744738703 5.37890072354 l 2,21,22
 121 6 121 6 111.998250232 333.252421674 c 0,0,1
EndSplineSet
EndChar

StartChar: afii57397
Encoding: 1637 1637 64
Width: 1188
VWidth: 2393
GlyphClass: 2
Flags: W
LayerCount: 2
Fore
SplineSet
567.08739131 1021.40428728 m 1,0,1
 415.036196874 874.121578544 415.036196874 874.121578544 345.51918611 756.244908119 c 128,-1,2
 276.002175346 638.368237694 276.002175346 638.368237694 275.818360409 522.426471822 c 0,3,4
 276.003217356 234.995784433 276.003217356 234.995784433 623.585555303 235.290068632 c 0,5,6
 833.296790604 236.011308772 833.296790604 236.011308772 900.402054952 391.991359688 c 0,7,8
 978.728746275 576.702212479 978.728746275 576.702212479 808.62471836 802.799186233 c 0,9,10
 696.334184281 951.884001165 696.334184281 951.884001165 567.08739131 1021.40428728 c 1,0,1
396.343561555 1156.02152808 m 1,11,-1
 485.946803402 1291.78348491 l 1,12,13
 595.881337766 1234.49041127 595.881337766 1234.49041127 732.318366829 1116.41805158 c 0,14,15
 1075.99974187 816.726260059 1075.99974187 816.726260059 1075.96484383 509.535242943 c 0,16,17
 1075.99964166 314.013020482 1075.99964166 314.013020482 983.624482617 217.924379088 c 0,18,19
 855.855868343 83.0074720239 855.855868343 83.0074720239 599.74266558 83.8994138509 c 0,20,21
 257.220228438 83.9990633557 257.220228438 83.9990633557 146.464618989 327.708105933 c 0,22,23
 112.002490251 404.070475683 112.002490251 404.070475683 112.227449986 500.036560699 c 0,24,25
 113.987547037 794.898879925 113.987547037 794.898879925 447.443054511 1124.34219423 c 1,26,-1
 396.343561555 1156.02152808 l 1,11,-1
EndSplineSet
EndChar

StartChar: afii57398
Encoding: 1638 1638 65
Width: 1201
VWidth: 2393
GlyphClass: 2
Flags: W
LayerCount: 2
Fore
SplineSet
910.686885707 14.3349609375 m 1,0,1
 757 611 757 611 749.846679688 1215.17871094 c 5,2,3
 607 1173 607 1173 428.453125 1173.00195312 c 132,-1,4
 250 1173 250 1173 65.22265625 1225.7109375 c 5,5,-1
 65.22265625 1396.14160156 l 5,6,7
 456 1295 456 1295 906.70703125 1397.25292969 c 5,8,9
 909.050286136 855.371245312 909.050286136 855.371245312 997.796073011 407.648793947 c 0,10,11
 1034 225 1034 225 1086.50077646 14.3349609375 c 1,12,-1
 910.686885707 14.3349609375 l 1,0,1
EndSplineSet
EndChar

StartChar: afii57399
Encoding: 1639 1639 66
Width: 1122
VWidth: 2393
GlyphClass: 2
Flags: W
LayerCount: 2
Fore
SplineSet
468.6171875 81 m 4,0,1
 382.047851562 609.19140625 382.047851562 609.19140625 86.6845703125 1276 c 4,2,3
 55.4755859375 1346.45800781 55.4755859375 1346.45800781 87 1357.35742188 c 6,4,-1
 157 1381.56054688 l 6,5,6
 199.928710938 1396.40332031 199.928710938 1396.40332031 223.66015625 1348 c 4,7,8
 481.439453125 822.231445312 481.439453125 822.231445312 560.076171875 297.244140625 c 5,9,10
 637.750976562 818.086914062 637.750976562 818.086914062 895.58203125 1346 c 4,11,12
 920.208007812 1396.42285156 920.208007812 1396.42285156 961 1382.41113281 c 6,13,-1
 1029 1359.05273438 l 6,14,15
 1065.82128906 1346.40429688 1065.82128906 1346.40429688 1036.10449219 1280 c 4,16,17
 736.504882812 610.5078125 736.504882812 610.5078125 651.608398438 78 c 4,18,19
 641.458007812 14.3349609375 641.458007812 14.3349609375 601 14.3349609375 c 6,20,-1
 526 14.3349609375 l 6,21,22
 479.543945312 14.3349609375 479.543945312 14.3349609375 468.6171875 81 c 4,0,1
EndSplineSet
EndChar

StartChar: afii57400
Encoding: 1640 1640 67
Width: 1121
VWidth: 2393
GlyphClass: 2
Flags: W
LayerCount: 2
Fore
SplineSet
654.171875 1315.74609375 m 0,0,1
 740.741210938 787.5546875 740.741210938 787.5546875 1036.10449219 120.74609375 c 0,2,3
 1067.31347656 50.2880859375 1067.31347656 50.2880859375 1035.7890625 39.388671875 c 2,4,-1
 965.7890625 15.185546875 l 2,5,6
 922.860351562 0.3427734375 922.860351562 0.3427734375 899.12890625 48.74609375 c 0,7,8
 641.349609375 574.514648438 641.349609375 574.514648438 562.712890625 1099.50195312 c 1,9,10
 485.038085938 578.659179688 485.038085938 578.659179688 227.20703125 50.74609375 c 0,11,12
 202.581054688 0.3232421875 202.581054688 0.3232421875 161.7890625 14.3349609375 c 2,13,-1
 93.7890625 37.693359375 l 2,14,15
 56.9677734375 50.341796875 56.9677734375 50.341796875 86.6845703125 116.74609375 c 0,16,17
 386.284179688 786.23828125 386.284179688 786.23828125 471.180664062 1318.74609375 c 0,18,19
 481.331054688 1382.41113281 481.331054688 1382.41113281 521.7890625 1382.41113281 c 2,20,-1
 596.7890625 1382.41113281 l 2,21,22
 643.245117188 1382.41113281 643.245117188 1382.41113281 654.171875 1315.74609375 c 0,0,1
EndSplineSet
EndChar

StartChar: afii57401
Encoding: 1641 1641 68
Width: 1174
VWidth: 2393
GlyphClass: 2
Flags: W
LayerCount: 2
Fore
SplineSet
883.56640625 14.3349609375 m 1,0,1
 812 354 812 354 778.584960938 635.879882812 c 1,2,3
 610 626 610 626 505.78515625 636.157226562 c 0,4,5
 187 666 187 666 122.66015625 920.020507812 c 0,6,7
 113 958 113 958 112.70703125 998.375 c 0,8,9
 113 1182 113 1182 214.5234375 1284.03320312 c 0,10,11
 334 1405 334 1405 494.028320312 1404.50195312 c 0,12,13
 876.285274824 1403.43581276 876.285274824 1403.43581276 907.118164062 990.552734375 c 0,14,15
 921 808 921 808 957.260742188 517.145507812 c 0,16,17
 982 320 982 320 1058.55761719 14.3349609375 c 1,18,-1
 883.56640625 14.3349609375 l 1,0,1
762.521484375 799.701171875 m 1,19,-1
 753.083007812 904.762695312 l 2,20,21
 738 1077 738 1077 699.849609375 1133.50878906 c 4,22,23
 628 1241 628 1241 493.485351562 1242.21679688 c 0,24,25
 410 1243 410 1243 345.744140625 1181.11035156 c 0,26,27
 272 1109 272 1109 272.004882812 1009.85449219 c 0,28,29
 272 919 272 919 354.578125 854.336914062 c 0,30,31
 448 781 448 781 762.521484375 799.701171875 c 1,19,-1
EndSplineSet
EndChar

StartChar: afii57381
Encoding: 1642 1642 69
Width: 1154
VWidth: 3432
GlyphClass: 2
Flags: W
LayerCount: 2
Fore
SplineSet
693.860351562 299.670898438 m 0,0,1
 693.860351562 363.270507812 693.860351562 363.270507812 738.379882812 408.850585938 c 0,2,3
 785.020507812 454.430664062 785.020507812 454.430664062 848.620117188 454.430664062 c 0,4,5
 891.020507812 454.430664062 891.020507812 454.430664062 926 433.23046875 c 0,6,7
 962.040039062 412.030273438 962.040039062 412.030273438 982.180664062 377.05078125 c 0,8,9
 1003.37988281 342.0703125 1003.37988281 342.0703125 1003.37988281 299.670898438 c 0,10,11
 1003.37988281 236.0703125 1003.37988281 236.0703125 957.799804688 189.430664062 c 0,12,13
 912.220703125 144.911132812 912.220703125 144.911132812 848.620117188 144.911132812 c 0,14,15
 806.220703125 144.911132812 806.220703125 144.911132812 770.180664062 165.05078125 c 0,16,17
 734.140625 186.250976562 734.140625 186.250976562 714 221.23046875 c 0,18,19
 693.860351562 257.270507812 693.860351562 257.270507812 693.860351562 299.670898438 c 0,0,1
150.024414062 1126.92871094 m 0,20,21
 150 1191 150 1191 194.543945312 1236.10839844 c 0,22,23
 241 1282 241 1282 304.784179688 1281.68847656 c 0,24,25
 347 1282 347 1282 382.1640625 1260.48828125 c 0,26,27
 418 1239 418 1239 438.344726562 1204.30859375 c 0,28,29
 460 1169 460 1169 459.543945312 1126.92871094 c 0,30,31
 460 1063 460 1063 413.963867188 1016.68847656 c 0,32,33
 368 972 368 972 304.784179688 972.168945312 c 0,34,35
 262 972 262 972 226.344726562 992.30859375 c 0,36,37
 190 1014 190 1014 170.1640625 1048.48828125 c 0,38,39
 150 1085 150 1085 150.024414062 1126.92871094 c 0,20,21
837.6171875 1398.38574219 m 5,40,-1
 982 1324 l 5,41,-1
 304.471679688 25.5849609375 l 1,42,-1
 160.638671875 104.627929688 l 1,43,-1
 837.6171875 1398.38574219 l 5,40,-1
EndSplineSet
EndChar

StartChar: uni066B
Encoding: 1643 1643 70
Width: 700
VWidth: 2510
GlyphClass: 2
Flags: W
LayerCount: 2
Fore
SplineSet
447.755859375 712.59375 m 1,0,-1
 574 659 l 1,1,-1
 173.685546875 -264.748046875 l 1,2,-1
 45.6611328125 -209.03125 l 1,3,-1
 447.755859375 712.59375 l 1,0,-1
EndSplineSet
EndChar

StartChar: uni066C
Encoding: 1644 1644 71
Width: 501
VWidth: 2417
GlyphClass: 2
Flags: W
LayerCount: 2
Fore
SplineSet
99.68359375 135.924804688 m 0,0,1
 101 267 101 267 246.481445312 267.423828125 c 0,2,3
 377 268 377 268 401.265625 152.063476562 c 0,4,5
 414 90 414 90 391.086914062 -1.748046875 c 0,6,7
 340 -197 340 -197 160.608398438 -342.108398438 c 5,8,-1
 103.810546875 -305.802734375 l 5,9,10
 255 -157 255 -157 266.3984375 -0.0244140625 c 1,11,12
 225 -1 225 -1 207.661132812 3.0732421875 c 0,13,14
 99 25 99 25 99.68359375 135.924804688 c 0,0,1
EndSplineSet
EndChar

StartChar: afii63167
Encoding: 1645 1645 72
Width: 1325
VWidth: 2429
GlyphClass: 2
Flags: W
LayerCount: 2
Fore
SplineSet
150.977539062 880.025390625 m 1,0,-1
 539.827148438 880.025390625 l 1,1,-1
 661.23046875 1249.65039062 l 1,2,-1
 782.630859375 880.025390625 l 1,3,-1
 1171.48242188 880.025390625 l 1,4,-1
 857.340820312 650.377929688 l 1,5,-1
 977.536132812 281.125976562 l 1,6,-1
 661.23046875 509.69140625 l 1,7,-1
 344.922851562 281.125976562 l 1,8,-1
 465.1171875 650.377929688 l 1,9,-1
 150.977539062 880.025390625 l 1,0,-1
EndSplineSet
EndChar

StartChar: uni066E
Encoding: 1646 1646 73
Width: 1936
VWidth: 2424
GlyphClass: 2
Flags: W
AnchorPoint: "Anchor-10" 846.082 1167.79 basechar 0
AnchorPoint: "Anchor-7" 590.207 -234.513 basechar 0
LayerCount: 2
Fore
SplineSet
263.344726562 485.079101562 m 4,0,1
 262 158 262 158 826 157.327148438 c 0,2,3
 1126 157 1126 157 1312.76855469 220.149414062 c 0,4,5
 1594 314 1594 314 1681 528.398532456 c 0,6,7
 1707.91565271 594.791938763 1707.91565271 594.791938763 1748 586 c 2,8,-1
 1813 571.743162651 l 2,9,10
 1853.93695672 562.764215983 1853.93695672 562.764215983 1837 499.419422345 c 0,11,12
 1697 -28 1697 -28 803.12890625 -28 c 0,13,14
 103 -28 103 -28 102.138671875 465.259765625 c 4,15,16
 102 605 102 605 169 748 c 4,17,18
 209.070217571 832.1474569 209.070217571 832.1474569 254 810.586914062 c 6,19,-1
 308 784.673828125 l 6,20,21
 347 766 347 766 318.543945312 704 c 4,22,23
 263 582 263 582 263.344726562 485.079101562 c 4,0,1
EndSplineSet
Substitution2: "'init' Initial Forms in Arabic lookup 13 subtable" uni066E.init
Substitution2: "'medi' Medial Forms in Arabic lookup 11 subtable" uni066E.medi
Substitution2: "'fina' Terminal Forms in Arabic lookup 9 subtable" uni066E.fina
EndChar

StartChar: uni066F
Encoding: 1647 1647 74
Width: 1465
VWidth: 2424
GlyphClass: 2
Flags: W
AnchorPoint: "Anchor-10" 350.438 1161.12 basechar 0
AnchorPoint: "Anchor-7" 488.388 -672.838 basechar 0
LayerCount: 2
Fore
SplineSet
271.977539062 -15 m 0,0,1
 275 -340 275 -340 750 -336.5 c 0,2,3
 1099 -334 1099 -334 1177 -101.524414062 c 0,4,5
 1199 -36 1199 -36 1199.68554688 58.4619140625 c 1,6,7
 1094 40 1094 40 1000.80761719 40.0107421875 c 0,8,9
 710 39 710 39 710.734375 296.078125 c 4,10,11
 711 348 711 348 723.631835938 408.078125 c 4,12,13
 754 547 754 547 843.752929688 652.3984375 c 4,14,15
 927 750 927 750 1051.80761719 750.078125 c 4,16,17
 1219 750 1219 750 1291.33105469 580.454101562 c 4,18,19
 1365 410 1365 410 1363.34599534 156 c 0,20,21
 1363 101 1363 101 1360.28417969 41.9072265625 c 8,22,23
 1331 -516 1331 -516 722 -514.098632812 c 0,24,25
 105.997226442 -511.996578124 105.997226442 -511.996578124 107.877929688 -30.9833984375 c 0,26,27
 109 256 109 256 327.528320312 530 c 0,28,29
 369.004696307 582.005888548 369.004696307 582.005888548 413 551.784179688 c 2,30,-1
 461 518.811523438 l 2,31,32
 496 495 496 495 453.912109375 434 c 0,33,34
 271 173 271 173 271.977539062 -15 c 0,0,1
1042.015625 573.104492188 m 4,35,36
 905 572 905 572 861.205078125 378.147460938 c 4,37,38
 852 337 852 337 861.569335938 299.078125 c 4,39,40
 885 210 885 210 1028.80761719 210.149414062 c 0,41,42
 1094 210 1094 210 1212.48144531 225.384765625 c 1,43,44
 1210 323 1210 323 1188.45507812 412.51953125 c 4,45,46
 1150 574 1150 574 1042.015625 573.104492188 c 4,35,36
EndSplineSet
Substitution2: "'init' Initial Forms in Arabic lookup 13 subtable" uni066F.init
Substitution2: "'medi' Medial Forms in Arabic lookup 11 subtable" uni066F.medi
Substitution2: "'fina' Terminal Forms in Arabic lookup 9 subtable" uni066F.fina
EndChar

StartChar: uni0670
Encoding: 1648 1648 75
Width: -27
VWidth: 2304
GlyphClass: 4
Flags: W
AnchorPoint: "Anchor-10" 569.519 1347.15 mark 0
AnchorPoint: "Anchor-9" 569.519 1347.15 mark 0
AnchorPoint: "Anchor-1" 569.519 2081.6 basemark 0
AnchorPoint: "Anchor-1" 569.519 1347.15 mark 0
LayerCount: 2
Fore
SplineSet
525.1015625 1402.16699219 m 1,0,-1
 525.1015625 2026.58496094 l 1,1,-1
 613.936523438 2026.58496094 l 1,2,-1
 613.936523438 1402.16699219 l 1,3,-1
 525.1015625 1402.16699219 l 1,0,-1
EndSplineSet
EndChar

StartChar: uni0674
Encoding: 1652 1652 76
Width: 672
VWidth: 2393
GlyphClass: 2
Flags: W
LayerCount: 2
Fore
SplineSet
226.129345869 1691.17906833 m 1,0,1
 134.791015625 1751.95628949 134.791015625 1751.95628949 134.791015625 1847.8543055 c 0,2,3
 134.791015625 1868.73976683 134.791015625 1868.73976683 137.418559171 1887.85314227 c 128,-1,4
 140.046102717 1906.96651772 140.046102717 1906.96651772 145.338100997 1924.34823815 c 128,-1,5
 150.630099277 1941.72995859 150.630099277 1941.72995859 158.554881752 1957.22336229 c 128,-1,6
 166.479664226 1972.716766 166.479664226 1972.716766 177.125996702 1986.37840419 c 128,-1,7
 187.772329179 2000.04004239 187.772329179 2000.04004239 201.056686498 2011.69713301 c 0,8,9
 266.911363037 2069.484224 266.911363037 2069.484224 355.616252108 2069.78705111 c 0,10,11
 443.210502406 2070.08608663 443.210502406 2070.08608663 508.852674174 2033.20240152 c 2,12,-1
 513.954101562 2030.33596008 l 1,13,-1
 513.954101562 1911.7999448 l 1,14,-1
 499.785379949 1918.29804405 l 2,15,16
 373.757142309 1976.09747141 373.757142309 1976.09747141 293.314597 1929.46744379 c 0,17,18
 272.519868645 1917.41417309 272.519868645 1917.41417309 261.449230905 1900.2168637 c 128,-1,19
 250.378593166 1883.0195543 250.378593166 1883.0195543 248.31934431 1859.67162006 c 0,20,21
 244.692269109 1817.68241398 244.692269109 1817.68241398 271.278335406 1788.06695711 c 128,-1,22
 297.864401703 1758.45150023 297.864401703 1758.45150023 357.828901143 1740.28632501 c 0,23,-1
 358.453692067 1740.07431334 l 2,24,25
 387.887351329 1728.99086761 387.887351329 1728.99086761 526.437249243 1760.1566086 c 2,26,-1
 538.631835938 1762.89968771 l 1,27,-1
 538.631835938 1640.04106675 l 1,28,-1
 132.44140625 1548.84879418 l 1,29,-1
 132.44140625 1669.56075915 l 1,30,-1
 226.129345869 1691.17906833 l 1,0,1
EndSplineSet
EndChar

StartChar: uni06A1
Encoding: 1697 1697 80
Width: 1780
VWidth: 2424
GlyphClass: 2
Flags: W
AnchorPoint: "Anchor-10" 551.637 1361.12 basechar 0
AnchorPoint: "Anchor-7" 670.675 -172.079 basechar 0
LayerCount: 2
Fore
SplineSet
263.344726562 485.079101562 m 0,0,1
 263 158 263 158 827 157.327148438 c 0,2,3
 1126 157 1126 157 1312.76855469 220.149414062 c 24,4,5
 1516 289 1516 289 1515.87792969 380.383789062 c 1,6,7
 1410 362 1410 362 1317 361.932617188 c 0,8,9
 1027 361 1027 361 1026.92675781 588 c 0,10,11
 1027 640 1027 640 1039.82421875 700 c 0,12,13
 1070 837 1070 837 1159.9453125 944.3203125 c 0,14,15
 1243 1042 1243 1042 1368 1042 c 0,16,17
 1536 1042 1536 1042 1604.5234375 886.375976562 c 0,18,19
 1654 775 1654 775 1670.24609375 652.133789062 c 0,20,21
 1716 309 1716 309 1545.67285156 150.46875 c 0,22,23
 1474 84 1474 84 1352 44.5185546875 c 0,24,25
 1127 -28 1127 -28 804.12890625 -28 c 0,26,27
 103 -28 103 -28 102.138671875 465.259765625 c 0,28,29
 102 605 102 605 169 748 c 0,30,31
 209.070217571 832.147456899 209.070217571 832.147456899 254 810.586914062 c 2,32,-1
 308 784.673828125 l 2,33,34
 347 766 347 766 318.543945312 704 c 0,35,36
 263 582 263 582 263.344726562 485.079101562 c 0,0,1
1356.20800781 865.026367188 m 0,37,38
 1221 862 1221 862 1177.39746094 670.069335938 c 0,39,40
 1145.79945243 531.977862613 1145.79945243 531.977862613 1345 532.071289062 c 4,41,42
 1410 532 1410 532 1528.67382812 547.306640625 c 1,43,44
 1525.75944134 615.640389012 1525.75944134 615.640389012 1504.64746094 704.44140625 c 0,45,46
 1466 867 1466 867 1356.20800781 865.026367188 c 0,37,38
EndSplineSet
Substitution2: "'init' Initial Forms in Arabic lookup 13 subtable" uni06A1.init
Substitution2: "'medi' Medial Forms in Arabic lookup 11 subtable" uni06A1.medi
Substitution2: "'fina' Terminal Forms in Arabic lookup 9 subtable" uni06A1.fina
EndChar

StartChar: uni06A9
Encoding: 1705 1705 81
Width: 1957
VWidth: 2424
GlyphClass: 2
Flags: W
AnchorPoint: "Anchor-10" 433.737 1297.07 basechar 0
AnchorPoint: "Anchor-7" 474.787 -232.194 basechar 0
LayerCount: 2
Fore
SplineSet
1250.24414062 963.76953125 m 5,0,1
 1729 660 1729 660 1649.85253906 318.80859375 c 0,2,3
 1625 211 1625 211 1523.44726562 128 c 0,4,5
 1377 9 1377 9 1112 -15.9052734375 c 0,6,7
 982 -28 982 -28 804.12890625 -28 c 0,8,9
 103 -28 103 -28 102.138671875 465.259765625 c 0,10,11
 102 605 102 605 169 748 c 0,12,13
 209.070217571 832.1474569 209.070217571 832.1474569 254 810.586914062 c 2,14,-1
 308 784.673828125 l 2,15,16
 347 766 347 766 318.543945312 704 c 0,17,18
 263 582 263 582 263.344726562 485.079101562 c 0,19,20
 263 158 263 158 827 157.327148438 c 0,21,22
 1172 157 1172 157 1342.76855469 220.149414062 c 8,23,24
 1490 274 1490 274 1494.17480469 411.654296875 c 0,25,26
 1498 532 1498 532 1369 659.5 c 0,27,28
 1282 746 1282 746 1191.13964844 803.51953125 c 0,29,30
 1085 872 1085 872 1074.44824219 928.216796875 c 0,31,32
 1054 1038 1054 1038 1178.43164062 1120.828125 c 4,33,34
 1469 1317 1469 1317 1825.76855469 1401.90625 c 4,35,36
 1902.95536969 1419.98954403 1902.95536969 1419.98954403 1905.80664062 1373.14941406 c 6,37,-1
 1909.64160156 1310.14941406 l 6,38,39
 1913 1256 1913 1256 1846.76855469 1240.53222656 c 4,40,41
 1559 1172 1559 1172 1250.24414062 963.76953125 c 5,0,1
EndSplineSet
Substitution2: "'init' Initial Forms in Arabic lookup 13 subtable" uniFB90
Substitution2: "'medi' Medial Forms in Arabic lookup 11 subtable" uniFB91
Substitution2: "'fina' Terminal Forms in Arabic lookup 9 subtable" uniFB8F
EndChar

StartChar: afii57514
Encoding: 1722 1722 83
Width: 1444
VWidth: 2429
GlyphClass: 2
Flags: W
AnchorPoint: "Anchor-10" 604.129 1168.52 basechar 0
AnchorPoint: "Anchor-7" 450.433 -688.435 basechar 0
LayerCount: 2
Fore
SplineSet
1325.32324219 180.1328125 m 4,0,1
 1293.71649418 -386.011490114 1293.71649418 -386.011490114 675 -384.098632812 c 4,2,3
 99 -382 99 -382 100.877929688 99.0166015625 c 4,4,5
 102 386 102 386 320.528320312 660 c 4,6,7
 362.004696307 712.005888548 362.004696307 712.005888548 406 681.784179688 c 6,8,-1
 454 648.811523438 l 6,9,10
 489 625 489 625 446.912109375 564 c 4,11,12
 264 303 264 303 264.977539062 115 c 4,13,14
 267 -210 267 -210 703 -206.5 c 132,-1,15
 1139 -203 1139 -203 1157.25097656 161.815429688 c 4,16,17
 1168 369 1168 369 1154.68652344 489 c 4,18,19
 1145.0228156 576.792725181 1145.0228156 576.792725181 1195 599.87890625 c 6,20,-1
 1243 622.051757812 l 6,21,22
 1322.40171049 658.72367818 1322.40171049 658.72367818 1324.26953125 573 c 4,23,24
 1329 311 1329 311 1325.32324219 180.1328125 c 4,0,1
EndSplineSet
Substitution2: "'init' Initial Forms in Arabic lookup 13 subtable" uni06BA.init
Substitution2: "'medi' Medial Forms in Arabic lookup 11 subtable" uni06BA.medi
Substitution2: "'fina' Terminal Forms in Arabic lookup 9 subtable" uniFB9F
EndChar

StartChar: uni06F4
Encoding: 1780 1780 90
Width: 1172
VWidth: 2393
GlyphClass: 2
Flags: W
LayerCount: 2
Fore
SplineSet
523.135742188 14.3349609375 m 1,0,1
 363.930664062 14.3349609375 l 1,2,3
 363 264 363 264 313.40625 640.032226562 c 0,4,5
 268 988 268 988 135.8515625 1307 c 0,6,7
 115 1356 115 1356 151 1367.74804688 c 2,8,-1
 240 1396.40039062 l 2,9,10
 273.898101206 1407.31342487 273.898101206 1407.31342487 289.60546875 1359 c 24,11,12
 316 1277 316 1277 374.021484375 1098.23828125 c 2,13,-1
 388.42578125 1053.98632812 l 1,14,-1
 397.51171875 1099.6328125 l 2,15,16
 467.447253453 1450.97919722 467.447253453 1450.97919722 847.80078125 1433.28808594 c 0,17,18
 908 1430 908 1430 957 1419.08510956 c 0,19,20
 1002 1409 1002 1409 1001.890625 1349 c 2,21,-1
 1001.890625 1305 l 2,22,23
 1001.890625 1268.02214751 1001.890625 1268.02214751 965 1275.4921875 c 0,24,25
 903 1288 903 1288 832.368164062 1288.28808594 c 0,26,27
 665 1288 665 1288 593.352539062 1210.13574219 c 0,28,29
 482 1088 482 1088 545.260742188 980.48046875 c 0,30,31
 601 888 601 888 801.26953125 888.07421875 c 0,32,33
 871 888 871 888 1009 906.520507812 c 0,34,35
 1065 914 1065 914 1065.84570312 875 c 2,36,-1
 1066.68204983 811 l 2,37,38
 1067.24346703 768.038509991 1067.24346703 768.038509991 1037 763.254800178 c 0,39,40
 902.557777471 741.989626499 902.557777471 741.989626499 813.333007812 741.891601562 c 0,41,42
 573 741 573 741 422.612304688 869.85546875 c 1,43,44
 461 786 461 786 488.963867188 570.873046875 c 24,45,46
 520 334 520 334 523.135742188 14.3349609375 c 1,0,1
EndSplineSet
EndChar

StartChar: uni06F5
Encoding: 1781 1781 91
Width: 1328
VWidth: 2393
GlyphClass: 2
Flags: W
LayerCount: 2
Fore
SplineSet
417.62890625 184.551757812 m 0,0,1
 567 185 567 185 614.028380246 409.293458027 c 1,2,-1
 722.068901755 409.202785775 l 1,3,4
 760 181 760 181 926.959960938 180.5625 c 0,5,6
 1061 180 1061 180 1060.48042228 328.583080817 c 0,7,8
 1058.84685559 710.831246119 1058.84685559 710.831246119 633.700375819 1090.5105219 c 1,9,10
 256 658 256 658 272.376519565 340.373028395 c 0,11,12
 280 184 280 184 417.62890625 184.551757812 c 0,0,1
412.561523438 14.6669921875 m 0,13,14
 104 18 104 18 102.631835938 330.65234375 c 0,15,16
 104.531174651 751.429814233 104.531174651 751.429814233 519.218117797 1202.74569171 c 1,17,18
 473.701138744 1245.35203598 473.701138744 1245.35203598 493.053179282 1269 c 2,19,-1
 558.520263118 1349 l 2,20,21
 579.69701368 1374.87773803 579.69701368 1374.87773803 611 1344.84321253 c 4,22,23
 638.365892334 1318.58624194 638.365892334 1318.58624194 683.753871372 1275.77650033 c 0,24,25
 1226 768 1226 768 1225.20996197 336.406526769 c 0,26,27
 1224 16 1224 16 936.036132812 14.6630859375 c 0,28,29
 736 14 736 14 668.327057179 201.968944262 c 1,30,31
 596 13 596 13 412.561523438 14.6669921875 c 0,13,14
EndSplineSet
EndChar

StartChar: uni06F6
Encoding: 1782 1782 92
Width: 1006
VWidth: 2393
GlyphClass: 2
Flags: W
LayerCount: 2
Fore
SplineSet
114.798476065 14.3349609375 m 1,0,1
 260 465 260 465 461.541015625 695.416015625 c 1,2,3
 202 723 202 723 130.512091433 924.257798389 c 0,4,5
 116 965 116 965 116 1026.04134233 c 128,-1,6
 116 1087 116 1087 131.892173426 1136.85732722 c 0,7,8
 224 1422 224 1422 577.443320304 1417.43673447 c 0,9,10
 614 1417 614 1417 671 1409.03332208 c 0,11,12
 698.34079071 1404.9490919 698.34079071 1404.9490919 691.51839082 1361 c 2,13,-1
 680.807234525 1292 l 2,14,15
 677 1266 677 1266 647 1269.23881141 c 0,16,17
 621 1272 621 1272 578.481526576 1272.20116957 c 0,18,19
 368 1272 368 1272 287.408812913 1113.39731262 c 0,20,21
 268 1075 268 1075 264 1037.015625 c 0,22,23
 244 849 244 849 567 816 c 1,24,25
 749.673266886 934.256904352 749.673266886 934.256904352 862 966.803710938 c 0,26,27
 898.641367394 976.901169683 898.641367394 976.901169683 899.834960938 948 c 2,28,-1
 903.67578125 855 l 2,29,30
 905 826 905 826 880 815.405273438 c 0,31,32
 638.832324528 713.234360357 638.832324528 713.234360357 478.292523167 449.203911627 c 0,33,34
 364 261 364 261 289.923761153 14.3349609375 c 1,35,-1
 114.798476065 14.3349609375 l 1,0,1
EndSplineSet
EndChar

StartChar: uniFB8F
Encoding: 64399 64399 107
Width: 1937
VWidth: 2424
GlyphClass: 2
Flags: W
AnchorPoint: "Anchor-10" 461.625 1252.63 basechar 0
AnchorPoint: "Anchor-7" 489.513 -245.85 basechar 0
LayerCount: 2
Fore
SplineSet
1900.47167969 184 m 2,0,1
 1942.69433594 184 l 2,2,3
 1968 184 1968 184 1967.70214844 94 c 2,4,-1
 1967.70214844 84 l 2,5,6
 1967.70214844 0 1967.70214844 0 1942.69433594 0 c 2,7,-1
 1895 0 l 6,8,9
 1666 0 1666 0 1575.47558594 182 c 1,10,11
 1553 153 1553 153 1523.44726562 128 c 0,12,13
 1383 9 1383 9 1112 -15.9052734375 c 0,14,15
 982 -28 982 -28 804.12890625 -28 c 0,16,17
 103 -28 103 -28 102.138671875 465.259765625 c 0,18,19
 102 605 102 605 169 748 c 0,20,21
 209 832 209 832 254 810.586914062 c 2,22,-1
 308 784.673828125 l 2,23,24
 346.984511661 765.966254035 346.984511661 765.966254035 318.543945312 704 c 0,25,26
 263 582 263 582 263.344726562 485.079101562 c 0,27,28
 265 158 265 158 827 157.327148438 c 0,29,30
 1172 157 1172 157 1342.76855469 220.149414062 c 8,31,32
 1490 274 1490 274 1494.17480469 411.654296875 c 0,33,34
 1498 532 1498 532 1369 659.5 c 0,35,36
 1282 746 1282 746 1191.13964844 803.51953125 c 0,37,38
 1085 872 1085 872 1074.44824219 928.216796875 c 0,39,40
 1054 1038 1054 1038 1178.43164062 1120.828125 c 0,41,42
 1478 1320 1478 1320 1825.76855469 1401.90625 c 0,43,44
 1903 1420 1903 1420 1905.80664062 1373.14941406 c 2,45,-1
 1909.64160156 1310.14941406 l 2,46,47
 1912.9386779 1255.98567876 1912.9386779 1255.98567876 1846.76855469 1240.53222656 c 0,48,49
 1562 1174 1562 1174 1250.24414062 963.76953125 c 1,50,51
 1703 676 1703 676 1652.734375 358 c 1,52,53
 1736 184 1736 184 1900.47167969 184 c 2,0,1
EndSplineSet
EndChar

StartChar: uniFB9F
Encoding: 64415 64415 115
Width: 1531
VWidth: 2429
GlyphClass: 2
Flags: W
AnchorPoint: "Anchor-10" 420.277 769.488 basechar 0
AnchorPoint: "Anchor-7" 279.654 -781.979 basechar 0
LayerCount: 2
Fore
SplineSet
1499 0 m 2,0,1
 1367 0 1367 0 1325.32324219 60.1328125 c 1,2,3
 1290 -506 1290 -506 675 -504.098632812 c 0,4,5
 99 -502 99 -502 100.877929688 -20.9833984375 c 0,6,7
 102 266 102 266 320.528320312 540 c 0,8,9
 362.004696307 592.005888548 362.004696307 592.005888548 406 561.784179688 c 2,10,-1
 454 528.811523438 l 2,11,12
 489 505 489 505 446.912109375 444 c 0,13,14
 264 183 264 183 264.977539062 -5 c 0,15,16
 267 -330 267 -330 703 -326.5 c 128,-1,17
 1139 -323 1139 -323 1157.25097656 41.8154296875 c 0,18,19
 1168 249 1168 249 1154.68652344 369 c 0,20,21
 1145.0228156 456.792725181 1145.0228156 456.792725181 1195 479.87890625 c 2,22,-1
 1243 502.051757812 l 2,23,24
 1323 539 1323 539 1324.26953125 453 c 0,25,26
 1326 307 1326 307 1335.01367188 270.4296875 c 24,27,28
 1342 244 1342 244 1363.64941406 223.428710938 c 0,29,30
 1407 184 1407 184 1504.47167969 184 c 2,31,-1
 1536.69433594 184 l 2,32,33
 1561.70214844 184 1561.70214844 184 1561.70214844 94 c 2,34,-1
 1561.70214844 84 l 2,35,36
 1562 0 1562 0 1536.69433594 0 c 2,37,-1
 1499 0 l 2,0,1
EndSplineSet
EndChar

StartChar: uniFBE8
Encoding: 64488 64488 118
Width: 622
VWidth: 2429
GlyphClass: 2
Flags: W
AnchorPoint: "Anchor-10" 308.385 1128.86 basechar 0
AnchorPoint: "Anchor-7" 271.984 -211.156 basechar 0
LayerCount: 2
Fore
SplineSet
-5 184 m 2,0,-1
 113.73046875 183.990234375 l 6,1,2
 363 184 363 184 351.845703125 380 c 0,3,4
 346 482 346 482 314 602 c 0,5,6
 292.935273201 683.249660509 292.935273201 683.249660509 336 700.545898438 c 2,7,-1
 402 727.053710938 l 2,8,9
 457 749 457 749 478.620117188 672 c 0,10,11
 521 523 521 523 521.896484375 396 c 0,12,13
 523 0 523 0 111.125 0 c 2,14,-1
 -5 0 l 2,15,16
 -70.783203125 0 -70.783203125 0 -70.783203125 86 c 2,17,-1
 -70.783203125 93 l 2,18,19
 -71 184 -71 184 -5 184 c 2,0,-1
EndSplineSet
EndChar

StartChar: uniFBE9
Encoding: 64489 64489 119
Width: 706
VWidth: 2424
GlyphClass: 2
Flags: W
AnchorPoint: "Anchor-10" 366.272 1071.01 basechar 0
AnchorPoint: "Anchor-7" 286.247 -208.057 basechar 0
LayerCount: 2
Fore
SplineSet
711 0 m 6,0,-1
 663.305664062 0 l 6,1,2
 486 0 486 0 408.33984375 122.5859375 c 1,3,4
 299 0 299 0 85.951171875 0 c 2,5,-1
 -5 0 l 2,6,7
 -70.783203125 0 -70.783203125 0 -70.783203125 86 c 2,8,-1
 -70.783203125 93 l 2,9,10
 -71.000017286 184.007255779 -71.000017286 184.007255779 -5 184 c 2,11,-1
 83.830078125 183.990234375 l 2,12,13
 337.409661359 184.000015802 337.409661359 184.000015802 347.55859375 391.596679688 c 2,14,-1
 350.70703125 455.998046875 l 2,15,16
 353.004427804 512.108141756 353.004427804 512.108141756 401.82421875 512.07421875 c 2,17,-1
 453.82421875 512.038085938 l 2,18,19
 500.165267513 511.999863687 500.165267513 511.999863687 496.578125 435.998046875 c 2,20,-1
 492 339 l 2,21,22
 485 184 485 184 668.77734375 184 c 6,23,-1
 711 184 l 6,24,25
 736.0078125 184 736.0078125 184 736.0078125 94 c 6,26,-1
 736.0078125 84 l 6,27,28
 736 0 736 0 711 0 c 6,0,-1
EndSplineSet
EndChar

StartChar: uniFE73
Encoding: 65139 65139 127
Width: 634
VWidth: 2429
GlyphClass: 2
Flags: W
AnchorPoint: "Anchor-10" 231.504 1421.44 basechar 0
AnchorPoint: "Anchor-7" 231.504 -126.044 basechar 0
LayerCount: 2
Fore
SplineSet
324.555664062 388.198242188 m 2,0,1
 324.555664062 315.91015625 324.555664062 315.91015625 384.729492188 255.735351562 c 128,-1,2
 444.903320312 195.560546875 444.903320312 195.560546875 569.5703125 195.560546875 c 2,3,-1
 642.385742188 195.560546875 l 1,4,-1
 642.385742188 9.4560546875 l 1,5,-1
 504.099609375 9.4560546875 l 2,6,7
 341.88671875 9.4560546875 341.88671875 9.4560546875 240.169921875 111.173828125 c 128,-1,8
 138.452148438 212.890625 138.452148438 212.890625 138.452148438 373.9140625 c 2,9,-1
 138.452148438 408.637695312 l 1,10,-1
 324.555664062 408.637695312 l 1,11,-1
 324.555664062 388.198242188 l 2,0,1
EndSplineSet
EndChar

StartChar: uniFE8E
Encoding: 65166 65166 153
Width: 545
VWidth: 2424
GlyphClass: 2
Flags: W
AnchorPoint: "Anchor-10" 243.095 1495 basechar 0
AnchorPoint: "Anchor-7" 285.106 -231.731 basechar 0
LayerCount: 2
Fore
SplineSet
528.471679688 184 m 6,0,1
 550.694335938 184 l 2,2,3
 576 184 576 184 575.702148438 94 c 2,4,-1
 575.702148438 84 l 2,5,6
 575.702148438 0 575.702148438 0 550.694335938 0 c 2,7,-1
 523 0 l 6,8,9
 172 0 172 0 157.750976562 466.651367188 c 0,10,11
 144 888 144 888 173.619107551 1238 c 0,12,13
 178 1295 178 1295 221 1294.87837365 c 2,14,-1
 284 1295.3082201 l 2,15,16
 336.978261666 1295.66968863 336.978261666 1295.66968863 332.985489801 1235 c 0,17,18
 292 615 292 615 326.182617188 398 c 0,19,20
 343 292 343 292 380.741210938 245.595703125 c 0,21,22
 431 184 431 184 528.471679688 184 c 6,0,1
EndSplineSet
EndChar

StartChar: uniFEA2
Encoding: 65186 65186 173
Width: 1273
VWidth: 2424
GlyphClass: 2
Flags: W
AnchorPoint: "Anchor-10" 507.987 1202.46 basechar 0
AnchorPoint: "Anchor-7" 267.828 -819.093 basechar 0
LayerCount: 2
Fore
SplineSet
1245 0 m 2,0,1
 869 0 869 0 851 385.91015625 c 1,2,3
 296 197 296 197 295.326171875 -207.159179688 c 0,4,5
 295 -519 295 -519 698 -519.129882812 c 0,6,7
 885 -519 885 -519 1062 -447.559300257 c 0,8,9
 1125.98811357 -422.004747014 1125.98811357 -422.004747014 1135.59429825 -467 c 2,10,-1
 1150.96581527 -539 l 2,11,12
 1161 -588 1161 -588 1104 -612.145824674 c 0,13,14
 930 -686 930 -686 687 -685.672851562 c 0,15,16
 445 -685 445 -685 312 -588.69921875 c 0,17,18
 134 -461 134 -461 134.670898438 -210.208984375 c 0,19,20
 137 302 137 302 763 517 c 1,21,22
 554 571 554 571 434.66015625 567.18359375 c 0,23,24
 323 564 323 564 181 381 c 1,25,-1
 60 452 l 1,26,27
 228 726 228 726 428.66015625 739.344726562 c 0,28,29
 546 747 546 747 758.16796875 695.05078125 c 0,30,31
 955 647 955 647 1078 592.971679688 c 0,32,33
 1128.16438912 570.927761896 1128.16438912 570.927761896 1123.91113281 543 c 2,34,-1
 1114.7734375 483 l 2,35,36
 1108 439 1108 439 1044 430 c 0,37,38
 1022 427 1022 427 979 419.69140625 c 1,39,40
 997 184 997 184 1246.12988281 184 c 2,41,-1
 1278.35253906 184 l 2,42,43
 1303.36035156 184 1303.36035156 184 1303.36035156 94 c 2,44,-1
 1303.36035156 84 l 2,45,46
 1303 0 1303 0 1278.35253906 0 c 2,47,-1
 1245 0 l 2,0,1
EndSplineSet
EndChar

StartChar: uniFEA3
Encoding: 65187 65187 174
Width: 1313
VWidth: 2424
GlyphClass: 2
Flags: W
AnchorPoint: "Anchor-10" 468.7 1149.16 basechar 0
AnchorPoint: "Anchor-7" 521.638 -253.956 basechar 0
LayerCount: 2
Fore
SplineSet
-5 184 m 2,0,-1
 51.029296875 183.990234375 l 2,1,2
 722 184 722 184 994.745117188 495.478515625 c 1,3,4
 801 565 801 565 743.958007812 579.421875 c 0,5,6
 637 607 637 607 574 605.880859375 c 0,7,8
 398 605 398 605 237 349.671875 c 0,9,10
 205.1307576 299.207054148 205.1307576 299.207054148 169 327 c 2,11,-1
 120 364.692382812 l 2,12,13
 90 388 90 388 114 431.717773438 c 0,14,15
 313 785 313 785 578 778.041992188 c 0,16,17
 732 774 732 774 907.5078125 713.748046875 c 0,18,19
 1184.50054598 618.623728184 1184.50054598 618.623728184 1178.83470745 491 c 0,20,21
 1175.87899607 424.422228045 1175.87899607 424.422228045 1096 349 c 0,22,23
 727 0 727 0 52.908203125 0 c 2,24,-1
 -5 0 l 2,25,26
 -70.783203125 0 -70.783203125 0 -70.783203125 86 c 2,27,-1
 -70.783203125 93 l 2,28,29
 -71 184 -71 184 -5 184 c 2,0,-1
EndSplineSet
EndChar

StartChar: uniFEA4
Encoding: 65188 65188 175
Width: 1353
VWidth: 2424
GlyphClass: 2
Flags: W
AnchorPoint: "Anchor-10" 475.188 1175.37 basechar 0
AnchorPoint: "Anchor-7" 518.088 -294.856 basechar 0
LayerCount: 2
Fore
SplineSet
1286 0 m 2,0,1
 917 0 917 0 892 199.037109375 c 1,2,3
 538 0 538 0 52.908203125 0 c 2,4,-1
 -5 0 l 2,5,6
 -70.783203125 0 -70.783203125 0 -70.783203125 86 c 2,7,-1
 -70.783203125 93 l 2,8,9
 -71.0000274057 184.011503473 -71.0000274057 184.011503473 -5 184 c 2,10,-1
 51.029296875 183.990234375 l 2,11,12
 722 184 722 184 994.745117188 495.478515625 c 1,13,14
 801 565 801 565 743.958007812 579.421875 c 0,15,16
 637 607 637 607 574 605.880859375 c 0,17,18
 397 603 397 603 237 349.671875 c 0,19,20
 205.1307576 299.207054148 205.1307576 299.207054148 169 327 c 2,21,-1
 120 364.692382812 l 2,22,23
 90 388 90 388 114 431.717773438 c 0,24,25
 308 785 308 785 578 778.041992188 c 0,26,27
 732 774 732 774 907.5078125 713.748046875 c 0,28,29
 1182 619 1182 619 1178.90619724 493 c 0,30,31
 1177 426 1177 426 1096 349 c 0,32,33
 1057 312 1057 312 1020 283.837890625 c 1,34,35
 1021 184 1021 184 1291.47167969 184 c 2,36,-1
 1358.69433594 184 l 6,37,38
 1383.70214844 184 1383.70214844 184 1383.70214844 94 c 6,39,-1
 1383.70214844 84 l 6,40,41
 1384 0 1384 0 1358.69433594 0 c 6,42,-1
 1286 0 l 2,0,1
EndSplineSet
EndChar

StartChar: uniFEAA
Encoding: 65194 65194 181
Width: 1086
VWidth: 2424
GlyphClass: 2
Flags: W
AnchorPoint: "Anchor-10" 557.677 1284.21 basechar 0
AnchorPoint: "Anchor-7" 396.981 -264.55 basechar 0
LayerCount: 2
Fore
SplineSet
1059.47167969 184 m 2,0,1
 1091.69433594 184 l 2,2,3
 1117 184 1117 184 1116.70214844 94 c 2,4,-1
 1116.70214844 84 l 2,5,6
 1116.70214844 0 1116.70214844 0 1091.69433594 0 c 2,7,-1
 1057 0 l 6,8,9
 917 0 917 0 815.859375 136.674804688 c 1,10,11
 670 -27 670 -27 442 -28.4937240267 c 0,12,13
 255 -30 255 -30 147 24.3384337303 c 0,14,15
 99 48 99 48 99.3193359375 93 c 2,16,-1
 99.3193359375 177 l 2,17,18
 99.3193359375 240.841109807 99.3193359375 240.841109807 162 209.653442988 c 0,19,20
 277 153 277 153 437.981445312 152.453125 c 0,21,22
 656 152 656 152 684.788085938 298.427734375 c 0,23,24
 705 403 705 403 664.826171875 745 c 0,25,26
 658 803 658 803 693 814.762695312 c 2,27,-1
 793 848.188476562 l 2,28,29
 825.985309623 859.214074001 825.985309623 859.214074001 830.323242188 796 c 0,30,31
 855 433 855 433 870.543945312 358.48828125 c 0,32,33
 906 184 906 184 1059.47167969 184 c 2,0,1
EndSplineSet
EndChar

StartChar: uniFEAE
Encoding: 65198 65198 185
Width: 879
VWidth: 2429
GlyphClass: 2
Flags: W
AnchorPoint: "Anchor-10" 513.088 876.025 basechar 0
AnchorPoint: "Anchor-7" 348.967 -681.475 basechar 0
LayerCount: 2
Fore
SplineSet
866.471679688 184 m 2,0,1
 884.694335938 184 l 2,2,3
 910 184 910 184 909.702148438 94 c 2,4,-1
 909.702148438 84 l 2,5,6
 909.702148438 0 909.702148438 0 884.694335938 0 c 2,7,-1
 861 0 l 2,8,9
 764 0 764 0 701.28515625 60 c 1,10,11
 615 -440 615 -440 116 -511.412395481 c 0,12,13
 91 -515 91 -515 77.9813519033 -496 c 2,14,-1
 34.1290635776 -432 l 2,15,16
 11.4412614909 -398.888402202 11.4412614909 -398.888402202 46 -390.148280558 c 0,17,18
 504 -274 504 -274 549.193359375 129.184570312 c 0,19,20
 556 190 556 190 545.600585938 417 c 0,21,22
 543 476 543 476 581 483.887695312 c 2,23,-1
 659 500.3984375 l 2,24,25
 704.994295402 510.13433434 704.994295402 510.13433434 707.802734375 444 c 0,26,-1
 712.291015625 305 l 2,27,28
 716.198080598 184 716.198080598 184 866.471679688 184 c 2,0,1
EndSplineSet
PairPos2: "'kern' Horizontal Kerning lookup 15-1" uniFEE7 dx=-150 dy=0 dh=-150 dv=0 dx=0 dy=0 dh=0 dv=0
PairPos2: "'kern' Horizontal Kerning lookup 15-2" uniFB90 dx=-190 dy=0 dh=-190 dv=0 dx=0 dy=0 dh=0 dv=0
PairPos2: "'kern' Horizontal Kerning lookup 15-2" uniFB8E dx=-190 dy=0 dh=-190 dv=0 dx=0 dy=0 dh=0 dv=0
PairPos2: "'kern' Horizontal Kerning lookup 15-2" uni06A9 dx=-190 dy=0 dh=-190 dv=0 dx=0 dy=0 dh=0 dv=0
PairPos2: "'kern' Horizontal Kerning lookup 15-2" uni064A dx=-50 dy=0 dh=-50 dv=0 dx=0 dy=0 dh=0 dv=0
PairPos2: "'kern' Horizontal Kerning lookup 15-2" afii57414 dx=-50 dy=0 dh=-50 dv=0 dx=0 dy=0 dh=0 dv=0
PairPos2: "'kern' Horizontal Kerning lookup 15-2" uni0649 dx=-50 dy=0 dh=-50 dv=0 dx=0 dy=0 dh=0 dv=0
PairPos2: "'kern' Horizontal Kerning lookup 15-2" uni0648 dx=-50 dy=0 dh=-50 dv=0 dx=0 dy=0 dh=0 dv=0
PairPos2: "'kern' Horizontal Kerning lookup 15-2" afii57412 dx=-50 dy=0 dh=-50 dv=0 dx=0 dy=0 dh=0 dv=0
PairPos2: "'kern' Horizontal Kerning lookup 15-2" uniFEEB dx=-150 dy=0 dh=-150 dv=0 dx=0 dy=0 dh=0 dv=0
PairPos2: "'kern' Horizontal Kerning lookup 15-2" uni0647 dx=-150 dy=0 dh=-150 dv=0 dx=0 dy=0 dh=0 dv=0
PairPos2: "'kern' Horizontal Kerning lookup 15-2" uni0646 dx=-50 dy=0 dh=-50 dv=0 dx=0 dy=0 dh=0 dv=0
PairPos2: "'kern' Horizontal Kerning lookup 15-2" uniFEE3 dx=-150 dy=0 dh=-150 dv=0 dx=0 dy=0 dh=0 dv=0
PairPos2: "'kern' Horizontal Kerning lookup 15-2" uni0645 dx=-150 dy=0 dh=-150 dv=0 dx=0 dy=0 dh=0 dv=0
PairPos2: "'kern' Horizontal Kerning lookup 15-2" uniFEFB dx=-150 dy=0 dh=-150 dv=0 dx=0 dy=0 dh=0 dv=0
PairPos2: "'kern' Horizontal Kerning lookup 15-2" uniFEDF dx=-150 dy=0 dh=-150 dv=0 dx=0 dy=0 dh=0 dv=0
PairPos2: "'kern' Horizontal Kerning lookup 15-2" uni0644 dx=-50 dy=0 dh=-50 dv=0 dx=0 dy=0 dh=0 dv=0
PairPos2: "'kern' Horizontal Kerning lookup 15-2" uniFEDB dx=-190 dy=0 dh=-190 dv=0 dx=0 dy=0 dh=0 dv=0
PairPos2: "'kern' Horizontal Kerning lookup 15-2" uni0643 dx=-150 dy=0 dh=-150 dv=0 dx=0 dy=0 dh=0 dv=0
PairPos2: "'kern' Horizontal Kerning lookup 15-2" uniFED7 dx=-150 dy=0 dh=-150 dv=0 dx=0 dy=0 dh=0 dv=0
PairPos2: "'kern' Horizontal Kerning lookup 15-2" uni0642 dx=-50 dy=0 dh=-50 dv=0 dx=0 dy=0 dh=0 dv=0
PairPos2: "'kern' Horizontal Kerning lookup 15-2" uniFED3 dx=-150 dy=0 dh=-150 dv=0 dx=0 dy=0 dh=0 dv=0
PairPos2: "'kern' Horizontal Kerning lookup 15-2" uni0641 dx=-150 dy=0 dh=-150 dv=0 dx=0 dy=0 dh=0 dv=0
PairPos2: "'kern' Horizontal Kerning lookup 15-2" uniFECF dx=-150 dy=0 dh=-150 dv=0 dx=0 dy=0 dh=0 dv=0
PairPos2: "'kern' Horizontal Kerning lookup 15-2" uniFECB dx=-150 dy=0 dh=-150 dv=0 dx=0 dy=0 dh=0 dv=0
PairPos2: "'kern' Horizontal Kerning lookup 15-2" uniFEC7 dx=-150 dy=0 dh=-150 dv=0 dx=0 dy=0 dh=0 dv=0
PairPos2: "'kern' Horizontal Kerning lookup 15-2" uni0638 dx=-150 dy=0 dh=-150 dv=0 dx=0 dy=0 dh=0 dv=0
PairPos2: "'kern' Horizontal Kerning lookup 15-2" uniFEC3 dx=-150 dy=0 dh=-150 dv=0 dx=0 dy=0 dh=0 dv=0
PairPos2: "'kern' Horizontal Kerning lookup 15-2" uni0637 dx=-150 dy=0 dh=-150 dv=0 dx=0 dy=0 dh=0 dv=0
PairPos2: "'kern' Horizontal Kerning lookup 15-2" uniFEBF dx=-150 dy=0 dh=-150 dv=0 dx=0 dy=0 dh=0 dv=0
PairPos2: "'kern' Horizontal Kerning lookup 15-2" uni0636 dx=-150 dy=0 dh=-150 dv=0 dx=0 dy=0 dh=0 dv=0
PairPos2: "'kern' Horizontal Kerning lookup 15-2" uniFEBB dx=-150 dy=0 dh=-150 dv=0 dx=0 dy=0 dh=0 dv=0
PairPos2: "'kern' Horizontal Kerning lookup 15-2" uni0635 dx=-150 dy=0 dh=-150 dv=0 dx=0 dy=0 dh=0 dv=0
PairPos2: "'kern' Horizontal Kerning lookup 15-2" uniFEB7 dx=-150 dy=0 dh=-150 dv=0 dx=0 dy=0 dh=0 dv=0
PairPos2: "'kern' Horizontal Kerning lookup 15-2" uni0634 dx=-150 dy=0 dh=-150 dv=0 dx=0 dy=0 dh=0 dv=0
PairPos2: "'kern' Horizontal Kerning lookup 15-2" uniFEB3 dx=-150 dy=0 dh=-150 dv=0 dx=0 dy=0 dh=0 dv=0
PairPos2: "'kern' Horizontal Kerning lookup 15-2" uni0633 dx=-150 dy=0 dh=-150 dv=0 dx=0 dy=0 dh=0 dv=0
PairPos2: "'kern' Horizontal Kerning lookup 15-2" uni0632 dx=-50 dy=0 dh=-50 dv=0 dx=0 dy=0 dh=0 dv=0
PairPos2: "'kern' Horizontal Kerning lookup 15-2" uni0631 dx=-50 dy=0 dh=-50 dv=0 dx=0 dy=0 dh=0 dv=0
PairPos2: "'kern' Horizontal Kerning lookup 15-2" uni0630 dx=-150 dy=0 dh=-150 dv=0 dx=0 dy=0 dh=0 dv=0
PairPos2: "'kern' Horizontal Kerning lookup 15-2" uni062F dx=-150 dy=0 dh=-150 dv=0 dx=0 dy=0 dh=0 dv=0
PairPos2: "'kern' Horizontal Kerning lookup 15-2" uniFEA7 dx=-150 dy=0 dh=-150 dv=0 dx=0 dy=0 dh=0 dv=0
PairPos2: "'kern' Horizontal Kerning lookup 15-2" uniFEA3 dx=-150 dy=0 dh=-150 dv=0 dx=0 dy=0 dh=0 dv=0
PairPos2: "'kern' Horizontal Kerning lookup 15-2" uniFE9F dx=-150 dy=0 dh=-150 dv=0 dx=0 dy=0 dh=0 dv=0
PairPos2: "'kern' Horizontal Kerning lookup 15-2" uniFE9B dx=-150 dy=0 dh=-150 dv=0 dx=0 dy=0 dh=0 dv=0
PairPos2: "'kern' Horizontal Kerning lookup 15-2" uni062B dx=-150 dy=0 dh=-150 dv=0 dx=0 dy=0 dh=0 dv=0
PairPos2: "'kern' Horizontal Kerning lookup 15-2" uniFE97 dx=-150 dy=0 dh=-150 dv=0 dx=0 dy=0 dh=0 dv=0
PairPos2: "'kern' Horizontal Kerning lookup 15-2" uni062A dx=-150 dy=0 dh=-150 dv=0 dx=0 dy=0 dh=0 dv=0
PairPos2: "'kern' Horizontal Kerning lookup 15-2" uni0629 dx=-150 dy=0 dh=-150 dv=0 dx=0 dy=0 dh=0 dv=0
PairPos2: "'kern' Horizontal Kerning lookup 15-2" uniFE91 dx=-50 dy=0 dh=-50 dv=0 dx=0 dy=0 dh=0 dv=0
PairPos2: "'kern' Horizontal Kerning lookup 15-2" uni0628 dx=-150 dy=0 dh=-150 dv=0 dx=0 dy=0 dh=0 dv=0
PairPos2: "'kern' Horizontal Kerning lookup 15-2" uni0627 dx=-190 dy=0 dh=-190 dv=0 dx=0 dy=0 dh=0 dv=0
PairPos2: "'kern' Horizontal Kerning lookup 15-2" uni0623 dx=-190 dy=0 dh=-190 dv=0 dx=0 dy=0 dh=0 dv=0
PairPos2: "'kern' Horizontal Kerning lookup 15-2" uni0622 dx=-190 dy=0 dh=-190 dv=0 dx=0 dy=0 dh=0 dv=0
PairPos2: "'kern' Horizontal Kerning lookup 15-2" uni0621 dx=-150 dy=0 dh=-150 dv=0 dx=0 dy=0 dh=0 dv=0
PairPos2: "'kern' Horizontal Kerning lookup 15-2" uniFB94 dx=-190 dy=0 dh=-190 dv=0 dx=0 dy=0 dh=0 dv=0
PairPos2: "'kern' Horizontal Kerning lookup 15-2" uniFB92 dx=-190 dy=0 dh=-190 dv=0 dx=0 dy=0 dh=0 dv=0
PairPos2: "'kern' Horizontal Kerning lookup 15-2" afii57509 dx=-190 dy=0 dh=-190 dv=0 dx=0 dy=0 dh=0 dv=0
PairPos2: "'kern' Horizontal Kerning lookup 15-2" afii57508 dx=-50 dy=0 dh=-50 dv=0 dx=0 dy=0 dh=0 dv=0
PairPos2: "'kern' Horizontal Kerning lookup 15-2" afii57506 dx=-150 dy=0 dh=-150 dv=0 dx=0 dy=0 dh=0 dv=0
PairPos2: "'kern' Horizontal Kerning lookup 15-2" afii57440 dx=-150 dy=0 dh=-150 dv=0 dx=0 dy=0 dh=0 dv=0
PairPos2: "'kern' Horizontal Kerning lookup 15-2" uniFE8B dx=-150 dy=0 dh=-150 dv=0 dx=0 dy=0 dh=0 dv=0
EndChar

StartChar: uniFEB2
Encoding: 65202 65202 189
Width: 2594
VWidth: 2429
GlyphClass: 2
Flags: W
AnchorPoint: "Anchor-10" 665.612 978.669 basechar 0
AnchorPoint: "Anchor-7" 406.05 -678.419 basechar 0
LayerCount: 2
Fore
SplineSet
2557.47167969 184 m 2,0,-1
 2599.69433594 184 l 2,1,2
 2625 184 2625 184 2624.70214844 94 c 2,3,-1
 2624.70214844 84 l 2,4,5
 2625 0 2625 0 2599.69433594 0 c 2,6,-1
 2552 0 l 2,7,8
 2302 0 2302 0 2237.30078125 136.06640625 c 1,9,10
 2135 0 2135 0 1997.125 0 c 0,11,12
 1839 0 1839 0 1761.17578125 136.06640625 c 1,13,14
 1630 1 1630 1 1501 0 c 0,15,16
 1354 -1 1354 -1 1325.32324219 60.1328125 c 1,17,18
 1290 -506 1290 -506 675 -504.098632812 c 0,19,20
 99 -502 99 -502 100.877929688 -20.9833984375 c 0,21,22
 102 266 102 266 320.528320312 540 c 0,23,24
 362.004696307 592.005888548 362.004696307 592.005888548 406 561.784179688 c 2,25,-1
 454 528.811523438 l 2,26,27
 489 505 489 505 446.912109375 444 c 0,28,29
 264 183 264 183 264.977539062 -5 c 0,30,31
 267 -330 267 -330 703 -326.5 c 128,-1,32
 1139 -323 1139 -323 1157.25097656 41.8154296875 c 0,33,34
 1168 249 1168 249 1154.68652344 369 c 0,35,36
 1145.0228156 456.792725181 1145.0228156 456.792725181 1195 479.87890625 c 2,37,-1
 1243 502.051757812 l 2,38,39
 1323 539 1323 539 1324.26953125 453 c 0,40,41
 1326 295 1326 295 1335.01367188 270.4296875 c 8,42,43
 1366 182 1366 182 1495.00585938 183.9921875 c 0,44,45
 1688.78067581 187.995468883 1688.78067581 187.995468883 1698.734375 391.598632812 c 2,46,-1
 1701.8828125 456 l 2,47,48
 1705.00609638 512.109521005 1705.00609638 512.109521005 1753 512.076171875 c 2,49,-1
 1805 512.040039062 l 2,50,51
 1851.34094901 511.999703233 1851.34094901 511.999703233 1847.75390625 436 c 2,52,-1
 1843.17578125 339.001953125 l 2,53,54
 1836 182 1836 182 2011.13085938 183.9921875 c 0,55,56
 2164.80799936 185.997494616 2164.80799936 185.997494616 2174.859375 391.598632812 c 2,57,-1
 2178.0078125 456 l 2,58,59
 2181.00585657 512.109608029 2181.00585657 512.109608029 2229.125 512.076171875 c 2,60,-1
 2281.125 512.040039062 l 2,61,62
 2327.46594382 511.999593331 2327.46594382 511.999593331 2323.87890625 436 c 2,63,-1
 2319.30078125 339.001953125 l 2,64,65
 2312 184 2312 184 2557.47167969 184 c 2,0,-1
EndSplineSet
EndChar

StartChar: uniFEB3
Encoding: 65203 65203 190
Width: 1519
VWidth: 2429
GlyphClass: 2
Flags: W
AnchorPoint: "Anchor-10" 667.906 1058.77 basechar 0
AnchorPoint: "Anchor-7" 690.156 -213.375 basechar 0
LayerCount: 2
Fore
SplineSet
-5 184 m 6,0,-1
 23.830078125 183.990234375 l 2,1,2
 277.409661359 184.000015802 277.409661359 184.000015802 287.55859375 391.596679688 c 2,3,-1
 290.70703125 455.998046875 l 2,4,5
 293.004427804 512.108141756 293.004427804 512.108141756 341.82421875 512.07421875 c 2,6,-1
 393.82421875 512.038085938 l 2,7,8
 440.165267513 511.999863687 440.165267513 511.999863687 436.578125 435.998046875 c 2,9,-1
 432 339 l 2,10,11
 425 182 425 182 603.830078125 183.990234375 c 0,12,13
 777.507158051 185.994313043 777.507158051 185.994313043 787.55859375 391.596679688 c 2,14,-1
 790.70703125 455.998046875 l 2,15,16
 793.004427804 512.108141756 793.004427804 512.108141756 841.82421875 512.07421875 c 2,17,-1
 893.82421875 512.038085938 l 2,18,19
 940.165267513 511.999863687 940.165267513 511.999863687 936.578125 435.998046875 c 2,20,-1
 932 339 l 2,21,22
 925 182 925 182 1103.73046875 183.990234375 c 0,23,24
 1263 186 1263 186 1251.84570312 410 c 0,25,26
 1248 483 1248 483 1227.13964844 566.998046875 c 0,27,28
 1207.89118503 644.437780511 1207.89118503 644.437780511 1245.82421875 659.672851562 c 2,29,-1
 1308.82421875 684.975585938 l 2,30,31
 1369 709 1369 709 1389.17480469 635.998046875 c 0,32,33
 1421 522 1421 522 1421.89648438 426 c 0,34,35
 1425 0 1425 0 1107.125 0 c 16,36,37
 930 0 930 0 850 136.064453125 c 1,38,39
 718 -0 718 -0 589.82421875 -0.001953125 c 0,40,41
 415 -0 415 -0 348.33984375 122.5859375 c 1,42,43
 239 0 239 0 25.951171875 0 c 2,44,-1
 -5 0 l 6,45,46
 -70.783203125 0 -70.783203125 0 -70.783203125 86 c 6,47,-1
 -70.783203125 93 l 6,48,49
 -71 184 -71 184 -5 184 c 6,0,-1
EndSplineSet
EndChar

StartChar: uniFEB4
Encoding: 65204 65204 191
Width: 1684
VWidth: 2429
GlyphClass: 2
Flags: W
AnchorPoint: "Anchor-10" 748.557 1053.21 basechar 0
AnchorPoint: "Anchor-7" 813.307 -235.625 basechar 0
LayerCount: 2
Fore
SplineSet
1642 0 m 2,0,1
 1392 0 1392 0 1327.30078125 136.06640625 c 1,2,3
 1225 0 1225 0 1087.125 0 c 0,4,5
 930 0 930 0 850 136.064453125 c 1,6,7
 718 -0 718 -0 589.82421875 -0.001953125 c 0,8,9
 415 -0 415 -0 348.33984375 122.5859375 c 1,10,11
 239 0 239 0 25.951171875 0 c 2,12,-1
 -5 0 l 2,13,14
 -70.783203125 0 -70.783203125 0 -70.783203125 86 c 2,15,-1
 -70.783203125 93 l 2,16,17
 -71.0000532611 184.022356227 -71.0000532611 184.022356227 -5 184 c 2,18,-1
 23.830078125 183.990234375 l 2,19,20
 277.409661359 184.000015802 277.409661359 184.000015802 287.55859375 391.596679688 c 2,21,-1
 290.70703125 455.998046875 l 2,22,23
 293.004427804 512.108141756 293.004427804 512.108141756 341.82421875 512.07421875 c 2,24,-1
 393.82421875 512.038085938 l 2,25,26
 440.165267513 511.999863687 440.165267513 511.999863687 436.578125 435.998046875 c 2,27,-1
 432 339 l 2,28,29
 425 183 425 183 603.830078125 183.990234375 c 0,30,31
 777.458679085 185.002674589 777.458679085 185.002674589 787.55859375 391.596679688 c 2,32,-1
 790.70703125 455.998046875 l 2,33,34
 793.004427804 512.108141756 793.004427804 512.108141756 841.82421875 512.07421875 c 2,35,-1
 893.82421875 512.038085938 l 2,36,37
 940.165267513 511.999863687 940.165267513 511.999863687 936.578125 435.998046875 c 2,38,-1
 932 339 l 2,39,40
 925 181 925 181 1101.13085938 183.9921875 c 0,41,42
 1254.80799936 185.997494616 1254.80799936 185.997494616 1264.859375 391.598632812 c 2,43,-1
 1268.0078125 456 l 2,44,45
 1271.00585657 512.109608029 1271.00585657 512.109608029 1319.125 512.076171875 c 2,46,-1
 1371.125 512.040039062 l 2,47,48
 1417.46594382 511.999593331 1417.46594382 511.999593331 1413.87890625 436 c 2,49,-1
 1409.30078125 339.001953125 l 2,50,51
 1402 184 1402 184 1647.47167969 184 c 2,52,-1
 1689.69433594 184 l 2,53,54
 1714.70214844 184 1714.70214844 184 1714.70214844 94 c 2,55,-1
 1714.70214844 84 l 2,56,57
 1715 0 1715 0 1689.69433594 0 c 2,58,-1
 1642 0 l 2,0,1
EndSplineSet
EndChar

StartChar: uniFEBA
Encoding: 65210 65210 197
Width: 2693
VWidth: 2424
GlyphClass: 2
Flags: W
AnchorPoint: "Anchor-10" 695.65 1089.92 basechar 0
AnchorPoint: "Anchor-7" 406.688 -687.269 basechar 0
LayerCount: 2
Fore
SplineSet
2656.47167969 184 m 6,0,1
 2698.69433594 184 l 6,2,3
 2724 184 2724 184 2723.70214844 94 c 6,4,-1
 2723.70214844 84 l 6,5,6
 2723.70214844 0 2723.70214844 0 2698.69433594 0 c 6,7,-1
 2651 0 l 6,8,9
 2381 0 2381 0 2291 123.21484375 c 1,10,11
 2107 0 2107 0 1745.01464844 0.26953125 c 2,12,-1
 1504.515625 0.26953125 l 2,13,14
 1395.68320798 0.26953125 1395.68320798 0.26953125 1325.32324219 60.1328125 c 1,15,16
 1290 -506 1290 -506 675 -504.098632812 c 0,17,18
 99 -502 99 -502 100.877929688 -20.9833984375 c 0,19,20
 102 266 102 266 320.528320312 540 c 0,21,22
 362 592 362 592 406 561.784179688 c 2,23,-1
 454 528.811523438 l 2,24,25
 488.891850043 504.843253076 488.891850043 504.843253076 446.912109375 444 c 0,26,27
 264.02117624 178.927392284 264.02117624 178.927392284 264.977539062 -5 c 0,28,29
 267 -330 267 -330 703 -326.5 c 128,-1,30
 1139 -323 1139 -323 1157.25097656 41.8154296875 c 0,31,32
 1168 249 1168 249 1154.68652344 369 c 0,33,34
 1145 457 1145 457 1195 479.87890625 c 2,35,-1
 1243 502.051757812 l 2,36,37
 1322.99990454 539.006466321 1322.99990454 539.006466321 1324.26953125 453 c 0,38,39
 1326 304 1326 304 1335.01367188 270.4296875 c 24,40,41
 1347 227 1347 227 1394 211 c 1,42,43
 1806 784 1806 784 2147.93164062 784.127929688 c 0,44,45
 2307 784 2307 784 2393.515625 687.26953125 c 0,46,47
 2473 599 2473 599 2473.53710938 470.180664062 c 0,48,49
 2474 373 2474 373 2430.42382812 283.370117188 c 0,50,51
 2421 264 2421 264 2410 245.0390625 c 1,52,53
 2457 184 2457 184 2656.47167969 184 c 6,0,1
1557.65429688 184.529296875 m 1,54,-1
 1760.73144531 184.529296875 l 2,55,56
 2288 185 2288 185 2287.88476562 446.26953125 c 0,57,58
 2288 601 2288 601 2118.11621094 601.260742188 c 0,59,60
 1928 601 1928 601 1557.65429688 184.529296875 c 1,54,-1
  Spiro
    1557.65 184.529 v
    1760.73 184.529 ]
    2156.41 249.834 o
    2287.88 446.27 o
    2245.26 562.517 o
    2118.12 601.261 o
    1868.17 497.088 o
    0 0 z
  EndSpiro
EndSplineSet
EndChar

StartChar: uniFEBB
Encoding: 65211 65211 198
Width: 1681
VWidth: 2424
GlyphClass: 2
Flags: W
AnchorPoint: "Anchor-10" 566.983 1188.15 basechar 0
AnchorPoint: "Anchor-7" 739.371 -283.463 basechar 0
LayerCount: 2
Fore
SplineSet
-5 184 m 2,0,-1
 13.830078125 183.990234375 l 2,1,2
 277.40966133 184.000015202 277.40966133 184.000015202 287.55859375 391.596679688 c 6,3,-1
 290.70703125 455.998046875 l 6,4,5
 293.004427804 512.108141757 293.004427804 512.108141757 341.82421875 512.07421875 c 6,6,-1
 393.82421875 512.038085938 l 6,7,8
 440.165267513 511.999863687 440.165267513 511.999863687 436.578125 435.998046875 c 6,9,-1
 432 339 l 6,10,11
 426 222 426 222 491 211 c 5,12,13
 903 784 903 784 1244.93164062 784.127929688 c 4,14,15
 1404 784 1404 784 1490.515625 687.26953125 c 4,16,17
 1570 599 1570 599 1570.53710938 470.180664062 c 4,18,19
 1571 377 1571 377 1527.42382812 283.370117188 c 4,20,21
 1397.12405436 0.26953125 1397.12405436 0.26953125 842.014648438 0.26953125 c 6,22,-1
 591.515625 0.26953125 l 6,23,24
 459 0 459 0 348.33984375 122.5859375 c 5,25,26
 239 0 239 0 15.951171875 0 c 2,27,-1
 -5 0 l 2,28,29
 -70.783203125 0 -70.783203125 0 -70.783203125 86 c 2,30,-1
 -70.783203125 93 l 2,31,32
 -71 184 -71 184 -5 184 c 2,0,-1
654.654296875 184.529296875 m 5,33,-1
 857.731445312 184.529296875 l 6,34,35
 1385 185 1385 185 1384.88476562 446.26953125 c 4,36,37
 1385 601 1385 601 1215.11621094 601.260742188 c 4,38,39
 1025 601 1025 601 654.654296875 184.529296875 c 5,33,-1
  Spiro
    654.654 184.529 v
    857.731 184.529 ]
    1253.41 249.834 o
    1384.88 446.27 o
    1342.26 562.517 o
    1215.12 601.261 o
    965.169 497.088 o
    0 0 z
  EndSpiro
EndSplineSet
EndChar

StartChar: uniFEBC
Encoding: 65212 65212 199
Width: 1790
VWidth: 2424
GlyphClass: 2
Flags: W
AnchorPoint: "Anchor-10" 612.807 1260.13 basechar 0
AnchorPoint: "Anchor-7" 748.481 -291.25 basechar 0
LayerCount: 2
Fore
SplineSet
1753.47167969 184 m 6,0,1
 1795.69433594 184 l 6,2,3
 1821 184 1821 184 1820.70214844 94 c 6,4,-1
 1820.70214844 84 l 6,5,6
 1820.70214844 0 1820.70214844 0 1795.69433594 0 c 6,7,-1
 1748 0 l 6,8,9
 1478 0 1478 0 1389 123.887695312 c 1,10,11
 1205 0 1205 0 842.014648438 0.26953125 c 2,12,-1
 591.515625 0.26953125 l 2,13,14
 458.756690116 0.26953125 458.756690116 0.26953125 348.33984375 122.5859375 c 1,15,16
 239 0 239 0 15.951171875 0 c 2,17,-1
 -5 0 l 2,18,19
 -71 0 -71 0 -70.783203125 86 c 2,20,-1
 -70.783203125 93 l 2,21,22
 -70.783203125 184 -70.783203125 184 -5 184 c 2,23,-1
 13.830078125 183.990234375 l 2,24,25
 276.992561742 183.853753469 276.992561742 183.853753469 287.55859375 391.596679688 c 2,26,-1
 290.70703125 455.998046875 l 2,27,28
 293.444873413 512.000676262 293.444873413 512.000676262 341.82421875 512.07421875 c 2,29,-1
 393.82421875 512.038085938 l 2,30,31
 440.000270139 512.005999964 440.000270139 512.005999964 436.578125 435.998046875 c 2,32,-1
 432 339 l 2,33,34
 426.474034222 221.919778824 426.474034222 221.919778824 491 211 c 1,35,36
 901 784 901 784 1244.93164062 784.127929688 c 0,37,38
 1404 784 1404 784 1490.515625 687.26953125 c 0,39,40
 1570 599 1570 599 1570.53710938 470.180664062 c 0,41,42
 1571 377 1571 377 1527.42382812 283.370117188 c 0,43,44
 1519 265 1519 265 1508.18945312 247 c 1,45,46
 1557 184 1557 184 1753.47167969 184 c 6,0,1
654.654296875 184.529296875 m 1,47,-1
 857.731445312 184.529296875 l 2,48,49
 1385 185 1385 185 1384.88476562 446.26953125 c 0,50,51
 1385 601 1385 601 1215.11621094 601.260742188 c 0,52,53
 1025 601 1025 601 654.654296875 184.529296875 c 1,47,-1
  Spiro
    654.654 184.529 v
    857.731 184.529 ]
    1253.41 249.834 o
    1384.88 446.27 o
    1342.26 562.517 o
    1215.12 601.261 o
    965.169 497.088 o
    0 0 z
  EndSpiro
EndSplineSet
EndChar

StartChar: uniFEC2
Encoding: 65218 65218 205
Width: 1659
VWidth: 2424
GlyphClass: 2
Flags: W
AnchorPoint: "Anchor-7" 560.132 -248.312 basechar 0
AnchorPoint: "Anchor-10" 350.408 1515.22 basechar 0
LayerCount: 2
Fore
SplineSet
1622.47167969 184 m 6,0,1
 1664.69433594 184 l 6,2,3
 1690 184 1690 184 1689.70214844 94 c 6,4,-1
 1689.70214844 84 l 6,5,6
 1689.70214844 0 1689.70214844 0 1664.69433594 0 c 6,7,-1
 1617 0 l 6,8,9
 1347 0 1347 0 1258.00292969 123.331054688 c 1,10,11
 1075 0 1075 0 712.014648438 0.26953125 c 2,12,-1
 381.515625 0.26953125 l 18,13,14
 178.839284072 0.26953125 178.839284072 0.26953125 122 95.5927734375 c 0,15,16
 69 184 69 184 158 184.046875 c 2,17,-1
 372.138671875 184.259765625 l 1,18,19
 324 480 324 480 323.856445312 760.391601562 c 0,20,21
 324 1017 324 1017 351.93359375 1235 c 0,22,23
 360 1298 360 1298 410 1297.52734375 c 2,24,-1
 461 1297.16503906 l 2,25,26
 513.976316008 1296.78869459 513.976316008 1296.78869459 507.05078125 1235 c 0,27,28
 458 800 458 800 504.515625 388.26953125 c 1,29,30
 835 784 835 784 1114.93164062 784.127929688 c 0,31,32
 1274 784 1274 784 1360.515625 687.26953125 c 0,33,34
 1440 599 1440 599 1440.53710938 470.180664062 c 0,35,36
 1441 377 1441 377 1397.42382812 283.370117188 c 0,37,38
 1388 263 1388 263 1377.19238281 246.443359375 c 1,39,40
 1426 184 1426 184 1622.47167969 184 c 6,0,1
524.654296875 184.529296875 m 1,41,-1
 727.731445312 184.529296875 l 2,42,43
 1255.515625 184.26953125 1255.515625 184.26953125 1254.88476562 446.26953125 c 0,44,45
 1254.515625 601.26953125 1254.515625 601.26953125 1085.11621094 601.260742188 c 0,46,47
 895 601 895 601 524.654296875 184.529296875 c 1,41,-1
  Spiro
    524.654 184.529 v
    727.731 184.529 ]
    1123.41 249.834 o
    1254.88 446.27 o
    1212.26 562.517 o
    1085.12 601.261 o
    835.169 497.088 o
    0 0 z
  EndSpiro
EndSplineSet
EndChar

StartChar: uniFEC3
Encoding: 65219 65219 206
Width: 1382
VWidth: 2424
GlyphClass: 2
Flags: W
AnchorPoint: "Anchor-10" 296.472 1497.08 basechar 0
AnchorPoint: "Anchor-7" 509.935 -246.775 basechar 0
LayerCount: 2
Fore
SplineSet
-5 184 m 6,0,-1
 213.623046875 183.990234375 l 1,1,2
 165 480 165 480 165.340820312 760.122070312 c 0,3,4
 165 1006 165 1006 193.41796875 1234.73046875 c 0,5,6
 200.954076113 1297.61678043 200.954076113 1297.61678043 251.484375 1297.2578125 c 2,7,-1
 302.484375 1296.89550781 l 2,8,9
 355 1297 355 1297 348.53515625 1234.73046875 c 0,10,11
 298 812 298 812 346 388 c 1,12,13
 676 784 676 784 956.416015625 783.858398438 c 0,14,15
 1115 784 1115 784 1202 687 c 0,16,17
 1282 598 1282 598 1282.02148438 469.911132812 c 0,18,19
 1282 377 1282 377 1238.90820312 283.100585938 c 0,20,21
 1108 0 1108 0 553.499023438 0 c 2,22,-1
 223 0 l 26,23,-1
 -5 0 l 6,24,25
 -70.783203125 0 -70.783203125 0 -70.783203125 86 c 6,26,-1
 -70.783203125 93 l 6,27,28
 -71 184 -71 184 -5 184 c 6,0,-1
366.138671875 184.259765625 m 1,29,-1
 569.215820312 184.259765625 l 2,30,31
 1097 184 1097 184 1096.36914062 446 c 0,32,33
 1096 601 1096 601 926.600585938 600.991210938 c 0,34,35
 736.484375 600.73046875 736.484375 600.73046875 366.138671875 184.259765625 c 1,29,-1
  Spiro
    366.139 184.26 v
    569.216 184.26 ]
    964.896 249.565 o
    1096.37 446 o
    1053.74 562.248 o
    926.601 600.991 o
    676.654 496.818 o
    0 0 z
  EndSpiro
956.416190469 803.858741997 m 1024,36,-1
  Spiro
    -30.2031 0 v
    -30.2031 183.989 v
    217.623 183.99 v
    171.322 658.901 o
    205.665 1297.61 v
    356.299 1296.51 v
    324.075 825.628 o
    346 408 v
    660.115 704.386 o
    940.459 803.544 o
    1097.11 777.136 o
    1212 697 o
    1291 499 o
    1253 292 o
    1110.1 119.75 o
    553.499 0 [
    0 0 z
  EndSpiro
EndSplineSet
EndChar

StartChar: uniFEC4
Encoding: 65220 65220 207
Width: 1504
VWidth: 2424
GlyphClass: 2
Flags: W
AnchorPoint: "Anchor-10" 319.146 1481.49 basechar 0
AnchorPoint: "Anchor-7" 438.35 -251.625 basechar 0
LayerCount: 2
Fore
SplineSet
1467.47167969 184 m 6,0,1
 1509.69433594 184 l 6,2,3
 1535 184 1535 184 1534.70214844 94 c 6,4,-1
 1534.70214844 84 l 6,5,6
 1534.70214844 0 1534.70214844 0 1509.69433594 0 c 6,7,-1
 1462 0 l 6,8,9
 1187 0 1187 0 1098.00292969 123.331054688 c 1,10,11
 907 1 907 1 552.014648438 0.26953125 c 2,12,-1
 223 0 l 26,13,-1
 -5 0 l 2,14,15
 -71 0 -71 0 -70.783203125 86 c 2,16,-1
 -70.783203125 93 l 2,17,18
 -70.783203125 184 -70.783203125 184 -5 184 c 2,19,-1
 213.623046875 183.990234375 l 1,20,21
 165 480 165 480 165.340820312 760.122070312 c 0,22,23
 165 1006 165 1006 193.41796875 1234.73046875 c 0,24,25
 201 1298 201 1298 251.484375 1297.2578125 c 2,26,-1
 302.484375 1296.89550781 l 2,27,28
 354.950455696 1296.52278806 354.950455696 1296.52278806 348.53515625 1234.73046875 c 0,29,30
 301 781 301 781 346 388 c 1,31,32
 675 784 675 784 954.931640625 784.127929688 c 0,33,34
 1114 784 1114 784 1200.515625 687.26953125 c 0,35,36
 1280 599 1280 599 1280.53710938 470.180664062 c 0,37,38
 1281 377 1281 377 1237.42382812 283.370117188 c 0,39,40
 1228 263 1228 263 1217.19238281 246.443359375 c 1,41,42
 1266 184 1266 184 1467.47167969 184 c 6,0,1
364.654296875 184.529296875 m 1,43,-1
 567.731445312 184.529296875 l 2,44,45
 1095.515625 184.26953125 1095.515625 184.26953125 1094.88476562 446.26953125 c 0,46,47
 1094.515625 601.26953125 1094.515625 601.26953125 925.116210938 601.260742188 c 0,48,49
 735 601 735 601 364.654296875 184.529296875 c 1,43,-1
  Spiro
    364.654 184.529 v
    567.731 184.529 ]
    963.412 249.834 o
    1094.88 446.27 o
    1052.26 562.517 o
    925.116 601.261 o
    675.169 497.088 o
    0 0 z
  EndSpiro
EndSplineSet
EndChar

StartChar: uniFECA
Encoding: 65226 65226 213
Width: 1221
VWidth: 2424
GlyphClass: 2
Flags: W
AnchorPoint: "Anchor-10" 538.787 1258.52 basechar 0
AnchorPoint: "Anchor-7" 356.255 -785.774 basechar 0
LayerCount: 2
Fore
SplineSet
1184.47167969 184 m 6,0,1
 1226.69433594 184 l 6,2,3
 1252 184 1252 184 1251.70214844 94 c 6,4,-1
 1251.70214844 84 l 6,5,6
 1251.70214844 0 1251.70214844 0 1226.69433594 0 c 6,7,-1
 1179 0 l 6,8,9
 835 0 835 0 614.056640625 222.088867188 c 1,10,11
 269 24 269 24 256.326171875 -207.159179688 c 24,12,13
 239 -519 239 -519 659 -519.129882812 c 0,14,15
 846 -519 846 -519 1023 -447.559570312 c 0,16,17
 1087 -422 1087 -422 1096.59472656 -467 c 2,18,-1
 1111.96582031 -539 l 2,19,20
 1122.39131519 -587.834236771 1122.39131519 -587.834236771 1065 -612.145507812 c 0,21,22
 891 -686 891 -686 648 -685.672851562 c 0,23,24
 406 -685 406 -685 273 -588.69921875 c 0,25,26
 85 -454 85 -454 95.6708984375 -210.208984375 c 24,27,28
 109 101 109 101 472.475585938 331.248046875 c 1,29,30
 343 431 343 431 284.47265625 497.063476562 c 0,31,32
 214 577 214 577 214.961914062 644.063476562 c 0,33,34
 216 748 216 748 396.47265625 813.063476562 c 0,35,36
 507 853 507 853 708.47265625 858.0625 c 0,37,38
 863 862 863 862 976.47265625 830.063476562 c 0,39,40
 1109 793 1109 793 1089.47265625 689.063476562 c 0,41,42
 1065 560 1065 560 741 315 c 1,43,44
 878 184 878 184 1184.47167969 184 c 6,0,1
456.47265625 541.653320312 m 0,45,46
 556 443 556 443 611.25390625 404.713867188 c 1,47,48
 811 549 811 549 919.47265625 678.063476562 c 1,49,50
 736 714 736 714 525.47265625 679.063476562 c 0,51,52
 348 650 348 650 456.47265625 541.653320312 c 0,45,46
EndSplineSet
EndChar

StartChar: uniFECB
Encoding: 65227 65227 214
Width: 1166
VWidth: 2424
GlyphClass: 2
Flags: W
AnchorPoint: "Anchor-10" 480.257 1255.06 basechar 0
AnchorPoint: "Anchor-7" 491.692 -239.119 basechar 0
LayerCount: 2
Fore
SplineSet
-5 184 m 6,0,-1
 19.6171875 183.990234375 l 2,1,-1
 264.94140625 183.461914062 l 1,2,3
 192 258 192 258 203.491210938 396.4921875 c 0,4,5
 219 578 219 578 366.256835938 732.619140625 c 0,6,7
 482 854 482 854 638 852.581054688 c 0,8,9
 919 849 919 849 928.053710938 525.64453125 c 1,10,-1
 814.982421875 528.874023438 l 1,11,12
 792 670 792 670 648 673.2265625 c 0,13,14
 477 678 477 678 398.559570312 490.916015625 c 0,15,16
 291 233 291 233 537 209 c 0,17,18
 700 193 700 193 869.592773438 254.029296875 c 0,19,20
 960 287 960 287 1023.66113281 328.044921875 c 1,21,-1
 1075.6875 167.141601562 l 1,22,23
 864 0 864 0 121.005859375 0 c 2,24,-1
 -5 0 l 6,25,26
 -70.783203125 0 -70.783203125 0 -70.783203125 86 c 6,27,-1
 -70.783203125 93 l 6,28,29
 -71 184 -71 184 -5 184 c 6,0,-1
EndSplineSet
EndChar

StartChar: uniFECC
Encoding: 65228 65228 215
Width: 1187
VWidth: 2424
GlyphClass: 2
Flags: W
AnchorPoint: "Anchor-10" 540.545 1186.71 basechar 0
AnchorPoint: "Anchor-7" 500.596 -237.057 basechar 0
LayerCount: 2
Fore
SplineSet
1095 0 m 6,0,1
 767 0 767 0 624.513671875 133.561523438 c 1,2,3
 423 0 423 0 61.45703125 0 c 2,4,-1
 -5 0 l 2,5,6
 -70.783203125 0 -70.783203125 0 -70.783203125 86 c 2,7,-1
 -70.783203125 93 l 2,8,9
 -71.000025478 184.010694325 -71.000025478 184.010694325 -5 184 c 2,10,-1
 55.2685546875 183.990234375 l 2,11,12
 328 184 328 184 470.002929688 250.184570312 c 1,13,14
 335 354 335 354 282 416 c 0,15,16
 211 499 211 499 212.489222143 563 c 0,17,18
 214 667 214 667 394 732 c 0,19,20
 505 772 505 772 706 776.999023438 c 0,21,22
 857 781 857 781 974 749 c 0,23,24
 1106 713 1106 713 1087 608 c 0,25,26
 1063 477 1063 477 759.354492188 247.114257812 c 1,27,28
 855 184 855 184 1100.47167969 184 c 6,29,-1
 1192.69433594 184 l 2,30,31
 1217.70214844 184 1217.70214844 184 1217.70214844 94 c 2,32,-1
 1217.70214844 84 l 2,33,34
 1218 0 1218 0 1192.69433594 0 c 2,35,-1
 1095 0 l 6,0,1
454 460.5898657 m 0,36,37
 531 384 531 384 618.78125 323.650390625 c 1,38,39
 793 450 793 450 917 597 c 1,40,41
 733 633 733 633 523 598 c 0,42,43
 345 569 345 569 454 460.5898657 c 0,36,37
EndSplineSet
EndChar

StartChar: uniFEDA
Encoding: 65242 65242 229
Width: 1925
VWidth: 2424
GlyphClass: 2
Flags: W
AnchorPoint: "Anchor-10" 636.638 1379.34 basechar 0
AnchorPoint: "Anchor-7" 467.125 -236.206 basechar 0
LayerCount: 2
Fore
SplineSet
1888.47167969 184 m 2,0,1
 1930.69433594 184 l 2,2,3
 1956 184 1956 184 1955.70214844 94 c 2,4,-1
 1955.70214844 84 l 2,5,6
 1955.70214844 0 1955.70214844 0 1930.69433594 0 c 2,7,-1
 1883 0 l 2,8,9
 1673 0 1673 0 1549 130 c 1,10,11
 1368 8 1368 8 1113 -15.9052734375 c 0,12,13
 983 -28 983 -28 805.12890625 -28 c 0,14,15
 103 -28 103 -28 103.138671875 465.259765625 c 0,16,17
 103 642 103 642 213.404296875 830.546875 c 1,18,-1
 350 765 l 1,19,20
 264 606 264 606 264.344726562 485.079101562 c 0,21,22
 265 158 265 158 828 157.327148438 c 0,23,24
 1113 157 1113 157 1343.76855469 220.149414062 c 24,25,26
 1545 275 1545 275 1560.65527344 421.709960938 c 2,27,-1
 1567.09667969 483.16796875 l 1,28,29
 1572 505 1572 505 1573.87695312 785.913085938 c 0,30,31
 1576 999 1576 999 1536.17089844 1288.58984375 c 1,32,-1
 1686.81933594 1291.02832031 l 1,33,34
 1714 1140 1714 1140 1724.34277344 752.26171875 c 0,35,36
 1729 562 1729 562 1697.30859375 394.349609375 c 0,37,38
 1686 332 1686 332 1652 264 c 1,39,40
 1707 184 1707 184 1888.47167969 184 c 2,0,1
1177.30664062 1211.15718775 m 1,41,-1
 1177.30664062 1117.51450799 l 1,42,43
 1072.519441 1109.60543888 1072.519441 1109.60543888 1012 1081.33950964 c 0,44,45
 946.838725506 1050.90558718 946.838725506 1050.90558718 947.349901617 1010 c 0,46,47
 948 949 948 949 1052.14072539 932.682667561 c 0,48,49
 1188 912 1188 912 1187.63115673 810.556332661 c 0,50,51
 1188 690 1188 690 1072.8828125 625.23828125 c 0,52,53
 961 563 961 563 745.676757812 597.742293311 c 1,54,-1
 745.676757812 698.620830489 l 1,55,56
 872 682 872 682 935.281801732 688.421508545 c 0,57,58
 1077 703 1077 703 1090.88766582 786.79688423 c 0,59,60
 1099 838 1099 838 1008.30082756 852.02822446 c 0,61,62
 851.064105031 876.522671566 851.064105031 876.522671566 851.620460731 1015.31649651 c 0,63,64
 852 1100 852 1100 943.96783232 1156.06203471 c 0,65,66
 1023.24746293 1201.005351 1023.24746293 1201.005351 1155.99157876 1209.75261692 c 2,67,-1
 1177.30664062 1211.15718775 l 1,41,-1
EndSplineSet
EndChar

StartChar: uniFEDB
Encoding: 65243 65243 230
Width: 901
VWidth: 2424
GlyphClass: 2
Flags: W
AnchorPoint: "Anchor-10" 189.331 1409.66 basechar 0
AnchorPoint: "Anchor-7" 267.05 -269.875 basechar 0
LayerCount: 2
Fore
SplineSet
-5 184 m 6,0,-1
 55.2001953125 184.016601562 l 2,1,2
 221 184 221 184 288 215 c 24,3,4
 436 283 436 283 439.40625 406.504882812 c 0,5,6
 443 527 443 527 314.231445312 654.350585938 c 0,7,8
 227 741 227 741 136.37109375 798.370117188 c 0,9,10
 30 867 30 867 19.6796875 923.067382812 c 0,11,12
 -1 1032 -1 1032 123.663085938 1115.67871094 c 0,13,14
 414 1312 414 1312 771 1396.75714375 c 0,15,16
 848.175099532 1415.04148462 848.175099532 1415.04148462 851.038469933 1368 c 2,17,-1
 854.873219978 1305 l 2,18,19
 858 1251 858 1251 792 1235.38273753 c 0,20,21
 504 1167 504 1167 195.475585938 958.620117188 c 1,22,23
 604 700 604 700 606.224548282 413 c 0,24,25
 608 245 608 245 468.678710938 122.850585938 c 24,26,27
 397 60 397 60 292 27 c 0,28,29
 205 0 205 0 29 0 c 2,30,-1
 -5 0 l 6,31,32
 -70.783203125 0 -70.783203125 0 -70.783203125 86 c 6,33,-1
 -70.783203125 93 l 6,34,35
 -71 184 -71 184 -5 184 c 6,0,-1
EndSplineSet
EndChar

StartChar: uniFEDC
Encoding: 65244 65244 231
Width: 889
VWidth: 2424
GlyphClass: 2
Flags: W
AnchorPoint: "Anchor-10" 208.626 1420.78 basechar 0
AnchorPoint: "Anchor-7" 303.83 -216.154 basechar 0
LayerCount: 2
Fore
SplineSet
852.471679688 184 m 6,0,1
 894.694335938 184 l 6,2,3
 920 184 920 184 919.702148438 94 c 6,4,-1
 919.702148438 84 l 6,5,6
 919.702148438 0 919.702148438 0 894.694335938 0 c 6,7,-1
 847 0 l 6,8,9
 616 0 616 0 525.475585938 182 c 1,10,11
 501 151 501 151 468.678710938 122.850585938 c 0,12,13
 397 60 397 60 292 27 c 0,14,15
 205 0 205 0 29 0 c 2,16,-1
 -5 0 l 2,17,18
 -71 0 -71 0 -70.783203125 86 c 2,19,-1
 -70.783203125 93 l 2,20,21
 -70.783203125 184 -70.783203125 184 -5 184 c 2,22,-1
 55.2001953125 184.016601562 l 2,23,24
 221.134781885 184.062361768 221.134781885 184.062361768 288 215 c 24,25,26
 436 283 436 283 439.40625 406.504882812 c 0,27,28
 443 527 443 527 314.231445312 654.350585938 c 0,29,30
 227 741 227 741 136.37109375 798.370117188 c 0,31,32
 30 867 30 867 19.6796875 923.067382812 c 0,33,34
 -1 1032 -1 1032 123.663085938 1115.67871094 c 0,35,36
 414 1312 414 1312 771 1396.75683594 c 0,37,38
 848 1415 848 1415 851.038085938 1368 c 2,39,-1
 854.873046875 1305 l 2,40,41
 858.157882135 1251.03735871 858.157882135 1251.03735871 792 1235.3828125 c 0,42,43
 504 1167 504 1167 195.475585938 958.620117188 c 1,44,45
 608 696 608 696 606.224548282 413 c 0,46,47
 606 385 606 385 602.734375 358 c 1,48,49
 686 184 686 184 852.471679688 184 c 6,0,1
EndSplineSet
EndChar

StartChar: uniFEDE
Encoding: 65246 65246 233
Width: 1559
VWidth: 2429
GlyphClass: 2
Flags: W
AnchorPoint: "Anchor-10" 618.331 1057.66 basechar 0
AnchorPoint: "Anchor-7" 347.384 -635.764 basechar 0
LayerCount: 2
Fore
SplineSet
1522.47167969 184 m 6,0,1
 1564.69433594 184 l 6,2,3
 1590 184 1590 184 1589.70214844 94 c 6,4,-1
 1589.70214844 84 l 6,5,6
 1589.70214844 0 1589.70214844 0 1564.69433594 0 c 6,7,-1
 1517 0 l 6,8,9
 1364 0 1364 0 1285.89257812 109.614257812 c 1,10,11
 1287 89 1287 89 1285.32324219 60.1328125 c 8,12,13
 1252 -506 1252 -506 675 -504.098632812 c 0,14,15
 99 -502 99 -502 100.877929688 -20.9833984375 c 0,16,17
 102 293 102 293 363.3203125 591.102539062 c 1,18,-1
 490.438476562 503.780273438 l 1,19,20
 264 204 264 204 264.977539062 -5 c 0,21,22
 267 -330 267 -330 703 -326.5 c 0,23,24
 1063 -323 1063 -323 1117.25097656 41.8154296875 c 24,25,26
 1142 210 1142 210 1134.30859375 658.614257812 c 0,27,28
 1127 1043 1127 1043 1103.03515625 1292.5078125 c 1,29,-1
 1250.42382812 1292.5078125 l 1,30,31
 1261 1224 1261 1224 1286.84960938 778.33984375 c 0,32,33
 1297 609 1297 609 1297.04785156 441 c 1,34,35
 1297 313 1297 313 1379.4609375 230.24609375 c 0,36,37
 1425 184 1425 184 1522.47167969 184 c 6,0,1
EndSplineSet
EndChar

StartChar: uniFEDF
Encoding: 65247 65247 234
Width: 549
VWidth: 2424
GlyphClass: 2
Flags: W
AnchorPoint: "Anchor-10" 296.624 1475.26 basechar 0
AnchorPoint: "Anchor-7" 185.824 -218.381 basechar 0
LayerCount: 2
Fore
SplineSet
-5 184 m 2,0,-1
 49.1201171875 183.990234375 l 2,1,2
 122 184 122 184 172.829101562 218.611328125 c 0,3,4
 269 284 269 284 257.141601562 690.908203125 c 0,5,6
 246 1083 246 1083 233.754017329 1232 c 0,7,8
 228.969596322 1293.39011729 228.969596322 1293.39011729 269 1294.27309406 c 2,9,-1
 320 1295.39803439 l 2,10,11
 375 1297 375 1297 383.696939575 1238 c 0,12,13
 419 992 419 992 415.77734375 639.834960938 c 0,14,15
 412 245 412 245 312.612304688 122.478515625 c 0,16,17
 214 0 214 0 55.1103515625 0 c 6,18,-1
 -5 0 l 2,19,20
 -70.783203125 0 -70.783203125 0 -70.783203125 86 c 2,21,-1
 -70.783203125 93 l 2,22,23
 -71 184 -71 184 -5 184 c 2,0,-1
EndSplineSet
EndChar

StartChar: uniFEE0
Encoding: 65248 65248 235
Width: 623
VWidth: 2424
GlyphClass: 2
Flags: W
AnchorPoint: "Anchor-10" 304.925 1452.21 basechar 0
AnchorPoint: "Anchor-7" 180.324 -238.006 basechar 0
LayerCount: 2
Fore
SplineSet
596.471679688 184 m 6,0,1
 628.694335938 184 l 6,2,3
 654 184 654 184 653.702148438 94 c 6,4,-1
 653.702148438 84 l 6,5,6
 653.702148438 0 653.702148438 0 628.694335938 0 c 6,7,-1
 591 0 l 6,8,9
 394 0 394 0 287.278320312 116.327148438 c 1,10,11
 183 0 183 0 18.916015625 0 c 2,12,-1
 -5 0 l 2,13,14
 -71 0 -71 0 -70.783203125 86 c 2,15,-1
 -70.783203125 93 l 2,16,17
 -70.783203125 184 -70.783203125 184 -5 184 c 2,18,19
 13.5078125 183.990234375 l 2,20,21
 165.952034374 183.909797365 165.952034374 183.909797365 219.819335938 285.2109375 c 0,22,23
 254 349 254 349 254.537109375 729.982421875 c 0,24,25
 255 1051 255 1051 233.142578125 1232 c 0,26,27
 226 1292 226 1292 268 1292.74121094 c 2,28,-1
 331 1294.08105469 l 2,29,30
 377.989414687 1295.08039554 377.989414687 1295.08039554 386.294921875 1232 c 0,31,32
 416 1005 416 1005 412.40625 752.21875 c 0,33,34
 408 487 408 487 374.209960938 281.7265625 c 0,35,36
 358 184 358 184 596.471679688 184 c 6,0,1
EndSplineSet
EndChar

StartChar: uniFEE2
Encoding: 65250 65250 237
Width: 1191
VWidth: 2424
GlyphClass: 2
Flags: W
AnchorPoint: "Anchor-10" 584.544 1025.49 basechar 0
AnchorPoint: "Anchor-7" 677.571 -422.444 basechar 0
LayerCount: 2
Fore
SplineSet
1164.47167969 184 m 2,0,1
 1196.69433594 184 l 2,2,3
 1222 184 1222 184 1221.70214844 94 c 2,4,-1
 1221.70214844 84 l 2,5,6
 1221.70214844 0 1221.70214844 0 1196.69433594 0 c 2,7,-1
 1159 0 l 2,8,9
 1043 0 1043 0 973.967773438 88 c 1,10,11
 949 53 949 53 928.602539062 35.6865234375 c 0,12,13
 821.049901656 -55.6047442657 821.049901656 -55.6047442657 602.01171875 -11.208984375 c 0,14,15
 377 33 377 33 329 10 c 0,16,17
 128 -87 128 -87 295.314453125 -647 c 0,18,19
 321 -733 321 -733 282.948242188 -753 c 2,20,-1
 215.694335938 -789 l 2,21,22
 170.982103405 -812.9337826 170.982103405 -812.9337826 151 -739 c 0,23,24
 -63 54 -63 54 275 172 c 1,25,26
 292 462 292 462 444.723632812 588.52734375 c 0,27,28
 685 788 685 788 921.435546875 490.8125 c 0,29,30
 977 421 977 421 1005.59684591 358 c 0,31,32
 1023 320 1023 320 1031.24121094 265 c 12,33,34
 1043 184 1043 184 1164.47167969 184 c 2,0,1
450.455078125 182.90234375 m 1,35,36
 577.548828125 167.151367188 577.548828125 167.151367188 655.001953125 151.58203125 c 0,37,38
 768.555664062 129.139648438 768.555664062 129.139648438 819.072265625 176.495117188 c 0,39,40
 897.868164062 249.8828125 897.868164062 249.8828125 803.094726562 381.279296875 c 0,41,42
 673.0078125 561.009765625 673.0078125 561.009765625 558.213867188 466.970703125 c 0,43,44
 444.612304688 373.626953125 444.612304688 373.626953125 450.455078125 182.90234375 c 1,35,36
EndSplineSet
EndChar

StartChar: uniFEE3
Encoding: 65251 65251 238
Width: 1039
VWidth: 2424
GlyphClass: 2
Flags: W
AnchorPoint: "Anchor-10" 491.518 988.68 basechar 0
AnchorPoint: "Anchor-7" 362.468 -242.344 basechar 0
LayerCount: 2
Fore
SplineSet
-5 184 m 2,0,-1
 14.767578125 183.989257812 l 2,1,2
 156 184 156 184 358.3203125 506.41796875 c 0,3,4
 474 692 474 692 608.272460938 704.192382812 c 0,5,6
 887 731 887 731 925.02734375 377.301757812 c 0,7,8
 966 -1 966 -1 657.036132812 -28.87890625 c 0,9,10
 471 -46 471 -46 268.120117188 133.672851562 c 1,11,12
 167 0 167 0 15.0283203125 0 c 6,13,-1
 -5 0 l 2,14,15
 -70.783203125 0 -70.783203125 0 -70.783203125 86 c 2,16,-1
 -70.783203125 93 l 2,17,18
 -71 184 -71 184 -5 184 c 2,0,-1
374.268554688 261.994140625 m 1,19,20
 505 123 505 123 651.33203125 137.32421875 c 0,21,22
 799 152 799 152 763.896484375 371.07421875 c 0,23,24
 738 531 738 531 630.389648438 527.17578125 c 0,25,26
 569 525 569 525 493.7578125 412.77734375 c 0,27,28
 463 368 463 368 374.268554688 261.994140625 c 1,19,20
EndSplineSet
EndChar

StartChar: uniFEE4
Encoding: 65252 65252 239
Width: 1101
VWidth: 2424
GlyphClass: 2
Flags: W
AnchorPoint: "Anchor-10" 492.904 1019.86 basechar 0
AnchorPoint: "Anchor-7" 389.854 -248.081 basechar 0
LayerCount: 2
Fore
SplineSet
1074.47167969 184 m 6,0,1
 1106.69433594 184 l 6,2,3
 1132 184 1132 184 1131.70214844 94 c 6,4,-1
 1131.70214844 84 l 6,5,6
 1131.70214844 0 1131.70214844 0 1106.69433594 0 c 6,7,-1
 1069 0 l 6,8,9
 952 0 952 0 896.880859375 124 c 1,10,11
 835 -13 835 -13 657.036132812 -28.87890625 c 0,12,13
 471 -46 471 -46 268.120117188 133.672851562 c 1,14,15
 167 0 167 0 11.0283203125 0 c 2,16,-1
 -5 0 l 2,17,18
 -71 0 -71 0 -70.783203125 86 c 2,19,-1
 -70.783203125 93 l 2,20,21
 -70.783203125 184 -70.783203125 184 -5 184 c 2,22,-1
 14.767578125 183.989257812 l 2,23,24
 155.945117066 183.91253847 155.945117066 183.91253847 358.3203125 506.41796875 c 0,25,26
 474 692 474 692 608.272460938 704.192382812 c 0,27,28
 887 730 887 730 925.02734375 377.301757812 c 8,29,30
 946 184 946 184 1074.47167969 184 c 6,0,1
374.268554688 261.994140625 m 1,31,32
 505 123 505 123 651.33203125 137.32421875 c 0,33,34
 799 152 799 152 763.896484375 371.07421875 c 0,35,36
 738 531 738 531 630.389648438 527.17578125 c 0,37,38
 569 525 569 525 493.7578125 412.77734375 c 0,39,40
 463 368 463 368 374.268554688 261.994140625 c 1,31,32
EndSplineSet
EndChar

StartChar: uniFEEA
Encoding: 65258 65258 245
Width: 892
VWidth: 2424
GlyphClass: 2
Flags: W
AnchorPoint: "Anchor-10" 434.907 927.94 basechar 0
AnchorPoint: "Anchor-7" 269.103 -258.389 basechar 0
LayerCount: 2
Fore
SplineSet
875.471679688 184 m 6,0,1
 897.694335938 184 l 2,2,3
 923 184 923 184 922.702148438 94 c 2,4,-1
 922.702148438 84 l 2,5,6
 922.702148438 0 922.702148438 0 897.694335938 0 c 2,7,-1
 870 0 l 6,8,9
 557 0 557 0 514 487 c 1,10,11
 327 423 327 423 266.385742188 -31 c 0,12,13
 258 -93 258 -93 205 -76.6416015625 c 2,14,-1
 138 -56.1953125 l 2,15,16
 88.9556679766 -41.2285275832 88.9556679766 -41.2285275832 104.325195312 38 c 0,17,18
 199 526 199 526 418.500976562 650 c 0,19,20
 485 688 485 688 539 685.875 c 0,21,22
 653 681 653 681 671.295898438 463.958984375 c 0,23,24
 694 184 694 184 875.471679688 184 c 6,0,1
EndSplineSet
EndChar

StartChar: uniFEEB
Encoding: 65259 65259 246
Width: 1303
VWidth: 2424
GlyphClass: 2
Flags: W
AnchorPoint: "Anchor-10" 570.504 1263.72 basechar 0
AnchorPoint: "Anchor-7" 470.415 -258.928 basechar 0
LayerCount: 2
Fore
SplineSet
-5 184 m 6,0,-1
 100.575195312 183.989257812 l 1,1,-1
 257.780273438 185.86328125 l 1,2,3
 170 241 170 241 151.5859375 353.7734375 c 0,4,5
 135 461 135 461 194.92578125 548.766601562 c 0,6,7
 289 684 289 684 441 684.6484375 c 0,8,9
 569 685 569 685 657.993164062 593.940429688 c 0,10,11
 725 525 725 525 728.071289062 438 c 0,12,13
 733 287 733 287 605.71484375 192.671875 c 1,14,15
 1032 126 1032 126 1041.57324219 298.90625 c 0,16,17
 1049 436 1049 436 794.576171875 625.217773438 c 0,18,19
 609 762 609 762 399 838.238291369 c 0,20,21
 324.828520887 865.062014514 324.828520887 865.062014514 353.282289761 909 c 2,22,-1
 399.908718721 981 l 2,23,24
 419 1011 419 1011 497 981.216057794 c 0,25,26
 639 926 639 926 790.7734375 830.888671875 c 0,27,28
 1176 591 1176 591 1196.37207031 313.748046875 c 0,29,30
 1218 28 1218 28 870.006835938 3.357421875 c 0,31,32
 619 -15 619 -15 440.96875 74.560546875 c 1,33,34
 271 0 271 0 7.7138671875 0 c 2,35,-1
 -5 0 l 6,36,37
 -70.783203125 0 -70.783203125 0 -70.783203125 86 c 6,38,-1
 -70.783203125 93 l 6,39,40
 -71 184 -71 184 -5 184 c 6,0,-1
423.557617188 228.50390625 m 1,41,42
 585 283 585 283 587.204101562 399 c 0,43,44
 588 447 588 447 566.342773438 476.899414062 c 0,45,46
 521 543 521 543 445 542.711914062 c 0,47,48
 329 543 329 543 293.545898438 445.669921875 c 0,49,50
 272 385 272 385 303.5 324.5 c 0,51,52
 338 260 338 260 423.557617188 228.50390625 c 1,41,42
EndSplineSet
EndChar

StartChar: uniFEEC
Encoding: 65260 65260 247
Width: 1008
VWidth: 2424
GlyphClass: 2
Flags: W
AnchorPoint: "Anchor-7" 339.892 -761.909 basechar 0
AnchorPoint: "Anchor-10" 496.908 908.55 basechar 0
LayerCount: 2
Fore
SplineSet
976.341796875 0 m 6,0,1
 697 0 697 0 545.739257812 -301.473632812 c 0,2,3
 466.870211092 -457.483698825 466.870211092 -457.483698825 417.685134226 -531 c 0,4,5
 343.450148689 -641.958077168 343.450148689 -641.958077168 276.188476562 -590.044921875 c 0,6,7
 182 -517 182 -517 211.350585938 -249.178710938 c 0,8,9
 235 -38 235 -38 302.456054688 124.759765625 c 1,10,-1
 298.908203125 126.581054688 l 1,11,12
 270 79 270 79 204.732421875 43.2041015625 c 0,13,14
 127 0 127 0 7.9609375 0 c 2,15,-1
 -5 0 l 2,16,17
 -70.783203125 0 -70.783203125 0 -70.783203125 86 c 2,18,-1
 -70.783203125 93 l 2,19,20
 -70.9994809209 183.782117703 -70.9994809209 183.782117703 -5 184 c 2,21,-1
 25.7646484375 184.1015625 l 2,22,23
 229 185 229 185 383.142578125 330.072265625 c 0,24,25
 496 437 496 437 545.423828125 393.111328125 c 0,26,27
 595 349 595 349 473.244140625 155.333984375 c 0,28,29
 352 -38 352 -38 331.05859375 -419.59375 c 1,30,31
 432 -91 432 -91 692.166015625 85.4375 c 0,32,33
 838 184 838 184 977.471679688 184 c 6,34,-1
 1009.69433594 184 l 6,35,36
 1034.70214844 184 1034.70214844 184 1034.70214844 94 c 6,37,-1
 1034.70214844 84 l 6,38,39
 1035 0 1035 0 1009.69433594 0 c 6,40,-1
 976.341796875 0 l 6,0,1
EndSplineSet
EndChar

StartChar: uniFEEE
Encoding: 65262 65262 249
Width: 884
VWidth: 2424
GlyphClass: 2
Flags: W
AnchorPoint: "Anchor-10" 418.287 1089.14 basechar 0
AnchorPoint: "Anchor-7" 343.772 -664.34 basechar 0
LayerCount: 2
Fore
SplineSet
889.694335938 184 m 6,0,1
 915 184 915 184 914.702148438 94 c 6,2,-1
 914.702148438 84 l 6,3,4
 914.702148438 0 914.702148438 0 889.694335938 0 c 6,5,-1
 764.969726562 0 l 17,6,7
 743 -123 743 -123 685.041015625 -220.284179688 c 0,8,9
 541 -464 541 -464 207 -512.750976562 c 0,10,11
 185 -516 185 -516 163.17578125 -485 c 2,12,-1
 124.533203125 -431 l 2,13,14
 100.929266494 -398.015332829 100.929266494 -398.015332829 136 -390.413085938 c 0,15,16
 517 -308 517 -308 613.791992188 17.2353515625 c 1,17,18
 507 -1 507 -1 414.9140625 -1.2158203125 c 0,19,20
 125 -2 125 -2 124.840820312 254.8515625 c 0,21,22
 125 307 125 307 137.73828125 366.8515625 c 0,23,24
 167 503 167 503 257.859375 611.171875 c 0,25,26
 341 709 341 709 465.9140625 708.8515625 c 0,27,28
 629 709 629 709 702.4375 543.227539062 c 0,29,30
 755 425 755 425 768.16015625 318.985351562 c 16,31,32
 777 249 777 249 778.79296875 183 c 9,33,-1
 889.694335938 184 l 6,0,1
457.122070312 531.877929688 m 0,34,35
 319.102579933 531.317374351 319.102579933 531.317374351 275.311523438 336.920898438 c 0,36,37
 266 295 266 295 275.67578125 257.8515625 c 0,38,39
 299 169 299 169 442.9140625 168.922851562 c 0,40,41
 508 169 508 169 626.587890625 184.158203125 c 1,42,43
 623.843979967 282.597292293 623.843979967 282.597292293 602.561523438 371.29296875 c 0,44,45
 564 531 564 531 457.122070312 531.877929688 c 0,34,35
EndSplineSet
EndChar

StartChar: uniFEF0
Encoding: 65264 65264 251
Width: 1354
VWidth: 2424
GlyphClass: 2
Flags: W
AnchorPoint: "Anchor-10" 641.753 762.163 basechar 0
AnchorPoint: "Anchor-7" 241.675 -740.437 basechar 0
LayerCount: 2
Fore
SplineSet
1326 0 m 6,0,1
 1127 0 1127 0 1077.66503906 -60.84765625 c 0,2,3
 1050 -95 1050 -95 1118.94433594 -141.877929688 c 0,4,5
 1221 -211 1221 -211 1235.0625 -268.41015625 c 0,6,7
 1283 -476 1283 -476 1007.59277344 -608.884765625 c 0,8,9
 840 -690 840 -690 628 -690.14453125 c 0,10,11
 135 -690 135 -690 105.727539062 -307.951171875 c 0,12,13
 93 -138 93 -138 183.845703125 92.92578125 c 0,14,15
 255 274 255 274 395.366210938 469 c 0,16,17
 434.026358935 523.036842943 434.026358935 523.036842943 473 498 c 2,18,-1
 518 469.091796875 l 2,19,20
 553 447 553 447 515.006835938 379 c 0,21,22
 405 183 405 183 404.264648438 180.65625 c 0,23,24
 242 -133 242 -133 286.5 -313 c 0,25,26
 337 -518 337 -518 640 -515.765625 c 0,27,28
 926 -514 926 -514 1055.17480469 -382.154296875 c 0,29,30
 1115 -321 1115 -321 1055.14453125 -280.587890625 c 0,31,32
 902 -177 902 -177 906.72265625 -78.0419921875 c 0,33,34
 911 5 911 5 967.37890625 68.8876953125 c 0,35,36
 1068 184 1068 184 1327.12988281 184 c 6,37,-1
 1359.35253906 184 l 6,38,39
 1384.36035156 184 1384.36035156 184 1384.36035156 94 c 6,40,-1
 1384.36035156 84 l 6,41,42
 1384 0 1384 0 1359.35253906 0 c 6,43,-1
 1326 0 l 6,0,1
EndSplineSet
EndChar

StartChar: uniFEFB
Encoding: 65275 65275 262
Width: 1100
VWidth: 2424
GlyphClass: 3
Flags: W
AnchorPoint: "Anchor-9" 856.529 1448.94 baselig 0
AnchorPoint: "Anchor-6" 819.905 -195.019 baselig 0
AnchorPoint: "Anchor-6" 200.031 -236.635 baselig 1
AnchorPoint: "Anchor-9" 188.941 1332.02 baselig 1
LayerCount: 2
Fore
SplineSet
667.610351562 241.973632812 m 1,0,1
 817 367 817 367 814.28125 690.759765625 c 0,2,3
 811.330292841 982.361759029 811.330292841 982.361759029 784.046281697 1240 c 0,4,5
 777.98285912 1297.25586017 777.98285912 1297.25586017 819 1298.17395303 c 6,6,-1
 891 1299.7855399 l 2,7,8
 931.518241624 1300.69246582 931.518241624 1300.69246582 939.472778491 1238 c 0,9,10
 966.251641193 1026.94648896 966.251641193 1026.94648896 967.873046875 697.9921875 c 0,11,12
 970 326 970 326 828.876953125 169.1640625 c 24,13,14
 677 -0 677 -0 368.563476562 0.556640625 c 0,15,16
 137 1 137 1 137.0390625 193.586914062 c 1,17,18
 385 158 385 158 527.756835938 184.723632812 c 1,19,-1
 150.586914062 1008 l 2,20,21
 121.023937756 1071.9482198 121.023937756 1071.9482198 146 1091.01855469 c 2,22,-1
 215 1143.703125 l 2,23,24
 257.880011269 1176.90708721 257.880011269 1176.90708721 284.572265625 1116 c 2,25,-1
 667.610351562 241.973632812 l 1,0,1
EndSplineSet
LCarets2: 1 0
Ligature2: "'rlig' Required Ligatures in Arabic lookup 16 subtable" uniFEDF uniFE8E
EndChar

StartChar: uniFEFC
Encoding: 65276 65276 263
Width: 1302
VWidth: 2424
GlyphClass: 3
Flags: W
AnchorPoint: "Anchor-9" 978.992 1435.35 baselig 0
AnchorPoint: "Anchor-6" 935.105 -232.406 baselig 0
AnchorPoint: "Anchor-6" 290.9 -240.925 baselig 1
AnchorPoint: "Anchor-9" 122.156 1295.73 baselig 1
LayerCount: 2
Fore
SplineSet
1285.12988281 184 m 6,0,1
 1307.35253906 184 l 2,2,3
 1332 184 1332 184 1332.36035156 94 c 2,4,-1
 1332.36035156 84 l 2,5,6
 1332.36035156 0 1332.36035156 0 1307.35253906 0 c 2,7,-1
 1284 0 l 6,8,9
 1010 0 1010 0 961.388671875 332.71484375 c 1,10,11
 820 -0 820 -0 368.563476562 0.556640625 c 0,12,13
 137 1 137 1 137.0390625 193.586914062 c 1,14,15
 387 160 387 160 527.756835938 184.723632812 c 1,16,-1
 150.587334237 1008 l 2,17,18
 121.197896869 1072.15054537 121.197896869 1072.15054537 146 1091.01815931 c 2,19,20
 215 1143.70322078 l 2,21,22
 258.151695637 1176.6517677 258.151695637 1176.6517677 284.572588798 1116 c 2,23,-1
 667.610351562 241.973632812 l 1,24,25
 837 347 837 347 882.69140625 530.389648438 c 24,26,27
 910 642 910 642 902.020507812 891.501953125 c 2,28,-1
 890.723071859 1239 l 2,29,30
 889 1292 889 1292 932 1292.34101313 c 2,31,-1
 1013 1292.98338669 l 2,32,33
 1055.99732686 1293.32437861 1055.99732686 1293.32437861 1056.46972656 1236 c 2,34,-1
 1056.46972656 701.65625 l 2,35,36
 1056.46972656 437.000550089 1056.46972656 437.000550089 1109.26757812 324.661132812 c 0,37,38
 1174 184 1174 184 1285.12988281 184 c 6,0,1
EndSplineSet
LCarets2: 1 0
Ligature2: "'rlig' Required Ligatures in Arabic lookup 16 subtable" uniFEE0 uniFE8E
EndChar

StartChar: arabic_dot
Encoding: 65536 -1 264
Width: 163
VWidth: 2276
GlyphClass: 2
Flags: W
LayerCount: 2
Fore
SplineSet
114.651531225 193.088229776 m 2,0,-1
 131.487254976 178.058042281 l 2,1,2
 236.974776154 83.9067190411 236.974776154 83.9067190411 131.799965514 -6.71425012194 c 2,3,-1
 100.649633603 -33.5540432824 l 6,4,5
 76 -55 76 -55 51.4181524939 -32.4074121295 c 6,6,-1
 -43.3055020246 54.1145235959 l 2,7,8
 -69.8972704564 77.1105814495 -69.8972704564 77.1105814495 -43.9624795229 104.41266898 c 2,9,-1
 46.9309498725 195.012097334 l 2,10,11
 78.9540015498 224.95530572 78.9540015498 224.95530572 114.651531225 193.088229776 c 2,0,-1
EndSplineSet
EndChar

StartChar: arabic_2dots
Encoding: 65537 -1 265
Width: 499
VWidth: 2276
GlyphClass: 2
Flags: W
LayerCount: 2
Fore
SplineSet
142.186884146 193.233365231 m 6,0,-1
 159.012353236 178.212613003 l 6,1,2
 260.232474042 87.8458820354 260.232474042 87.8458820354 159.387901118 0.958488510745 c 6,3,-1
 128.239442426 -25.8803969363 l 6,4,5
 105.809098801 -45.2072607029 105.809098801 -45.2072607029 85.8254516583 -25.0054673494 c 6,6,-1
 -9.67999658078 62.1851097109 l 6,7,8
 -32.0952399185 81.0513632518 -32.0952399185 81.0513632518 -9.48481928257 104.853817835 c 6,9,-1
 81.1972832844 195.245533442 l 6,10,11
 109.883489286 222.069891283 109.883489286 222.069891283 142.186884146 193.233365231 c 6,0,-1
426.986647897 191.007815836 m 6,12,-1
 443.812610742 175.987599338 l 6,13,14
 545.025881659 85.6159420927 545.025881659 85.6159420927 444.187842112 -1.26600341341 c 6,15,-1
 412.598639401 -28.4856437223 l 6,16,17
 390.186358714 -47.0056892733 390.186358714 -47.0056892733 370.625122496 -27.2309179821 c 6,18,-1
 275.546388458 59.6172036049 l 6,19,20
 253 80 253 80 275.316029276 102.62927932 c 6,21,-1
 365.997902878 193.020772899 l 6,22,23
 394.683285384 219.845550738 394.683285384 219.845550738 426.986647897 191.007815836 c 6,12,-1
EndSplineSet
EndChar

StartChar: arabic_3dots
Encoding: 65538 -1 266
Width: 503
VWidth: 2276
GlyphClass: 2
Flags: W
LayerCount: 2
Fore
SplineSet
279.635406455 408.503426192 m 2,0,-1
 296.401819803 393.534844196 l 2,1,2
 393.377779775 306.973678257 393.377779775 306.973678257 296.845688581 223.797990717 c 2,3,-1
 265.695623911 196.959404394 l 2,4,5
 246.804668234 180.680311962 246.804668234 180.680311962 230.099274685 197.563163852 c 2,6,-1
 134.820141397 284.608053324 l 2,7,8
 115.467607981 301.186612915 115.467607981 301.186612915 134.765783587 320.364419862 c 2,9,-1
 225.391183882 410.698645467 l 2,10,11
 250.681303758 434.348385786 250.681303758 434.348385786 279.635406455 408.503426192 c 2,0,-1
129.387447743 173.819753738 m 2,12,-1
 146.214115238 158.796745532 l 2,13,14
 243.196434634 72.2394586044 243.196434634 72.2394586044 146.658256734 -10.9392552488 c 2,15,-1
 115.507747436 -37.7792012471 l 2,16,17
 96.6146288018 -54.056885615 96.6146288018 -54.056885615 79.9130092094 -37.1753781179 c 2,18,-1
 -15.3707315606 49.8697054451 l 2,19,20
 -33.8153242972 66.2967325565 -33.8153242972 66.2967325565 -15.3750800924 85.6735983331 c 2,21,-1
 75.2038062739 175.961452812 l 2,22,23
 100.494944294 199.611096003 100.494944294 199.611096003 129.387447743 173.819753738 c 2,12,-1
427.262336235 176.289579839 m 2,24,-1
 444.364525379 161.022314051 l 2,25,26
 540.554240889 75.1715266129 540.554240889 75.1715266129 445.397059884 -8.2068181695 c 2,27,-1
 413.658514536 -35.5532909182 l 2,28,29
 394.767558859 -51.8323833511 394.767558859 -51.8323833511 378.062165311 -34.94953146 c 2,30,-1
 282.814451153 52.0625008964 l 2,31,32
 264.206101201 69.1675144515 264.206101201 69.1675144515 282.727791882 87.8528024145 c 2,33,-1
 373.354639774 178.186554485 l 2,34,35
 398.858262594 201.64474052 398.858262594 201.64474052 427.262336235 176.289579839 c 2,24,-1
EndSplineSet
EndChar

StartChar: arabic_3dots_a
Encoding: 65539 -1 267
Width: 502
VWidth: 2276
GlyphClass: 2
Flags: W
LayerCount: 2
Fore
SplineSet
132.170565768 203.148931262 m 6,0,-1
 148.995696295 188.129457846 l 6,1,2
 245.551916992 101.937069703 245.551916992 101.937069703 149.859587694 18.754713583 c 6,3,-1
 118.289273912 -8.4459552145 l 6,4,5
 99.3958638009 -24.7262935335 99.3958638009 -24.7262935335 82.6945789201 -7.84269348386 c 6,6,-1
 -12.5341286621 79.1508846812 l 6,7,8
 -30.85487556 96.1841318292 -30.85487556 96.1841318292 -12.6109051082 114.988608615 c 6,9,-1
 77.9850562821 205.29348407 l 6,10,11
 103.109578595 229.092025723 103.109578595 229.092025723 132.170565768 203.148931262 c 6,0,-1
428.083202497 202.047488758 m 6,12,-1
 444.921494716 187.016161269 l 6,13,14
 541.89327389 100.452016377 541.89327389 100.452016377 445.364311422 17.2804713135 c 6,15,-1
 414.213940367 -9.55935557321 l 6,16,17
 395.256810361 -25.7738062321 395.256810361 -25.7738062321 378.618211818 -8.95480082252 c 6,18,-1
 283.384172105 78.0457308015 l 6,19,20
 265.132376642 95.1653215437 265.132376642 95.1653215437 283.312539642 113.874949174 c 6,21,-1
 373.990108625 204.261169202 l 6,22,23
 398.214698524 229.063881211 398.214698524 229.063881211 428.083202497 202.047488758 c 6,12,-1
279.285802214 -21.8129846464 m 6,24,-1
 295.846151044 -36.5960109871 l 6,25,26
 392.820093457 -123.155156668 392.820093457 -123.155156668 296.289106681 -206.332818059 c 6,27,-1
 265.140217196 -233.171233198 l 6,28,29
 246.250078042 -249.451858758 246.250078042 -249.451858758 229.454946425 -232.477106523 c 6,30,-1
 134.192461461 -145.460143406 l 6,31,32
 115.370020296 -129.916042576 115.370020296 -129.916042576 134.25739146 -109.717373308 c 6,33,-1
 224.835510018 -19.4312465107 l 6,34,35
 250.125827605 4.21867869295 250.125827605 4.21867869295 279.285802214 -21.8129846464 c 6,24,-1
EndSplineSet
EndChar

StartChar: uni066E.fina
Encoding: 65540 -1 268
Width: 2013
VWidth: 2424
GlyphClass: 2
Flags: W
AnchorPoint: "Anchor-10" 719.088 1177.81 basechar 0
AnchorPoint: "Anchor-7" 719.088 -201.138 basechar 0
LayerCount: 2
Fore
SplineSet
1960 0 m 2,0,1
 1703 0 1703 0 1682.15234375 238.955078125 c 1,2,3
 1444 -28 1444 -28 804.12890625 -28 c 0,4,5
 102 -28 102 -28 102.138671875 465.259765625 c 0,6,7
 102 605 102 605 169 748 c 0,8,9
 209.069950457 832.146895959 209.069950457 832.146895959 254 810.586742354 c 2,10,-1
 308 784.674278279 l 2,11,12
 347 766 347 766 318.543564091 704 c 0,13,14
 263 582 263 582 263.344726562 485.079101562 c 0,15,16
 264 158 264 158 827 157.327148438 c 0,17,18
 1126 157 1126 157 1312.76855469 220.149414062 c 0,19,20
 1601 316 1601 316 1686 541.310439055 c 0,21,22
 1706.11268836 594.296875 1706.11268836 594.296875 1738 594.296875 c 2,23,-1
 1786 594.296875 l 2,24,25
 1819.62631976 594.003262833 1819.62631976 594.003262833 1815.1267823 559 c 2,26,-1
 1806 488 l 2,27,28
 1767 184 1767 184 1961.12988281 184 c 2,29,-1
 2018.35253906 184 l 6,30,31
 2043.36035156 184 2043.36035156 184 2043.36035156 94 c 6,32,-1
 2043.36035156 84 l 6,33,34
 2043 0 2043 0 2018.35253906 0 c 6,35,-1
 1960 0 l 2,0,1
EndSplineSet
EndChar

StartChar: uni06A1.fina
Encoding: 65543 -1 269
Width: 1938
VWidth: 2424
GlyphClass: 2
Flags: W
AnchorPoint: "Anchor-10" 598.862 1296.84 basechar 0
AnchorPoint: "Anchor-7" 717.9 -250.644 basechar 0
LayerCount: 2
Fore
SplineSet
1910 0 m 6,0,1
 1590 0 1590 0 1468.18847656 100.206054688 c 1,2,3
 1299 -28 1299 -28 804.12890625 -28 c 0,4,5
 103 -28 103 -28 102.138671875 465.259765625 c 0,6,7
 102 605 102 605 169 748 c 0,8,9
 209.070217571 832.147456899 209.070217571 832.147456899 254 810.586914062 c 2,10,-1
 308 784.673828125 l 2,11,12
 347 766 347 766 318.543945312 704 c 0,13,14
 263 582 263 582 263.344726562 485.079101562 c 0,15,16
 265 158 265 158 827 157.327148438 c 0,17,18
 1187 157 1187 157 1302 196 c 1,19,20
 1152 329 1152 329 1151.37890625 517.016601562 c 0,21,22
 1151 655 1151 655 1250.00292969 747.516601562 c 0,23,24
 1345 838 1345 838 1475.23144531 837.411132812 c 0,25,26
 1606 837 1606 837 1702.73144531 747.516601562 c 0,27,28
 1801 657 1801 657 1801.35546875 517.016601562 c 0,29,30
 1802 335 1802 335 1635.11328125 185.606445312 c 1,31,32
 1717 184 1717 184 1911.12988281 184 c 6,33,-1
 1943.35253906 184 l 6,34,35
 1968.36035156 184 1968.36035156 184 1968.36035156 94 c 6,36,-1
 1968.36035156 84 l 6,37,38
 1968 0 1968 0 1943.35253906 0 c 6,39,-1
 1910 0 l 6,0,1
1476.23144531 670.016601562 m 128,-1,41
 1409.23144531 670.016601562 1409.23144531 670.016601562 1364.99023438 626.590820312 c 0,42,43
 1311.23144531 573.016601562 1311.23144531 573.016601562 1310.50292969 512.516601562 c 0,44,45
 1310.23144531 378.016601562 1310.23144531 378.016601562 1476.3671875 270.400390625 c 1,46,47
 1642.23144531 378.016601562 1642.23144531 378.016601562 1642.23144531 512.516601562 c 0,48,49
 1642.23144531 574.016601562 1642.23144531 574.016601562 1587.74414062 626.590820312 c 0,50,40
 1543.23144531 670.016601562 1543.23144531 670.016601562 1476.23144531 670.016601562 c 128,-1,41
EndSplineSet
EndChar

StartChar: uni06A1.init
Encoding: 65544 -1 270
Width: 854
VWidth: 2424
GlyphClass: 2
Flags: W
AnchorPoint: "Anchor-10" 411.152 1300.26 basechar 0
AnchorPoint: "Anchor-7" 383.34 -191.125 basechar 0
LayerCount: 2
Fore
SplineSet
-5 184 m 6,0,-1
 61.224609375 183.990234375 l 2,1,2
 539 184 539 184 594.877929688 380.383789062 c 1,3,4
 489 362 489 362 396 361.932312221 c 0,5,6
 106 361 106 361 105.926757812 588 c 0,7,8
 106 640 106 640 118.82421875 700 c 0,9,10
 149 837 149 837 238.9453125 944.3203125 c 0,11,12
 322 1042 322 1042 447 1042 c 0,13,14
 615 1042 615 1042 683.5234375 886.375976562 c 0,15,16
 733 775 733 775 749.24609375 652.133789062 c 0,17,18
 795 311 795 311 624.672851562 150.46875 c 0,19,20
 464 0 464 0 61.1884765625 0 c 2,21,-1
 -5 0 l 6,22,23
 -70.783203125 0 -70.783203125 0 -70.783203125 86 c 6,24,-1
 -70.783203125 93 l 6,25,26
 -71 184 -71 184 -5 184 c 6,0,-1
435.208007812 865.026367188 m 0,27,28
 300 862 300 862 256.397460938 670.069335938 c 0,29,30
 224.247306856 531.975843553 224.247306856 531.975843553 424 532.070918614 c 0,31,32
 489 532 489 532 607.673828125 547.306640625 c 1,33,34
 605 616 605 616 583.647460938 704.44140625 c 0,35,36
 545 867 545 867 435.208007812 865.026367188 c 0,27,28
EndSplineSet
EndChar

StartChar: uni06A1.medi
Encoding: 65545 -1 271
Width: 982
VWidth: 2424
GlyphClass: 2
Flags: W
AnchorPoint: "Anchor-10" 520.189 1118.29 basechar 0
AnchorPoint: "Anchor-7" 500.189 -191.125 basechar 0
LayerCount: 2
Fore
SplineSet
954 0 m 6,0,1
 628 0 628 0 523.95703125 110.189453125 c 1,2,3
 397 0 397 0 66.486328125 -0 c 2,4,-1
 -5 0 l 2,5,6
 -70.783203125 0 -70.783203125 0 -70.783203125 86 c 2,7,-1
 -70.783203125 93 l 2,8,9
 -71.0000256731 184.010776218 -71.0000256731 184.010776218 -5 184 c 2,10,-1
 54.810546875 183.990234375 l 2,11,12
 167 184 167 184 363.389648438 185.58984375 c 1,13,14
 198 333 198 333 197.147460938 517 c 0,15,16
 197 655 197 655 295.771484375 747.5 c 0,17,18
 391 838 391 838 521 837.39453125 c 0,19,20
 652 837 652 837 748.5 747.5 c 0,21,22
 847 657 847 657 847.124023438 517 c 0,23,24
 848 335 848 335 680.881835938 185.58984375 c 1,25,26
 762 184 762 184 955.129882812 184 c 6,27,-1
 987.352539062 184 l 6,28,29
 1012.36035156 184 1012.36035156 184 1012.36035156 94 c 6,30,-1
 1012.36035156 84 l 6,31,32
 1012 0 1012 0 987.352539062 0 c 6,33,-1
 954 0 l 6,0,1
522 670 m 128,-1,35
 455 670 455 670 410.758789062 626.57421875 c 0,36,37
 357 573 357 573 356.271484375 512.5 c 0,38,39
 356 378 356 378 522.135742188 270.383789062 c 1,40,41
 688 378 688 378 688 512.5 c 0,42,43
 688 574 688 574 633.512695312 626.57421875 c 0,44,34
 589 670 589 670 522 670 c 128,-1,35
EndSplineSet
EndChar

StartChar: uni066F.fina
Encoding: 65546 -1 272
Width: 1493
VWidth: 2424
GlyphClass: 2
Flags: W
AnchorPoint: "Anchor-10" 223.537 999.25 basechar 0
AnchorPoint: "Anchor-7" 316.593 -801.688 basechar 0
LayerCount: 2
Fore
SplineSet
271.977539062 -55 m 4,0,1
 273 -380 273 -380 750 -376.5 c 0,2,3
 1099 -374 1099 -374 1177 -141.524142368 c 0,4,5
 1199 -76 1199 -76 1199.68554688 18.4619140625 c 1,6,7
 1094 0 1094 0 1000.80761719 0.0107421875 c 0,8,9
 710 -1 710 -1 710.734375 256.078125 c 0,10,11
 711 308 711 308 723.631835938 368.078125 c 0,12,13
 754 507 754 507 843.752929688 612.3984375 c 0,14,15
 927 710 927 710 1051.80761719 710.078125 c 0,16,17
 1215 710 1215 710 1288.33105469 544.454101562 c 0,18,19
 1340 428 1340 428 1354.05371094 320.211914062 c 16,20,21
 1363 250 1363 250 1364.68652344 184.2265625 c 1,22,-1
 1452.34960938 184.435546875 l 1,23,-1
 1513.10546875 184.435546875 l 1,24,-1
 1513.10546875 0.57421875 l 1,25,-1
 1362.28417969 1.9072265625 l 1,26,27
 1327 -556 1327 -556 722 -554.098632812 c 0,28,29
 105 -552 105 -552 107.877929688 -70.9833984375 c 4,30,31
 109 216 109 216 327.528320312 490 c 4,32,33
 369.004696307 542.005888548 369.004696307 542.005888548 413 511.784179688 c 6,34,-1
 461 478.811523438 l 6,35,36
 496 455 496 455 453.912109375 394 c 4,37,38
 271 133 271 133 271.977539062 -55 c 4,0,1
1043.015625 533.104492188 m 0,39,40
 904.776341801 531.568236493 904.776341801 531.568236493 861.205078125 338.147460938 c 0,41,42
 852 297 852 297 861.569335938 259.078125 c 0,43,44
 885 170 885 170 1028.80761719 170.149414062 c 0,45,46
 1094 170 1094 170 1212.48144531 185.384765625 c 1,47,48
 1209.8609827 283.188556843 1209.8609827 283.188556843 1188.45507812 372.51953125 c 0,49,50
 1150 533 1150 533 1043.015625 533.104492188 c 0,39,40
EndSplineSet
EndChar

StartChar: arabic_ring
Encoding: 65549 -1 273
Width: 484
VWidth: 2276
GlyphClass: 2
Flags: W
LayerCount: 2
Fore
SplineSet
296.046875 338.033203125 m 0,0,1
 271.557617188 352.662109375 271.557617188 352.662109375 232.877929688 352.662109375 c 128,-1,2
 194.197265625 352.662109375 194.197265625 352.662109375 162.4609375 320.926757812 c 128,-1,3
 130.724609375 289.190429688 130.724609375 289.190429688 130.724609375 242.193359375 c 128,-1,4
 130.724609375 195.197265625 130.724609375 195.197265625 162.470703125 164.017578125 c 128,-1,5
 194.217773438 132.837890625 194.217773438 132.837890625 240.6484375 132.837890625 c 0,6,7
 287.079101562 132.837890625 287.079101562 132.837890625 318.814453125 164.573242188 c 128,-1,8
 350.549804688 196.30859375 350.549804688 196.30859375 350.549804688 250.893554688 c 128,-1,9
 350.549804688 305.477539062 350.549804688 305.477539062 296.046875 338.033203125 c 0,0,1
482.275390625 242.75 m 128,-1,11
 482.275390625 141.219726562 482.275390625 141.219726562 412.216796875 70.609375 c 128,-1,12
 342.159179688 0 342.159179688 0 240.637695312 0 c 128,-1,13
 139.125 0 139.125 0 69.0625 70.6142578125 c 128,-1,14
 -1 141.228515625 -1 141.228515625 -1 242.75 c 128,-1,15
 -1 344.271484375 -1 344.271484375 69.0576171875 414.330078125 c 128,-1,16
 139.115234375 484.387695312 139.115234375 484.387695312 240.637695312 484.387695312 c 128,-1,17
 342.16796875 484.387695312 342.16796875 484.387695312 412.7734375 414.885742188 c 0,18,10
 482.275390625 344.280273438 482.275390625 344.280273438 482.275390625 242.75 c 128,-1,11
EndSplineSet
EndChar

StartChar: arabic_gaf_bar
Encoding: 65550 -1 274
Width: 746
VWidth: 2276
GlyphClass: 2
Flags: W
LayerCount: 2
Fore
SplineSet
706 1778.19785281 m 0,0,1
 378.175368115 1700.48226375 378.175368115 1700.48226375 20 1469.00775097 c 0,2,3
 -1 1455.43628514 -1 1455.43628514 -1 1479 c 6,4,-1
 -1 1545 l 2,5,6
 -1 1571.4579868 -1 1571.4579868 20 1585.28465299 c 0,7,8
 363.828571159 1811.66574264 363.828571159 1811.66574264 712 1896.47897248 c 0,9,10
 735.924804688 1902.30696349 735.924804688 1902.30696349 735.924804688 1880 c 2,11,-1
 735.924804688 1814 l 2,12,13
 735.924804688 1785.29196227 735.924804688 1785.29196227 706 1778.19785281 c 0,0,1
EndSplineSet
EndChar

StartChar: uni066E.init.math
Encoding: 65560 -1 284
Width: 972
VWidth: 2424
GlyphClass: 2
Flags: W
LayerCount: 2
Fore
SplineSet
633.579101562 103.881835938 m 0,0,1
 553.874023438 9.4560546875 553.874023438 9.4560546875 377.919921875 9.4560546875 c 2,2,-1
 -4.783203125 9.4560546875 l 1,3,-1
 -4.783203125 184.435546875 l 1,4,-1
 312.44921875 184.435546875 l 2,5,6
 563.026367188 184.435546875 563.026367188 184.435546875 563.026367188 443.344726562 c 2,7,-1
 563.026367188 679.630859375 l 1,8,-1
 738.005859375 679.630859375 l 1,9,-1
 738.005859375 443.344726562 l 2,10,11
 738.005859375 229.372070312 738.005859375 229.372070312 633.579101562 103.881835938 c 0,0,1
EndSplineSet
EndChar

StartChar: guillemotleft
Encoding: 171 171 285
Width: 963
VWidth: 2170
Flags: W
LayerCount: 2
Fore
SplineSet
373.478515625 918.323242188 m 1,0,-1
 534.055664062 918.323242188 l 1,1,-1
 500.080078125 858.581054688 l 2,2,3
 315 533 315 533 314.801757812 458.935546875 c 0,4,5
 314.999023438 384.346679688 314.999023438 384.346679688 500.02734375 60.2919921875 c 2,6,-1
 534.173828125 0.48828125 l 1,7,-1
 373.516601562 0.48828125 l 1,8,9
 146 360 146 360 145.803710938 458.998046875 c 0,10,11
 146 558 146 558 373.478515625 918.323242188 c 1,0,-1
722.079101562 0.48828125 m 1,12,13
 494 360 494 360 493.998046875 458.998046875 c 128,-1,14
 494 558 494 558 722.040039062 918.323242188 c 1,15,-1
 882.616210938 918.323242188 l 1,16,-1
 848.641601562 858.583007812 l 2,17,18
 663 532 663 532 663.002929688 458.7265625 c 128,-1,19
 663 385.314453125 663 385.314453125 848.586914062 60.2919921875 c 2,20,-1
 882.734375 0.48828125 l 1,21,-1
 722.079101562 0.48828125 l 1,12,13
EndSplineSet
EndChar

StartChar: guillemotright
Encoding: 187 187 286
Width: 957
VWidth: 2170
Flags: W
LayerCount: 2
Fore
SplineSet
589.32421875 918.323242188 m 5,0,1
 817 558 817 558 816.999023438 458.998046875 c 132,-1,2
 817 360 817 360 589.286132812 0.48828125 c 5,3,-1
 428.62890625 0.48828125 l 5,4,-1
 462.774414062 60.2900390625 l 6,5,6
 648 385 648 385 648.000976562 458.935546875 c 132,-1,7
 648 532.793945312 648 532.793945312 462.72265625 858.581054688 c 6,8,-1
 428.747070312 918.323242188 l 5,9,-1
 589.32421875 918.323242188 l 5,0,1
240.760742188 918.323242188 m 5,10,11
 469 558 469 558 469.00390625 458.998046875 c 132,-1,12
 469 360 469 360 240.72265625 0.48828125 c 5,13,-1
 80.068359375 0.48828125 l 5,14,-1
 114.21484375 60.2900390625 l 6,15,16
 300 386 300 386 299.995117188 458.943359375 c 132,-1,17
 300 531.80859375 300 531.80859375 114.162109375 858.581054688 c 6,18,-1
 80.1865234375 918.323242188 l 5,19,-1
 240.760742188 918.323242188 l 5,10,11
EndSplineSet
EndChar

